G04*
G04 #@! TF.GenerationSoftware,Altium Limited,Altium Designer,20.0.7 (75)*
G04*
G04 Layer_Color=16711935*
%FSLAX25Y25*%
%MOIN*%
G70*
G01*
G75*
%ADD57C,0.07894*%
%ADD58C,0.04744*%
%ADD59C,0.12618*%
%ADD60R,0.08288X0.08288*%
%ADD61C,0.08288*%
%ADD62C,0.06020*%
%ADD63R,0.07894X0.06319*%
%ADD64O,0.07894X0.06319*%
D57*
X3661811Y720472D02*
D03*
Y669291D02*
D03*
Y618110D02*
D03*
Y566929D02*
D03*
X3488500Y752913D02*
D03*
Y678740D02*
D03*
X3134851D02*
D03*
Y752913D02*
D03*
X3377559D02*
D03*
Y678740D02*
D03*
X3254331D02*
D03*
Y752913D02*
D03*
D58*
X3546358Y670768D02*
D03*
Y690453D02*
D03*
X3612598Y724803D02*
D03*
Y705118D02*
D03*
X3577559Y679921D02*
D03*
X3597244D02*
D03*
X3237795Y588583D02*
D03*
Y568898D02*
D03*
X3247244Y619685D02*
D03*
X3227559D02*
D03*
X3658268Y745669D02*
D03*
X3638583D02*
D03*
X3187795Y611417D02*
D03*
X3207480D02*
D03*
X3589370Y756693D02*
D03*
Y746850D02*
D03*
X3614960Y743307D02*
D03*
Y753150D02*
D03*
D59*
X3640157Y566929D02*
D03*
X3128740Y803150D02*
D03*
X3131890Y566929D02*
D03*
X3661024Y803150D02*
D03*
D60*
X3176772Y762598D02*
D03*
X3295275D02*
D03*
X3419291D02*
D03*
X3529900Y762047D02*
D03*
D61*
X3166772Y762598D02*
D03*
X3156772D02*
D03*
X3275275D02*
D03*
X3285276D02*
D03*
X3409291D02*
D03*
X3399291D02*
D03*
X3509900Y762047D02*
D03*
X3519900D02*
D03*
D62*
X3205906Y574803D02*
D03*
X3186221D02*
D03*
D63*
X3300471Y655361D02*
D03*
D64*
Y645361D02*
D03*
Y635361D02*
D03*
Y625361D02*
D03*
Y615361D02*
D03*
Y605361D02*
D03*
Y595361D02*
D03*
Y585361D02*
D03*
M02*
