G04*
G04 #@! TF.GenerationSoftware,Altium Limited,Altium Designer,20.0.7 (75)*
G04*
G04 Layer_Color=65535*
%FSLAX25Y25*%
%MOIN*%
G70*
G01*
G75*
%ADD10C,0.00787*%
%ADD11C,0.00394*%
%ADD12C,0.00984*%
%ADD13C,0.00315*%
%ADD14C,0.01181*%
%ADD15C,0.00158*%
%ADD16C,0.01575*%
%ADD17C,0.00630*%
%ADD18C,0.00709*%
%ADD19C,0.03937*%
%ADD20C,0.00236*%
%ADD21R,0.11024X0.02165*%
%ADD22R,0.02165X0.11024*%
%ADD23R,0.06102X0.02165*%
D10*
X3566043Y680610D02*
G03*
X3566043Y680610I-19685J0D01*
G01*
X3632283Y714961D02*
G03*
X3632283Y714961I-19685J0D01*
G01*
X3607087Y679921D02*
G03*
X3607087Y679921I-19685J0D01*
G01*
X3257480Y578740D02*
G03*
X3257480Y578740I-19685J0D01*
G01*
X3257087Y619685D02*
G03*
X3257087Y619685I-19685J0D01*
G01*
X3668110Y745669D02*
G03*
X3668110Y745669I-19685J0D01*
G01*
X3217323Y611417D02*
G03*
X3217323Y611417I-19685J0D01*
G01*
X3645915Y580310D02*
G03*
X3627417Y559866I-5758J-13381D01*
G01*
X3122860Y789822D02*
G03*
X3142068Y809029I5880J13328D01*
G01*
X3144583Y559782D02*
G03*
X3124569Y579523I-12693J7147D01*
G01*
X3601772Y751772D02*
G03*
X3601772Y751772I-12402J0D01*
G01*
X3627362Y748228D02*
G03*
X3627362Y748228I-12402J0D01*
G01*
X3654811Y748425D02*
X3668811D01*
X3654811D02*
X3654811Y543701D01*
X3668811Y748425D02*
X3668811Y543701D01*
X3654811D02*
X3668811D01*
X3316985Y587510D02*
X3322385D01*
X3316985D02*
Y598710D01*
X3322385D01*
Y587510D02*
Y598710D01*
X3322451Y584898D02*
X3333651D01*
Y590298D01*
X3322451D02*
X3333651D01*
X3322451Y584898D02*
Y590298D01*
X3429911Y739820D02*
Y745220D01*
X3418711Y739820D02*
X3429911D01*
X3418711D02*
Y745220D01*
X3429911D01*
X3529400Y739454D02*
X3540600D01*
Y744853D01*
X3529400D02*
X3540600D01*
X3529400Y739454D02*
Y744853D01*
X3431158Y758061D02*
X3436558D01*
Y746861D02*
Y758061D01*
X3431158Y746861D02*
X3436558D01*
X3431158D02*
Y758061D01*
X3541788Y745680D02*
Y756880D01*
Y745680D02*
X3547188D01*
Y756880D01*
X3541788D02*
X3547188D01*
X3347628Y585338D02*
Y590738D01*
X3358828D01*
Y585338D02*
Y590738D01*
X3347628Y585338D02*
X3358828D01*
X3334361Y590298D02*
X3345560D01*
X3334361Y584898D02*
Y590298D01*
Y584898D02*
X3345560D01*
Y590298D01*
X3310226Y599905D02*
Y605305D01*
X3321426D01*
Y599905D02*
Y605305D01*
X3310226Y599905D02*
X3321426D01*
X3310234Y615608D02*
X3321435D01*
Y621008D01*
X3310234D02*
X3321435D01*
X3310234Y615608D02*
Y621008D01*
X3188639Y747254D02*
X3194039D01*
X3188639D02*
Y758454D01*
X3194039D01*
Y747254D02*
Y758454D01*
X3312542Y747550D02*
Y758750D01*
X3307143D02*
X3312542D01*
X3307143Y747550D02*
Y758750D01*
Y747550D02*
X3312542D01*
X3418810Y746119D02*
Y751519D01*
X3430009D01*
Y746119D02*
Y751519D01*
X3418810Y746119D02*
X3430009D01*
X3529440Y745725D02*
X3540639D01*
Y751125D01*
X3529440D02*
X3540639D01*
X3529440Y745725D02*
Y751125D01*
X3187490Y746119D02*
Y751519D01*
X3176290Y746119D02*
X3187490D01*
X3176290D02*
Y751519D01*
X3187490D01*
X3294400D02*
X3305600D01*
X3294400Y746119D02*
Y751519D01*
Y746119D02*
X3305600D01*
Y751519D01*
X3350921Y641276D02*
X3356321D01*
Y630076D02*
Y641276D01*
X3350921Y630076D02*
X3356321D01*
X3350921D02*
Y641276D01*
X3310234Y607708D02*
X3321435D01*
Y613108D01*
X3310234D02*
X3321435D01*
X3310234Y607708D02*
Y613108D01*
Y623008D02*
Y628408D01*
X3321435D01*
Y623008D02*
Y628408D01*
X3310234Y623008D02*
X3321435D01*
X3176290Y739820D02*
X3187490D01*
Y745220D01*
X3176290D02*
X3187490D01*
X3176290Y739820D02*
Y745220D01*
X3305600Y739820D02*
Y745220D01*
X3294400Y739820D02*
X3305600D01*
X3294400D02*
Y745220D01*
X3305600D01*
X3447549Y563048D02*
X3458750D01*
Y568448D01*
X3447549D02*
X3458750D01*
X3447549Y563048D02*
Y568448D01*
Y569347D02*
Y574747D01*
X3458750D01*
Y569347D02*
Y574747D01*
X3447549Y569347D02*
X3458750D01*
X3447451Y575646D02*
X3458651D01*
Y581046D01*
X3447451D02*
X3458651D01*
X3447451Y575646D02*
Y581046D01*
X3526673Y680610D02*
X3546358D01*
X3566043D01*
X3529036Y674311D02*
X3564862D01*
X3527854D02*
X3529036D01*
X3527067Y677461D02*
X3542028D01*
X3565649D01*
X3549902Y671161D02*
X3563287D01*
X3529429D02*
X3542815D01*
X3531398Y668012D02*
X3543602D01*
X3549114D02*
X3561319D01*
X3534153Y665256D02*
X3558563D01*
X3539665Y662106D02*
X3553051D01*
X3605906Y696457D02*
X3619291D01*
X3600394Y699606D02*
X3624803D01*
X3615354Y702362D02*
X3627559D01*
X3597638D02*
X3609843D01*
X3595669Y705512D02*
X3609055D01*
X3616142D02*
X3629528D01*
X3608268Y711811D02*
X3631890D01*
X3593307D02*
X3608268D01*
X3594094Y708661D02*
X3595275D01*
X3631102D01*
X3612598Y714961D02*
X3632283D01*
X3592913D02*
X3612598D01*
X3587402Y679921D02*
Y699606D01*
Y660236D02*
Y679921D01*
X3581102Y661417D02*
Y697244D01*
Y698425D01*
X3584252Y684252D02*
Y699213D01*
Y660630D02*
Y684252D01*
X3577953Y662992D02*
Y676378D01*
Y683465D02*
Y696850D01*
X3574803Y682677D02*
Y694882D01*
Y664961D02*
Y677165D01*
X3572047Y667717D02*
Y692126D01*
X3568898Y673228D02*
Y686614D01*
X3231102Y560236D02*
X3244488D01*
X3225591Y563386D02*
X3250000D01*
X3240551Y566142D02*
X3252756D01*
X3222835D02*
X3235040D01*
X3220866Y569291D02*
X3234252D01*
X3241339D02*
X3254725D01*
X3233464Y575591D02*
X3257087D01*
X3218504D02*
X3233464D01*
X3219291Y572441D02*
X3220472D01*
X3256299D01*
X3237795Y578740D02*
X3257480D01*
X3218110D02*
X3237795D01*
X3237402Y600000D02*
Y619685D01*
Y639370D01*
X3243701Y602362D02*
Y638189D01*
Y601181D02*
Y602362D01*
X3240551Y600394D02*
Y615354D01*
Y638976D01*
X3246851Y623228D02*
Y636614D01*
Y602756D02*
Y616142D01*
X3250000Y604724D02*
Y616929D01*
Y622441D02*
Y634646D01*
X3252756Y607480D02*
Y631890D01*
X3255906Y612992D02*
Y626378D01*
X3629921Y738976D02*
Y752362D01*
X3633071Y733465D02*
Y757874D01*
X3635827Y730709D02*
Y742913D01*
Y748425D02*
Y760630D01*
X3638976Y749213D02*
Y762598D01*
Y728740D02*
Y742126D01*
X3645275Y726378D02*
Y750000D01*
Y764961D01*
X3642126Y762992D02*
Y764173D01*
Y727165D02*
Y762992D01*
X3648425Y725984D02*
Y745669D01*
Y765354D01*
X3197638Y611417D02*
Y631102D01*
Y591732D02*
Y611417D01*
X3191339Y592913D02*
Y628740D01*
Y629921D01*
X3194488Y615748D02*
Y630709D01*
Y592126D02*
Y615748D01*
X3188189Y594488D02*
Y607874D01*
Y614961D02*
Y628346D01*
X3185039Y614173D02*
Y626378D01*
Y596457D02*
Y608661D01*
X3182284Y599213D02*
Y623622D01*
X3179134Y604724D02*
Y618110D01*
X3416831Y629823D02*
X3418012D01*
X3410925D02*
X3412106D01*
X3410925Y610138D02*
X3412106D01*
X3416831D02*
X3418012D01*
Y611319D01*
Y629823D01*
X3410925Y610138D02*
Y629823D01*
X3411024Y588484D02*
X3412205D01*
X3416929D02*
X3418110D01*
X3416929Y608169D02*
X3418110D01*
X3411024D02*
X3412205D01*
X3411024Y606988D02*
Y608169D01*
Y588484D02*
Y606988D01*
X3418110Y588484D02*
Y608169D01*
X3478658Y720978D02*
X3498343D01*
X3488500Y694193D02*
X3498343D01*
Y737461D01*
X3478658D02*
X3498343D01*
X3478658Y694193D02*
Y737461D01*
Y694193D02*
X3489600D01*
X3125009D02*
X3135951D01*
X3125009D02*
Y737461D01*
X3144694D01*
Y694193D02*
Y737461D01*
X3134851Y694193D02*
X3144694D01*
X3125009Y720978D02*
X3144694D01*
X3367717D02*
X3387402D01*
X3377559Y694193D02*
X3387402D01*
Y737461D01*
X3367717D02*
X3387402D01*
X3367717Y694193D02*
Y737461D01*
Y694193D02*
X3378659D01*
X3244488D02*
X3255431D01*
X3244488D02*
Y737461D01*
X3264173D01*
Y694193D02*
Y737461D01*
X3254331Y694193D02*
X3264173D01*
X3244488Y720978D02*
X3264173D01*
X3344683Y623822D02*
X3356284D01*
Y629222D01*
X3344683D02*
X3356284D01*
X3344683Y623822D02*
Y629222D01*
X3360783Y611722D02*
Y623322D01*
Y611722D02*
X3366183D01*
Y623322D01*
X3360783D02*
X3366183D01*
Y594769D02*
Y606369D01*
X3360783D02*
X3366183D01*
X3360783Y594769D02*
Y606369D01*
Y594769D02*
X3366183D01*
X3642089Y706976D02*
X3653689D01*
Y712376D01*
X3642089D02*
X3653689D01*
X3642089Y706976D02*
Y712376D01*
Y700676D02*
X3653689D01*
Y706076D01*
X3642089D02*
X3653689D01*
X3642089Y700676D02*
Y706076D01*
X3316086Y587113D02*
Y598713D01*
X3310686D02*
X3316086D01*
X3310686Y587113D02*
Y598713D01*
Y587113D02*
X3316086D01*
X3326731Y624322D02*
X3338331D01*
Y629722D01*
X3326731D02*
X3338331D01*
X3326731Y624322D02*
Y629722D01*
X3642822Y647300D02*
X3654422D01*
Y652700D01*
X3642822D02*
X3654422D01*
X3642822Y647300D02*
Y652700D01*
X3642428Y595331D02*
X3654028D01*
Y600732D01*
X3642428D02*
X3654028D01*
X3642428Y595331D02*
Y600732D01*
X3165102Y591893D02*
X3176702D01*
Y597293D01*
X3165102D02*
X3176702D01*
X3165102Y591893D02*
Y597293D01*
X3165125Y598245D02*
X3176725D01*
Y603645D01*
X3165125D02*
X3176725D01*
X3165125Y598245D02*
Y603645D01*
X3642089Y719574D02*
X3653689D01*
Y724974D01*
X3642089D02*
X3653689D01*
X3642089Y719574D02*
Y724974D01*
Y713275D02*
X3653689D01*
Y718675D01*
X3642089D02*
X3653689D01*
X3642089Y713275D02*
Y718675D01*
X3165125Y604544D02*
X3176725D01*
Y609944D01*
X3165125D02*
X3176725D01*
X3165125Y604544D02*
Y609944D01*
X3409941Y581299D02*
Y606102D01*
X3396161Y581299D02*
Y606102D01*
X3409055D02*
X3409941D01*
X3409055Y581299D02*
X3409941D01*
X3396161Y606102D02*
X3397047D01*
X3396161Y581299D02*
X3397047D01*
X3396161Y612008D02*
Y636811D01*
X3409941Y612008D02*
Y636811D01*
X3396161Y612008D02*
X3397047D01*
X3396161Y636811D02*
X3397047D01*
X3409055Y612008D02*
X3409941D01*
X3409055Y636811D02*
X3409941D01*
X3394980Y581201D02*
Y606004D01*
X3381201Y581201D02*
Y606004D01*
X3394094D02*
X3394980D01*
X3394094Y581201D02*
X3394980D01*
X3381201Y606004D02*
X3382087D01*
X3381201Y581201D02*
X3382087D01*
X3381102Y611909D02*
Y636713D01*
X3394882Y611909D02*
Y636713D01*
X3381102Y611909D02*
X3381988D01*
X3381102Y636713D02*
X3381988D01*
X3393996Y611909D02*
X3394882D01*
X3393996Y636713D02*
X3394882D01*
X3653937Y674016D02*
Y693701D01*
X3640551Y674016D02*
Y693701D01*
X3653937D01*
X3640551Y674016D02*
X3653937D01*
X3640551Y673228D02*
X3653937D01*
X3640551Y653543D02*
X3653937D01*
Y673228D01*
X3640551Y653543D02*
Y673228D01*
X3639764Y674016D02*
Y693701D01*
X3626378Y674016D02*
Y693701D01*
X3639764D01*
X3626378Y674016D02*
X3639764D01*
X3611417Y621260D02*
X3624803D01*
X3611417Y601575D02*
X3624803D01*
Y621260D01*
X3611417Y601575D02*
Y621260D01*
X3653937Y622441D02*
Y642126D01*
X3640551Y622441D02*
Y642126D01*
X3653937D01*
X3640551Y622441D02*
X3653937D01*
X3625984D02*
X3639370D01*
X3625984Y642126D02*
X3639370D01*
X3625984Y622441D02*
Y642126D01*
X3639370Y622441D02*
Y642126D01*
X3626378Y653543D02*
Y673228D01*
X3639764Y653543D02*
Y673228D01*
X3626378Y653543D02*
X3639764D01*
X3626378Y673228D02*
X3639764D01*
X3612205Y674016D02*
X3625591D01*
X3612205Y693701D02*
X3625591D01*
X3612205Y674016D02*
Y693701D01*
X3625591Y674016D02*
Y693701D01*
X3612205Y653543D02*
Y673228D01*
X3625591Y653543D02*
Y673228D01*
X3612205Y653543D02*
X3625591D01*
X3612205Y673228D02*
X3625591D01*
X3611417Y622441D02*
X3624803D01*
X3611417Y642126D02*
X3624803D01*
X3611417Y622441D02*
Y642126D01*
X3624803Y622441D02*
Y642126D01*
X3625984Y601575D02*
Y621260D01*
X3639370Y601575D02*
Y621260D01*
X3625984Y601575D02*
X3639370D01*
X3625984Y621260D02*
X3639370D01*
X3640551D02*
X3653937D01*
X3640551Y601575D02*
X3653937D01*
Y621260D01*
X3640551Y601575D02*
Y621260D01*
X3418740Y738752D02*
X3438740D01*
Y729752D02*
Y738752D01*
X3418740Y729752D02*
X3438740D01*
X3176221Y738752D02*
X3196221D01*
X3176221Y729752D02*
Y738752D01*
Y729752D02*
X3196221D01*
X3294331D02*
X3314331D01*
X3294331D02*
Y738752D01*
X3314331D01*
X3529500Y729654D02*
X3549500D01*
Y738654D01*
X3529500D02*
X3549500D01*
X3312992Y743701D02*
X3322441D01*
X3312992Y761811D02*
X3322441D01*
Y743701D02*
Y761811D01*
X3312992Y743701D02*
Y761811D01*
X3547244Y740945D02*
Y759055D01*
X3556693Y740945D02*
Y759055D01*
X3547244D02*
X3556693D01*
X3547244Y740945D02*
X3556693D01*
X3194882Y743307D02*
X3204331D01*
X3194882Y761417D02*
X3204331D01*
Y743307D02*
Y761417D01*
X3194882Y743307D02*
Y761417D01*
X3437008Y741732D02*
Y759842D01*
X3446457Y741732D02*
Y759842D01*
X3437008D02*
X3446457D01*
X3437008Y741732D02*
X3446457D01*
X3333602Y623235D02*
X3348956D01*
X3333602Y591935D02*
Y623235D01*
X3348956Y593904D02*
Y623235D01*
X3346988Y591935D02*
X3348956Y593904D01*
X3333602Y591935D02*
X3346988D01*
X3187441Y752461D02*
Y772835D01*
X3146004D02*
X3187441D01*
X3146004Y752461D02*
Y772835D01*
Y752461D02*
X3187441D01*
X3264508D02*
X3305945D01*
X3264508D02*
Y772835D01*
X3305945D01*
Y752461D02*
Y772835D01*
X3429961Y752461D02*
Y772835D01*
X3388523D02*
X3429961D01*
X3388523Y752461D02*
Y772835D01*
Y752461D02*
X3429961D01*
X3499132Y751909D02*
X3540569D01*
X3499132D02*
Y772284D01*
X3540569D01*
Y751909D02*
Y772284D01*
X3306557Y661387D02*
X3314557D01*
Y648387D02*
Y661387D01*
X3306557Y648387D02*
X3314557D01*
X3306557D02*
Y661387D01*
X3315863Y649493D02*
Y660493D01*
Y660993D01*
X3320863D01*
Y649493D02*
Y660993D01*
X3378495Y588857D02*
Y599487D01*
X3367472Y588857D02*
Y599487D01*
X3378495D01*
X3568898Y706595D02*
X3579921D01*
Y717224D01*
X3568898Y706595D02*
Y717224D01*
X3553937Y706595D02*
Y717224D01*
X3564960Y706595D02*
Y717224D01*
X3553937Y706595D02*
X3564960D01*
X3367472Y618707D02*
X3378495D01*
Y629337D01*
X3367472Y618707D02*
Y629337D01*
X3567126Y738189D02*
X3577756D01*
X3567126Y727165D02*
X3577756D01*
X3567126D02*
Y738189D01*
X3209614Y631968D02*
Y651968D01*
X3218614D01*
Y631968D02*
Y651968D01*
X3216536Y559055D02*
Y590551D01*
X3174016Y559055D02*
Y560630D01*
Y561417D01*
Y590551D01*
X3216536D01*
X3174016Y559055D02*
X3216536D01*
X3295472Y579361D02*
Y661361D01*
Y579361D02*
X3305471D01*
Y661361D01*
X3295472D02*
X3305471D01*
D11*
X3413327Y610138D02*
G03*
X3413327Y610138I-39J0D01*
G01*
X3415788Y608169D02*
G03*
X3415788Y608169I-39J0D01*
G01*
D12*
X3410138Y608661D02*
G03*
X3410138Y608661I-492J0D01*
G01*
X3396949Y609449D02*
G03*
X3396949Y609449I-492J0D01*
G01*
X3395177Y608563D02*
G03*
X3395177Y608563I-492J0D01*
G01*
X3381890Y609350D02*
G03*
X3381890Y609350I-492J0D01*
G01*
D13*
X3545625Y700865D02*
X3547199D01*
X3546109Y693988D02*
Y695563D01*
X3545329Y694763D02*
X3546904D01*
X3611569Y729113D02*
X3613144D01*
X3612349Y728339D02*
Y729913D01*
X3611864Y735216D02*
X3613440D01*
X3607657Y679080D02*
Y680655D01*
X3600779Y680171D02*
X3602354D01*
X3601554Y679376D02*
Y680950D01*
X3236766Y592893D02*
X3238341D01*
X3237546Y592118D02*
Y593693D01*
X3237061Y598995D02*
X3238636D01*
X3217146Y618951D02*
Y620526D01*
X3222449Y619435D02*
X3224023D01*
X3223249Y618656D02*
Y620231D01*
X3662578Y745124D02*
Y746698D01*
X3661803Y745919D02*
X3663378D01*
X3668680Y744828D02*
Y746403D01*
X3217893Y610576D02*
Y612151D01*
X3211016Y611667D02*
X3212591D01*
X3211790Y610872D02*
Y612446D01*
X3290806Y556719D02*
X3290609Y556523D01*
Y556129D01*
X3290806Y555932D01*
X3291593D01*
X3291790Y556129D01*
Y556523D01*
X3291593Y556719D01*
X3291200D01*
Y556326D01*
X3291790Y557113D02*
X3290609D01*
X3291790Y557900D01*
X3290609D01*
Y558294D02*
X3291790D01*
Y558884D01*
X3291593Y559081D01*
X3290806D01*
X3290609Y558884D01*
Y558294D01*
X3291396Y564594D02*
X3290609D01*
X3290216Y564987D01*
X3290609Y565381D01*
X3291396D01*
X3290806D01*
Y564594D01*
X3291593Y565774D02*
Y566562D01*
X3290216Y566955D02*
X3291396D01*
X3290806D01*
Y567742D01*
X3290216D01*
X3291396D01*
X3290216Y568136D02*
Y568530D01*
Y568333D01*
X3291396D01*
Y568136D01*
Y568530D01*
X3290413Y569907D02*
X3290216Y569710D01*
Y569317D01*
X3290413Y569120D01*
X3291200D01*
X3291396Y569317D01*
Y569710D01*
X3291200Y569907D01*
X3290806D01*
Y569513D01*
X3290216Y570300D02*
X3291396D01*
X3290806D01*
Y571088D01*
X3290216D01*
X3291396D01*
X3291396Y575224D02*
X3290609D01*
X3290216Y575617D01*
X3290609Y576011D01*
X3291396D01*
X3290806D01*
Y575224D01*
X3291593Y576404D02*
Y577191D01*
X3290216Y577585D02*
X3291396D01*
Y578372D01*
X3290216Y579356D02*
Y578963D01*
X3290413Y578766D01*
X3291200D01*
X3291396Y578963D01*
Y579356D01*
X3291200Y579553D01*
X3290413D01*
X3290216Y579356D01*
Y579947D02*
X3291396D01*
X3291003Y580340D01*
X3291396Y580734D01*
X3290216D01*
X3290216Y584672D02*
X3291396D01*
Y585263D01*
X3291200Y585460D01*
X3291003D01*
X3290806Y585263D01*
Y584672D01*
Y585263D01*
X3290609Y585460D01*
X3290413D01*
X3290216Y585263D01*
Y584672D01*
X3291593Y585853D02*
Y586640D01*
X3290216Y587034D02*
X3291396D01*
X3290806D01*
Y587821D01*
X3290216D01*
X3291396D01*
X3290216Y588215D02*
Y588608D01*
Y588411D01*
X3291396D01*
Y588215D01*
Y588608D01*
X3290413Y589986D02*
X3290216Y589789D01*
Y589395D01*
X3290413Y589199D01*
X3291200D01*
X3291396Y589395D01*
Y589789D01*
X3291200Y589986D01*
X3290806D01*
Y589592D01*
X3290216Y590379D02*
X3291396D01*
X3290806D01*
Y591166D01*
X3290216D01*
X3291396D01*
X3290216Y594515D02*
X3291396D01*
Y595105D01*
X3291200Y595302D01*
X3291003D01*
X3290806Y595105D01*
Y594515D01*
Y595105D01*
X3290609Y595302D01*
X3290413D01*
X3290216Y595105D01*
Y594515D01*
X3291593Y595696D02*
Y596483D01*
X3290216Y596876D02*
X3291396D01*
Y597664D01*
X3290216Y598647D02*
Y598254D01*
X3290413Y598057D01*
X3291200D01*
X3291396Y598254D01*
Y598647D01*
X3291200Y598844D01*
X3290413D01*
X3290216Y598647D01*
Y599238D02*
X3291396D01*
X3291003Y599631D01*
X3291396Y600025D01*
X3290216D01*
X3291790Y605145D02*
X3290609D01*
Y605735D01*
X3290806Y605932D01*
X3291200D01*
X3291396Y605735D01*
Y605145D01*
Y605539D02*
X3291790Y605932D01*
X3290609Y607113D02*
Y606326D01*
X3291790D01*
Y607113D01*
X3291200Y606326D02*
Y606719D01*
X3290806Y608293D02*
X3290609Y608097D01*
Y607703D01*
X3290806Y607506D01*
X3291003D01*
X3291200Y607703D01*
Y608097D01*
X3291396Y608293D01*
X3291593D01*
X3291790Y608097D01*
Y607703D01*
X3291593Y607506D01*
X3290609Y609474D02*
Y608687D01*
X3291790D01*
Y609474D01*
X3291200Y608687D02*
Y609081D01*
X3290609Y609868D02*
Y610655D01*
Y610261D01*
X3291790D01*
X3290609Y615774D02*
Y614987D01*
X3291200D01*
Y615381D01*
Y614987D01*
X3291790D01*
Y616168D02*
X3291003D01*
X3290609Y616562D01*
X3291003Y616955D01*
X3291790D01*
X3291200D01*
Y616168D01*
X3290609Y617349D02*
X3291593D01*
X3291790Y617546D01*
Y617939D01*
X3291593Y618136D01*
X3290609D01*
Y618530D02*
X3291790D01*
Y619317D01*
X3290609Y619710D02*
Y620497D01*
Y620104D01*
X3291790D01*
X3290827Y626693D02*
Y627480D01*
X3290434Y627086D02*
X3291220D01*
X3290237Y628661D02*
Y627874D01*
X3290827D01*
X3290630Y628267D01*
Y628464D01*
X3290827Y628661D01*
X3291220D01*
X3291417Y628464D01*
Y628070D01*
X3291220Y627874D01*
X3290237Y629054D02*
X3291024D01*
X3291417Y629448D01*
X3291024Y629842D01*
X3290237D01*
D14*
X3418740Y731252D02*
Y737252D01*
X3196221Y731252D02*
Y737252D01*
X3314331Y731252D02*
Y737252D01*
X3529500Y731153D02*
Y737153D01*
X3546457Y574409D02*
Y578345D01*
X3548425Y580313D01*
X3550393Y578345D01*
Y574409D01*
Y577361D01*
X3546457D01*
X3552360Y574409D02*
X3554328D01*
X3553344D01*
Y580313D01*
X3552360D01*
X3560232Y574409D02*
X3558264D01*
X3557280Y575393D01*
Y577361D01*
X3558264Y578345D01*
X3560232D01*
X3561216Y577361D01*
Y576377D01*
X3557280D01*
X3567119Y578345D02*
X3564167D01*
X3563184Y577361D01*
Y575393D01*
X3564167Y574409D01*
X3567119D01*
X3569087Y580313D02*
X3573023D01*
X3571055D01*
Y574409D01*
X3578926Y580313D02*
X3574991D01*
Y574409D01*
X3578926D01*
X3574991Y577361D02*
X3576958D01*
X3580894Y580313D02*
Y574409D01*
X3583846D01*
X3584830Y575393D01*
Y579329D01*
X3583846Y580313D01*
X3580894D01*
D15*
X3588779Y760138D02*
X3589764D01*
X3589272Y759618D02*
Y760602D01*
X3588779Y764665D02*
X3589764D01*
X3614370Y761122D02*
X3615354D01*
X3614862Y756075D02*
Y757059D01*
X3614370Y756595D02*
X3615354D01*
D16*
X3317363Y648993D02*
X3319363D01*
D17*
X3170631Y573070D02*
X3170237Y572677D01*
Y571890D01*
X3170631Y571496D01*
X3172205D01*
X3172598Y571890D01*
Y572677D01*
X3172205Y573070D01*
X3171418D01*
Y572283D01*
X3172598Y573857D02*
X3170237D01*
X3172598Y575432D01*
X3170237D01*
Y576219D02*
X3172598D01*
Y577400D01*
X3172205Y577793D01*
X3170631D01*
X3170237Y577400D01*
Y576219D01*
D18*
X3212520Y593819D02*
X3214356D01*
X3213438Y594737D02*
Y592900D01*
X3217112Y595196D02*
X3215275D01*
Y593819D01*
X3216193Y594278D01*
X3216652D01*
X3217112Y593819D01*
Y592900D01*
X3216652Y592441D01*
X3215734D01*
X3215275Y592900D01*
X3218030Y595196D02*
Y593359D01*
X3218948Y592441D01*
X3219867Y593359D01*
Y595196D01*
D19*
X3545542Y603800D02*
X3542263Y607080D01*
X3535703D01*
X3532423Y603800D01*
Y600521D01*
X3535703Y597241D01*
X3542263D01*
X3545542Y593961D01*
Y590681D01*
X3542263Y587402D01*
X3535703D01*
X3532423Y590681D01*
X3565221Y607080D02*
X3552102D01*
Y587402D01*
X3565221D01*
X3552102Y597241D02*
X3558661D01*
X3571780Y587402D02*
Y607080D01*
X3578340Y600521D01*
X3584900Y607080D01*
Y587402D01*
D20*
X3396770Y611674D02*
X3396508Y611937D01*
X3395983D01*
X3395721Y611674D01*
Y610625D01*
X3395983Y610362D01*
X3396508D01*
X3396770Y610625D01*
X3398082Y610362D02*
Y611937D01*
X3397295Y611149D01*
X3398344D01*
X3399919Y611937D02*
X3398869D01*
Y611149D01*
X3399394Y611412D01*
X3399656D01*
X3399919Y611149D01*
Y610625D01*
X3399656Y610362D01*
X3399131D01*
X3398869Y610625D01*
X3396763Y642367D02*
X3396500Y642629D01*
X3395976D01*
X3395713Y642367D01*
Y641318D01*
X3395976Y641055D01*
X3396500D01*
X3396763Y641318D01*
X3398075Y641055D02*
Y642629D01*
X3397288Y641842D01*
X3398337D01*
X3399649Y641055D02*
Y642629D01*
X3398862Y641842D01*
X3399911D01*
X3382141Y613069D02*
X3381879Y613332D01*
X3381355D01*
X3381092Y613069D01*
Y612020D01*
X3381355Y611758D01*
X3381879D01*
X3382141Y612020D01*
X3383454Y611758D02*
Y613332D01*
X3382666Y612545D01*
X3383716D01*
X3384241Y613069D02*
X3384503Y613332D01*
X3385028D01*
X3385290Y613069D01*
Y612807D01*
X3385028Y612545D01*
X3384766D01*
X3385028D01*
X3385290Y612282D01*
Y612020D01*
X3385028Y611758D01*
X3384503D01*
X3384241Y612020D01*
X3381649Y642201D02*
X3381387Y642463D01*
X3380862D01*
X3380600Y642201D01*
Y641151D01*
X3380862Y640889D01*
X3381387D01*
X3381649Y641151D01*
X3382961Y640889D02*
Y642463D01*
X3382174Y641676D01*
X3383224D01*
X3384798Y640889D02*
X3383749D01*
X3384798Y641938D01*
Y642201D01*
X3384536Y642463D01*
X3384011D01*
X3383749Y642201D01*
X3461417Y579396D02*
Y580445D01*
X3460630D01*
Y579921D01*
Y580445D01*
X3459843D01*
X3461417Y578871D02*
X3459843D01*
Y578084D01*
X3460105Y577822D01*
X3460368D01*
X3460630Y578084D01*
Y578871D01*
Y578084D01*
X3460892Y577822D01*
X3461155D01*
X3461417Y578084D01*
Y578871D01*
Y576247D02*
Y577297D01*
X3460630D01*
X3460892Y576772D01*
Y576510D01*
X3460630Y576247D01*
X3460105D01*
X3459843Y576510D01*
Y577035D01*
X3460105Y577297D01*
X3461417Y573097D02*
Y574146D01*
X3460630D01*
Y573622D01*
Y574146D01*
X3459843D01*
X3461417Y572572D02*
X3459843D01*
Y571785D01*
X3460105Y571523D01*
X3460368D01*
X3460630Y571785D01*
Y572572D01*
Y571785D01*
X3460892Y571523D01*
X3461155D01*
X3461417Y571785D01*
Y572572D01*
X3459843Y570211D02*
X3461417D01*
X3460630Y570998D01*
Y569948D01*
X3638583Y599737D02*
X3638321Y600000D01*
X3637796D01*
X3637534Y599737D01*
Y598688D01*
X3637796Y598425D01*
X3638321D01*
X3638583Y598688D01*
X3639895Y598425D02*
Y600000D01*
X3639108Y599213D01*
X3640157D01*
X3640682Y598425D02*
X3641207D01*
X3640944D01*
Y600000D01*
X3640682Y599737D01*
X3627297Y600131D02*
X3627035Y600393D01*
X3626510D01*
X3626247Y600131D01*
Y599082D01*
X3626510Y598819D01*
X3627035D01*
X3627297Y599082D01*
X3628609Y598819D02*
Y600393D01*
X3627822Y599606D01*
X3628871D01*
X3629396Y600131D02*
X3629659Y600393D01*
X3630183D01*
X3630445Y600131D01*
Y599082D01*
X3630183Y598819D01*
X3629659D01*
X3629396Y599082D01*
Y600131D01*
X3612730Y644619D02*
X3612468Y644882D01*
X3611943D01*
X3611681Y644619D01*
Y643570D01*
X3611943Y643307D01*
X3612468D01*
X3612730Y643570D01*
X3613255Y644619D02*
X3613517Y644882D01*
X3614042D01*
X3614304Y644619D01*
Y644357D01*
X3614042Y644095D01*
X3613779D01*
X3614042D01*
X3614304Y643832D01*
Y643570D01*
X3614042Y643307D01*
X3613517D01*
X3613255Y643570D01*
X3614829D02*
X3615091Y643307D01*
X3615616D01*
X3615879Y643570D01*
Y644619D01*
X3615616Y644882D01*
X3615091D01*
X3614829Y644619D01*
Y644357D01*
X3615091Y644095D01*
X3615879D01*
X3613517Y651706D02*
X3613255Y651968D01*
X3612730D01*
X3612468Y651706D01*
Y650656D01*
X3612730Y650394D01*
X3613255D01*
X3613517Y650656D01*
X3614042Y651706D02*
X3614305Y651968D01*
X3614829D01*
X3615092Y651706D01*
Y651443D01*
X3614829Y651181D01*
X3614567D01*
X3614829D01*
X3615092Y650919D01*
Y650656D01*
X3614829Y650394D01*
X3614305D01*
X3614042Y650656D01*
X3615617Y651706D02*
X3615879Y651968D01*
X3616404D01*
X3616666Y651706D01*
Y651443D01*
X3616404Y651181D01*
X3616666Y650919D01*
Y650656D01*
X3616404Y650394D01*
X3615879D01*
X3615617Y650656D01*
Y650919D01*
X3615879Y651181D01*
X3615617Y651443D01*
Y651706D01*
X3615879Y651181D02*
X3616404D01*
X3622572Y696194D02*
X3622310Y696456D01*
X3621785D01*
X3621523Y696194D01*
Y695145D01*
X3621785Y694882D01*
X3622310D01*
X3622572Y695145D01*
X3623097Y696194D02*
X3623360Y696456D01*
X3623885D01*
X3624147Y696194D01*
Y695932D01*
X3623885Y695669D01*
X3623622D01*
X3623885D01*
X3624147Y695407D01*
Y695145D01*
X3623885Y694882D01*
X3623360D01*
X3623097Y695145D01*
X3624672Y696456D02*
X3625721D01*
Y696194D01*
X3624672Y695145D01*
Y694882D01*
X3627691Y651706D02*
X3627428Y651968D01*
X3626904D01*
X3626641Y651706D01*
Y650656D01*
X3626904Y650394D01*
X3627428D01*
X3627691Y650656D01*
X3628215Y651706D02*
X3628478Y651968D01*
X3629003D01*
X3629265Y651706D01*
Y651443D01*
X3629003Y651181D01*
X3628740D01*
X3629003D01*
X3629265Y650919D01*
Y650656D01*
X3629003Y650394D01*
X3628478D01*
X3628215Y650656D01*
X3630839Y651968D02*
X3630315Y651706D01*
X3629790Y651181D01*
Y650656D01*
X3630052Y650394D01*
X3630577D01*
X3630839Y650656D01*
Y650919D01*
X3630577Y651181D01*
X3629790D01*
X3626903Y644619D02*
X3626641Y644882D01*
X3626116D01*
X3625854Y644619D01*
Y643570D01*
X3626116Y643307D01*
X3626641D01*
X3626903Y643570D01*
X3627428Y644619D02*
X3627691Y644882D01*
X3628215D01*
X3628477Y644619D01*
Y644357D01*
X3628215Y644095D01*
X3627953D01*
X3628215D01*
X3628477Y643832D01*
Y643570D01*
X3628215Y643307D01*
X3627691D01*
X3627428Y643570D01*
X3630052Y644882D02*
X3629002D01*
Y644095D01*
X3629527Y644357D01*
X3629789D01*
X3630052Y644095D01*
Y643570D01*
X3629789Y643307D01*
X3629265D01*
X3629002Y643570D01*
X3650132Y644619D02*
X3649869Y644882D01*
X3649344D01*
X3649082Y644619D01*
Y643570D01*
X3649344Y643307D01*
X3649869D01*
X3650132Y643570D01*
X3650656Y644619D02*
X3650919Y644882D01*
X3651443D01*
X3651706Y644619D01*
Y644357D01*
X3651443Y644095D01*
X3651181D01*
X3651443D01*
X3651706Y643832D01*
Y643570D01*
X3651443Y643307D01*
X3650919D01*
X3650656Y643570D01*
X3653018Y643307D02*
Y644882D01*
X3652230Y644095D01*
X3653280D01*
X3612336Y600131D02*
X3612074Y600393D01*
X3611549D01*
X3611287Y600131D01*
Y599082D01*
X3611549Y598819D01*
X3612074D01*
X3612336Y599082D01*
X3612861Y600131D02*
X3613123Y600393D01*
X3613648D01*
X3613911Y600131D01*
Y599869D01*
X3613648Y599606D01*
X3613386D01*
X3613648D01*
X3613911Y599344D01*
Y599082D01*
X3613648Y598819D01*
X3613123D01*
X3612861Y599082D01*
X3614436Y600131D02*
X3614698Y600393D01*
X3615223D01*
X3615485Y600131D01*
Y599869D01*
X3615223Y599606D01*
X3614960D01*
X3615223D01*
X3615485Y599344D01*
Y599082D01*
X3615223Y598819D01*
X3614698D01*
X3614436Y599082D01*
X3635958Y696588D02*
X3635696Y696850D01*
X3635171D01*
X3634909Y696588D01*
Y695538D01*
X3635171Y695276D01*
X3635696D01*
X3635958Y695538D01*
X3636483Y696588D02*
X3636745Y696850D01*
X3637270D01*
X3637532Y696588D01*
Y696325D01*
X3637270Y696063D01*
X3637008D01*
X3637270D01*
X3637532Y695801D01*
Y695538D01*
X3637270Y695276D01*
X3636745D01*
X3636483Y695538D01*
X3639107Y695276D02*
X3638057D01*
X3639107Y696325D01*
Y696588D01*
X3638845Y696850D01*
X3638320D01*
X3638057Y696588D01*
X3646851Y663911D02*
X3646588Y664173D01*
X3646064D01*
X3645801Y663911D01*
Y662861D01*
X3646064Y662599D01*
X3646588D01*
X3646851Y662861D01*
X3647375Y663911D02*
X3647638Y664173D01*
X3648162D01*
X3648425Y663911D01*
Y663648D01*
X3648162Y663386D01*
X3647900D01*
X3648162D01*
X3648425Y663123D01*
Y662861D01*
X3648162Y662599D01*
X3647638D01*
X3647375Y662861D01*
X3648950Y662599D02*
X3649474D01*
X3649212D01*
Y664173D01*
X3648950Y663911D01*
X3650525Y696194D02*
X3650263Y696456D01*
X3649738D01*
X3649476Y696194D01*
Y695145D01*
X3649738Y694882D01*
X3650263D01*
X3650525Y695145D01*
X3651050Y696194D02*
X3651312Y696456D01*
X3651837D01*
X3652100Y696194D01*
Y695932D01*
X3651837Y695669D01*
X3651575D01*
X3651837D01*
X3652100Y695407D01*
Y695145D01*
X3651837Y694882D01*
X3651312D01*
X3651050Y695145D01*
X3652624Y696194D02*
X3652887Y696456D01*
X3653411D01*
X3653674Y696194D01*
Y695145D01*
X3653411Y694882D01*
X3652887D01*
X3652624Y695145D01*
Y696194D01*
X3461417Y566797D02*
Y567847D01*
X3460630D01*
Y567322D01*
Y567847D01*
X3459843D01*
X3461417Y566273D02*
X3459843D01*
Y565486D01*
X3460105Y565223D01*
X3460368D01*
X3460630Y565486D01*
Y566273D01*
Y565486D01*
X3460892Y565223D01*
X3461155D01*
X3461417Y565486D01*
Y566273D01*
X3461155Y564699D02*
X3461417Y564436D01*
Y563911D01*
X3461155Y563649D01*
X3460892D01*
X3460630Y563911D01*
Y564174D01*
Y563911D01*
X3460368Y563649D01*
X3460105D01*
X3459843Y563911D01*
Y564436D01*
X3460105Y564699D01*
X3614009Y763911D02*
X3613747Y764173D01*
X3613223D01*
X3612960Y763911D01*
Y762861D01*
X3613223Y762599D01*
X3613747D01*
X3614009Y762861D01*
X3615584Y762599D02*
X3614534D01*
X3615584Y763648D01*
Y763911D01*
X3615321Y764173D01*
X3614797D01*
X3614534Y763911D01*
X3616109Y762861D02*
X3616371Y762599D01*
X3616896D01*
X3617158Y762861D01*
Y763911D01*
X3616896Y764173D01*
X3616371D01*
X3616109Y763911D01*
Y763648D01*
X3616371Y763386D01*
X3617158D01*
X3588222Y767454D02*
X3587960Y767716D01*
X3587435D01*
X3587173Y767454D01*
Y766404D01*
X3587435Y766142D01*
X3587960D01*
X3588222Y766404D01*
X3589796Y766142D02*
X3588747D01*
X3589796Y767192D01*
Y767454D01*
X3589534Y767716D01*
X3589009D01*
X3588747Y767454D01*
X3590321Y767716D02*
X3591371D01*
Y767454D01*
X3590321Y766404D01*
Y766142D01*
X3293307Y740945D02*
X3291732D01*
Y741733D01*
X3291995Y741995D01*
X3292520D01*
X3292782Y741733D01*
Y740945D01*
Y741470D02*
X3293307Y741995D01*
Y742520D02*
Y743045D01*
Y742782D01*
X3291732D01*
X3291995Y742520D01*
X3291732Y744881D02*
X3291995Y744356D01*
X3292520Y743832D01*
X3293044D01*
X3293307Y744094D01*
Y744619D01*
X3293044Y744881D01*
X3292782D01*
X3292520Y744619D01*
Y743832D01*
X3175197Y740552D02*
X3173622D01*
Y741339D01*
X3173885Y741601D01*
X3174409D01*
X3174672Y741339D01*
Y740552D01*
Y741077D02*
X3175197Y741601D01*
Y742126D02*
Y742651D01*
Y742388D01*
X3173622D01*
X3173885Y742126D01*
X3173622Y744488D02*
Y743438D01*
X3174409D01*
X3174147Y743963D01*
Y744225D01*
X3174409Y744488D01*
X3174934D01*
X3175197Y744225D01*
Y743700D01*
X3174934Y743438D01*
X3322528Y627676D02*
X3324102D01*
Y626889D01*
X3323840Y626626D01*
X3323315D01*
X3323053Y626889D01*
Y627676D01*
Y627151D02*
X3322528Y626626D01*
Y626101D02*
Y625577D01*
Y625839D01*
X3324102D01*
X3323840Y626101D01*
Y624789D02*
X3324102Y624527D01*
Y624002D01*
X3323840Y623740D01*
X3323577D01*
X3323315Y624002D01*
Y624265D01*
Y624002D01*
X3323053Y623740D01*
X3322790D01*
X3322528Y624002D01*
Y624527D01*
X3322790Y624789D01*
X3322528Y612376D02*
X3324102D01*
Y611589D01*
X3323840Y611326D01*
X3323315D01*
X3323053Y611589D01*
Y612376D01*
Y611851D02*
X3322528Y611326D01*
Y610802D02*
Y610277D01*
Y610539D01*
X3324102D01*
X3323840Y610802D01*
X3322528Y608440D02*
Y609489D01*
X3323577Y608440D01*
X3323840D01*
X3324102Y608702D01*
Y609227D01*
X3323840Y609489D01*
X3352357Y644231D02*
X3351307D01*
Y643444D01*
X3351832D01*
X3351307D01*
Y642657D01*
X3352882Y644231D02*
Y642657D01*
X3353669D01*
X3353931Y642919D01*
Y643182D01*
X3353669Y643444D01*
X3352882D01*
X3353669D01*
X3353931Y643707D01*
Y643969D01*
X3353669Y644231D01*
X3352882D01*
X3355505Y642657D02*
X3354456D01*
X3355505Y643707D01*
Y643969D01*
X3355243Y644231D01*
X3354718D01*
X3354456Y643969D01*
X3179775Y627744D02*
X3179512Y628007D01*
X3178988D01*
X3178725Y627744D01*
Y626695D01*
X3178988Y626433D01*
X3179512D01*
X3179775Y626695D01*
X3181349Y626433D02*
X3180300D01*
X3181349Y627482D01*
Y627744D01*
X3181087Y628007D01*
X3180562D01*
X3180300Y627744D01*
X3181874D02*
X3182136Y628007D01*
X3182661D01*
X3182924Y627744D01*
Y627482D01*
X3182661Y627220D01*
X3182924Y626957D01*
Y626695D01*
X3182661Y626433D01*
X3182136D01*
X3181874Y626695D01*
Y626957D01*
X3182136Y627220D01*
X3181874Y627482D01*
Y627744D01*
X3182136Y627220D02*
X3182661D01*
X3647376Y768635D02*
X3647113Y768897D01*
X3646589D01*
X3646326Y768635D01*
Y767586D01*
X3646589Y767323D01*
X3647113D01*
X3647376Y767586D01*
X3648950Y767323D02*
X3647900D01*
X3648950Y768373D01*
Y768635D01*
X3648688Y768897D01*
X3648163D01*
X3647900Y768635D01*
X3650524Y768897D02*
X3650000Y768635D01*
X3649475Y768110D01*
Y767586D01*
X3649737Y767323D01*
X3650262D01*
X3650524Y767586D01*
Y767848D01*
X3650262Y768110D01*
X3649475D01*
X3162467Y606037D02*
X3162205Y605775D01*
Y605250D01*
X3162467Y604988D01*
X3163517D01*
X3163779Y605250D01*
Y605775D01*
X3163517Y606037D01*
X3163779Y607611D02*
Y606562D01*
X3162730Y607611D01*
X3162467D01*
X3162205Y607349D01*
Y606824D01*
X3162467Y606562D01*
Y608136D02*
X3162205Y608398D01*
Y608923D01*
X3162467Y609186D01*
X3163517D01*
X3163779Y608923D01*
Y608398D01*
X3163517Y608136D01*
X3162467D01*
X3236483Y642257D02*
X3236221Y642519D01*
X3235696D01*
X3235434Y642257D01*
Y641208D01*
X3235696Y640945D01*
X3236221D01*
X3236483Y641208D01*
X3237008Y640945D02*
X3237533D01*
X3237270D01*
Y642519D01*
X3237008Y642257D01*
X3238320Y641208D02*
X3238582Y640945D01*
X3239107D01*
X3239370Y641208D01*
Y642257D01*
X3239107Y642519D01*
X3238582D01*
X3238320Y642257D01*
Y641995D01*
X3238582Y641732D01*
X3239370D01*
X3639436Y715027D02*
X3639174Y714764D01*
Y714239D01*
X3639436Y713977D01*
X3640485D01*
X3640748Y714239D01*
Y714764D01*
X3640485Y715027D01*
X3640748Y715551D02*
Y716076D01*
Y715814D01*
X3639174D01*
X3639436Y715551D01*
Y716863D02*
X3639174Y717126D01*
Y717650D01*
X3639436Y717913D01*
X3639698D01*
X3639960Y717650D01*
X3640223Y717913D01*
X3640485D01*
X3640748Y717650D01*
Y717126D01*
X3640485Y716863D01*
X3640223D01*
X3639960Y717126D01*
X3639698Y716863D01*
X3639436D01*
X3639960Y717126D02*
Y717650D01*
X3639436Y721326D02*
X3639174Y721063D01*
Y720539D01*
X3639436Y720276D01*
X3640485D01*
X3640748Y720539D01*
Y721063D01*
X3640485Y721326D01*
X3640748Y721850D02*
Y722375D01*
Y722113D01*
X3639174D01*
X3639436Y721850D01*
X3639174Y723162D02*
Y724212D01*
X3639436D01*
X3640485Y723162D01*
X3640748D01*
X3449344Y751706D02*
X3449606Y751968D01*
Y752493D01*
X3449344Y752755D01*
X3448294D01*
X3448032Y752493D01*
Y751968D01*
X3448294Y751706D01*
X3448032Y751181D02*
Y750656D01*
Y750919D01*
X3449606D01*
X3449344Y751181D01*
X3449606Y748819D02*
X3449344Y749344D01*
X3448819Y749869D01*
X3448294D01*
X3448032Y749607D01*
Y749082D01*
X3448294Y748819D01*
X3448557D01*
X3448819Y749082D01*
Y749869D01*
X3162467Y599869D02*
X3162205Y599607D01*
Y599082D01*
X3162467Y598819D01*
X3163517D01*
X3163779Y599082D01*
Y599607D01*
X3163517Y599869D01*
X3163779Y600394D02*
Y600919D01*
Y600656D01*
X3162205D01*
X3162467Y600394D01*
X3162205Y602755D02*
Y601706D01*
X3162992D01*
X3162730Y602231D01*
Y602493D01*
X3162992Y602755D01*
X3163517D01*
X3163779Y602493D01*
Y601968D01*
X3163517Y601706D01*
X3162467Y593570D02*
X3162205Y593307D01*
Y592783D01*
X3162467Y592520D01*
X3163517D01*
X3163779Y592783D01*
Y593307D01*
X3163517Y593570D01*
X3163779Y594095D02*
Y594619D01*
Y594357D01*
X3162205D01*
X3162467Y594095D01*
X3163779Y596456D02*
Y595406D01*
X3162730Y596456D01*
X3162467D01*
X3162205Y596194D01*
Y595669D01*
X3162467Y595406D01*
X3249109Y598189D02*
X3248847Y598451D01*
X3248322D01*
X3248060Y598189D01*
Y597139D01*
X3248322Y596877D01*
X3248847D01*
X3249109Y597139D01*
X3249634Y596877D02*
X3250159D01*
X3249897D01*
Y598451D01*
X3249634Y598189D01*
X3250946Y596877D02*
X3251471D01*
X3251208D01*
Y598451D01*
X3250946Y598189D01*
X3218513Y563219D02*
X3217989D01*
X3218251D01*
Y561907D01*
X3217989Y561645D01*
X3217726D01*
X3217464Y561907D01*
X3219038Y562957D02*
X3219300Y563219D01*
X3219825D01*
X3220087Y562957D01*
Y562695D01*
X3219825Y562432D01*
X3219563D01*
X3219825D01*
X3220087Y562170D01*
Y561907D01*
X3219825Y561645D01*
X3219300D01*
X3219038Y561907D01*
X3241732Y718898D02*
X3243307D01*
Y719685D01*
X3243044Y719948D01*
X3241995D01*
X3241732Y719685D01*
Y718898D01*
X3243307Y720473D02*
Y720997D01*
Y720735D01*
X3241732D01*
X3241995Y720473D01*
X3241732Y722834D02*
Y721784D01*
X3242520D01*
X3242257Y722309D01*
Y722572D01*
X3242520Y722834D01*
X3243044D01*
X3243307Y722572D01*
Y722047D01*
X3243044Y721784D01*
X3399361Y597978D02*
X3399099Y597715D01*
Y597191D01*
X3399361Y596928D01*
X3400410D01*
X3400673Y597191D01*
Y597715D01*
X3400410Y597978D01*
X3400673Y599552D02*
Y598502D01*
X3399623Y599552D01*
X3399361D01*
X3399099Y599290D01*
Y598765D01*
X3399361Y598502D01*
X3570997Y695800D02*
X3570735Y696063D01*
X3570210D01*
X3569948Y695800D01*
Y694751D01*
X3570210Y694488D01*
X3570735D01*
X3570997Y694751D01*
X3571522Y696063D02*
X3572572D01*
Y695800D01*
X3571522Y694751D01*
Y694488D01*
X3293362Y746885D02*
X3291788D01*
Y747672D01*
X3292050Y747935D01*
X3292575D01*
X3292837Y747672D01*
Y746885D01*
Y747410D02*
X3293362Y747935D01*
Y749509D02*
Y748459D01*
X3292312Y749509D01*
X3292050D01*
X3291788Y749247D01*
Y748722D01*
X3292050Y748459D01*
X3293362Y751083D02*
Y750034D01*
X3292312Y751083D01*
X3292050D01*
X3291788Y750821D01*
Y750296D01*
X3292050Y750034D01*
X3570867Y741338D02*
Y739764D01*
X3571654D01*
X3571916Y740026D01*
Y741076D01*
X3571654Y741338D01*
X3570867D01*
X3572441Y739764D02*
X3572966D01*
X3572704D01*
Y741338D01*
X3572441Y741076D01*
X3574540Y739764D02*
Y741338D01*
X3573753Y740551D01*
X3574802D01*
X3207218Y753805D02*
X3207480Y754068D01*
Y754593D01*
X3207218Y754855D01*
X3206168D01*
X3205906Y754593D01*
Y754068D01*
X3206168Y753805D01*
X3205906Y752231D02*
Y753281D01*
X3206955Y752231D01*
X3207218D01*
X3207480Y752493D01*
Y753018D01*
X3207218Y753281D01*
X3205906Y750919D02*
X3207480D01*
X3206693Y751706D01*
Y750657D01*
X3647376Y593832D02*
X3647113Y594094D01*
X3646589D01*
X3646326Y593832D01*
Y592782D01*
X3646589Y592520D01*
X3647113D01*
X3647376Y592782D01*
X3648950Y592520D02*
X3647900D01*
X3648950Y593570D01*
Y593832D01*
X3648688Y594094D01*
X3648163D01*
X3647900Y593832D01*
X3649475D02*
X3649737Y594094D01*
X3650262D01*
X3650524Y593832D01*
Y593570D01*
X3650262Y593307D01*
X3650000D01*
X3650262D01*
X3650524Y593045D01*
Y592782D01*
X3650262Y592520D01*
X3649737D01*
X3649475Y592782D01*
X3642258Y645800D02*
X3641995Y646063D01*
X3641470D01*
X3641208Y645800D01*
Y644751D01*
X3641470Y644488D01*
X3641995D01*
X3642258Y644751D01*
X3643832Y644488D02*
X3642782D01*
X3643832Y645538D01*
Y645800D01*
X3643570Y646063D01*
X3643045D01*
X3642782Y645800D01*
X3645406Y644488D02*
X3644357D01*
X3645406Y645538D01*
Y645800D01*
X3645144Y646063D01*
X3644619D01*
X3644357Y645800D01*
X3559186Y750787D02*
X3559449Y751050D01*
Y751574D01*
X3559186Y751837D01*
X3558137D01*
X3557874Y751574D01*
Y751050D01*
X3558137Y750787D01*
X3557874Y749213D02*
Y750262D01*
X3558924Y749213D01*
X3559186D01*
X3559449Y749475D01*
Y750000D01*
X3559186Y750262D01*
X3557874Y748688D02*
Y748163D01*
Y748426D01*
X3559449D01*
X3559186Y748688D01*
X3371780Y639507D02*
Y637932D01*
X3372567D01*
X3372829Y638195D01*
Y639244D01*
X3372567Y639507D01*
X3371780D01*
X3374403D02*
X3373878Y639244D01*
X3373354Y638720D01*
Y638195D01*
X3373616Y637932D01*
X3374141D01*
X3374403Y638195D01*
Y638457D01*
X3374141Y638720D01*
X3373354D01*
X3364015Y737015D02*
Y735441D01*
X3364802D01*
X3365064Y735704D01*
Y736753D01*
X3364802Y737015D01*
X3364015D01*
X3366376Y735441D02*
Y737015D01*
X3365589Y736228D01*
X3366639D01*
X3526772Y732940D02*
X3528346D01*
Y733727D01*
X3528084Y733990D01*
X3527034D01*
X3526772Y733727D01*
Y732940D01*
X3527034Y734514D02*
X3526772Y734777D01*
Y735301D01*
X3527034Y735564D01*
X3527297D01*
X3527559Y735301D01*
Y735039D01*
Y735301D01*
X3527821Y735564D01*
X3528084D01*
X3528346Y735301D01*
Y734777D01*
X3528084Y734514D01*
X3212206Y655118D02*
Y653544D01*
X3212992D01*
X3213255Y653806D01*
Y654855D01*
X3212992Y655118D01*
X3212206D01*
X3213780Y653544D02*
X3214304D01*
X3214042D01*
Y655118D01*
X3213780Y654855D01*
X3216141Y655118D02*
X3215616Y654855D01*
X3215092Y654331D01*
Y653806D01*
X3215354Y653544D01*
X3215879D01*
X3216141Y653806D01*
Y654068D01*
X3215879Y654331D01*
X3215092D01*
X3122047Y730655D02*
X3123622D01*
Y731442D01*
X3123359Y731705D01*
X3122310D01*
X3122047Y731442D01*
Y730655D01*
X3123622Y732229D02*
Y732754D01*
Y732492D01*
X3122047D01*
X3122310Y732229D01*
Y733541D02*
X3122047Y733804D01*
Y734328D01*
X3122310Y734591D01*
X3122572D01*
X3122835Y734328D01*
Y734066D01*
Y734328D01*
X3123097Y734591D01*
X3123359D01*
X3123622Y734328D01*
Y733804D01*
X3123359Y733541D01*
X3550689Y717323D02*
X3552264D01*
Y718111D01*
X3552001Y718373D01*
X3550952D01*
X3550689Y718111D01*
Y717323D01*
X3552264Y718898D02*
Y719422D01*
Y719160D01*
X3550689D01*
X3550952Y718898D01*
X3552264Y721259D02*
Y720210D01*
X3551214Y721259D01*
X3550952D01*
X3550689Y720997D01*
Y720472D01*
X3550952Y720210D01*
X3299893Y664183D02*
X3299368D01*
X3299630D01*
Y662871D01*
X3299368Y662609D01*
X3299106D01*
X3298843Y662871D01*
X3300418Y662609D02*
X3300942D01*
X3300680D01*
Y664183D01*
X3300418Y663921D01*
X3340367Y625833D02*
Y624521D01*
X3340630Y624259D01*
X3341154D01*
X3341417Y624521D01*
Y625833D01*
X3341941Y624259D02*
X3342466D01*
X3342204D01*
Y625833D01*
X3341941Y625570D01*
X3662434Y728248D02*
X3661910D01*
X3662172D01*
Y726936D01*
X3661910Y726674D01*
X3661647D01*
X3661385Y726936D01*
X3664009Y726674D02*
X3662959D01*
X3664009Y727723D01*
Y727985D01*
X3663746Y728248D01*
X3663222D01*
X3662959Y727985D01*
X3308215Y662448D02*
Y664022D01*
X3309002D01*
X3309265Y663759D01*
Y663235D01*
X3309002Y662972D01*
X3308215D01*
X3308740D02*
X3309265Y662448D01*
X3310839D02*
X3309789D01*
X3310839Y663497D01*
Y663759D01*
X3310577Y664022D01*
X3310052D01*
X3309789Y663759D01*
X3312151Y662448D02*
Y664022D01*
X3311364Y663235D01*
X3312413D01*
X3175142Y746860D02*
X3173567D01*
Y747647D01*
X3173830Y747910D01*
X3174354D01*
X3174617Y747647D01*
Y746860D01*
Y747385D02*
X3175142Y747910D01*
Y749484D02*
Y748434D01*
X3174092Y749484D01*
X3173830D01*
X3173567Y749222D01*
Y748697D01*
X3173830Y748434D01*
X3175142Y750009D02*
Y750533D01*
Y750271D01*
X3173567D01*
X3173830Y750009D01*
X3528386Y746098D02*
X3526811D01*
Y746885D01*
X3527074Y747147D01*
X3527599D01*
X3527861Y746885D01*
Y746098D01*
Y746623D02*
X3528386Y747147D01*
Y748722D02*
Y747672D01*
X3527336Y748722D01*
X3527074D01*
X3526811Y748459D01*
Y747934D01*
X3527074Y747672D01*
Y749246D02*
X3526811Y749509D01*
Y750034D01*
X3527074Y750296D01*
X3528123D01*
X3528386Y750034D01*
Y749509D01*
X3528123Y749246D01*
X3527074D01*
X3417645Y747016D02*
X3416071D01*
Y747803D01*
X3416333Y748066D01*
X3416858D01*
X3417121Y747803D01*
Y747016D01*
Y747541D02*
X3417645Y748066D01*
Y748591D02*
Y749115D01*
Y748853D01*
X3416071D01*
X3416333Y748591D01*
X3417645Y750690D02*
X3416071D01*
X3416858Y749903D01*
Y750952D01*
X3308530Y759744D02*
Y761319D01*
X3309318D01*
X3309580Y761056D01*
Y760532D01*
X3309318Y760269D01*
X3308530D01*
X3309055D02*
X3309580Y759744D01*
X3310105Y760007D02*
X3310367Y759744D01*
X3310892D01*
X3311155Y760007D01*
Y761056D01*
X3310892Y761319D01*
X3310367D01*
X3310105Y761056D01*
Y760794D01*
X3310367Y760532D01*
X3311155D01*
X3190027Y759449D02*
Y761023D01*
X3190814D01*
X3191076Y760761D01*
Y760236D01*
X3190814Y759974D01*
X3190027D01*
X3190551D02*
X3191076Y759449D01*
X3191601Y760761D02*
X3191863Y761023D01*
X3192388D01*
X3192650Y760761D01*
Y760499D01*
X3192388Y760236D01*
X3192650Y759974D01*
Y759711D01*
X3192388Y759449D01*
X3191863D01*
X3191601Y759711D01*
Y759974D01*
X3191863Y760236D01*
X3191601Y760499D01*
Y760761D01*
X3191863Y760236D02*
X3192388D01*
X3322528Y620013D02*
X3324102D01*
Y619226D01*
X3323840Y618964D01*
X3323315D01*
X3323053Y619226D01*
Y620013D01*
Y619489D02*
X3322528Y618964D01*
Y618439D02*
Y617914D01*
Y618177D01*
X3324102D01*
X3323840Y618439D01*
X3322528Y617127D02*
Y616602D01*
Y616865D01*
X3324102D01*
X3323840Y617127D01*
X3322698Y604467D02*
X3324272D01*
Y603680D01*
X3324010Y603417D01*
X3323485D01*
X3323223Y603680D01*
Y604467D01*
Y603942D02*
X3322698Y603417D01*
Y602893D02*
Y602368D01*
Y602630D01*
X3324272D01*
X3324010Y602893D01*
Y601581D02*
X3324272Y601319D01*
Y600794D01*
X3324010Y600531D01*
X3322960D01*
X3322698Y600794D01*
Y601319D01*
X3322960Y601581D01*
X3324010D01*
X3338860Y582363D02*
Y583938D01*
X3339648D01*
X3339910Y583675D01*
Y583150D01*
X3339648Y582888D01*
X3338860D01*
X3339385D02*
X3339910Y582363D01*
X3340435Y583938D02*
X3341484D01*
Y583675D01*
X3340435Y582626D01*
Y582363D01*
X3352232Y582803D02*
Y584377D01*
X3353019D01*
X3353282Y584115D01*
Y583590D01*
X3353019Y583327D01*
X3352232D01*
X3352757D02*
X3353282Y582803D01*
X3354856Y584377D02*
X3354331Y584115D01*
X3353807Y583590D01*
Y583065D01*
X3354069Y582803D01*
X3354594D01*
X3354856Y583065D01*
Y583327D01*
X3354594Y583590D01*
X3353807D01*
X3545800Y744586D02*
Y743012D01*
X3545013D01*
X3544751Y743274D01*
Y743799D01*
X3545013Y744062D01*
X3545800D01*
X3545275D02*
X3544751Y744586D01*
X3543176Y743012D02*
X3544226D01*
Y743799D01*
X3543701Y743537D01*
X3543439D01*
X3543176Y743799D01*
Y744324D01*
X3543439Y744586D01*
X3543963D01*
X3544226Y744324D01*
X3432546Y759055D02*
Y760630D01*
X3433334D01*
X3433596Y760367D01*
Y759842D01*
X3433334Y759580D01*
X3432546D01*
X3433071D02*
X3433596Y759055D01*
X3434908D02*
Y760630D01*
X3434121Y759842D01*
X3435170D01*
X3528346Y740814D02*
X3526772D01*
Y741601D01*
X3527034Y741864D01*
X3527559D01*
X3527821Y741601D01*
Y740814D01*
Y741339D02*
X3528346Y741864D01*
X3527034Y742388D02*
X3526772Y742651D01*
Y743176D01*
X3527034Y743438D01*
X3527297D01*
X3527559Y743176D01*
Y742913D01*
Y743176D01*
X3527821Y743438D01*
X3528084D01*
X3528346Y743176D01*
Y742651D01*
X3528084Y742388D01*
X3417547Y741574D02*
X3415973D01*
Y742361D01*
X3416235Y742623D01*
X3416760D01*
X3417022Y742361D01*
Y741574D01*
Y742099D02*
X3417547Y742623D01*
Y744198D02*
Y743148D01*
X3416497Y744198D01*
X3416235D01*
X3415973Y743935D01*
Y743411D01*
X3416235Y743148D01*
X3327258Y582363D02*
Y583938D01*
X3328045D01*
X3328307Y583675D01*
Y583150D01*
X3328045Y582888D01*
X3327258D01*
X3327782D02*
X3328307Y582363D01*
X3328832D02*
X3329357D01*
X3329094D01*
Y583938D01*
X3328832Y583675D01*
X3167060Y749869D02*
Y750918D01*
X3166798Y751181D01*
X3166273D01*
X3166011Y750918D01*
Y749869D01*
X3166273Y749607D01*
X3166798D01*
X3166536Y750131D02*
X3167060Y749607D01*
X3166798D02*
X3167060Y749869D01*
X3168372Y749607D02*
Y751181D01*
X3167585Y750394D01*
X3168635D01*
X3280053Y749869D02*
Y750918D01*
X3279790Y751181D01*
X3279265D01*
X3279003Y750918D01*
Y749869D01*
X3279265Y749607D01*
X3279790D01*
X3279528Y750131D02*
X3280053Y749607D01*
X3279790D02*
X3280053Y749869D01*
X3280577Y750918D02*
X3280840Y751181D01*
X3281364D01*
X3281627Y750918D01*
Y750656D01*
X3281364Y750394D01*
X3281102D01*
X3281364D01*
X3281627Y750131D01*
Y749869D01*
X3281364Y749607D01*
X3280840D01*
X3280577Y749869D01*
X3409580D02*
Y750918D01*
X3409318Y751181D01*
X3408793D01*
X3408530Y750918D01*
Y749869D01*
X3408793Y749607D01*
X3409318D01*
X3409055Y750131D02*
X3409580Y749607D01*
X3409318D02*
X3409580Y749869D01*
X3411155Y749607D02*
X3410105D01*
X3411155Y750656D01*
Y750918D01*
X3410892Y751181D01*
X3410367D01*
X3410105Y750918D01*
X3520079Y749475D02*
Y750525D01*
X3519817Y750787D01*
X3519292D01*
X3519029Y750525D01*
Y749475D01*
X3519292Y749213D01*
X3519817D01*
X3519554Y749738D02*
X3520079Y749213D01*
X3519817D02*
X3520079Y749475D01*
X3520604Y749213D02*
X3521128D01*
X3520866D01*
Y750787D01*
X3520604Y750525D01*
X3318998Y586549D02*
X3317949D01*
Y585761D01*
X3318473D01*
X3317949D01*
Y584974D01*
X3319523Y586549D02*
Y584974D01*
X3320310D01*
X3320572Y585237D01*
Y585499D01*
X3320310Y585761D01*
X3319523D01*
X3320310D01*
X3320572Y586024D01*
Y586286D01*
X3320310Y586549D01*
X3319523D01*
X3321097Y584974D02*
X3321622D01*
X3321359D01*
Y586549D01*
X3321097Y586286D01*
X3582874Y721292D02*
X3581300D01*
Y720505D01*
X3581562Y720243D01*
X3582611D01*
X3582874Y720505D01*
Y721292D01*
X3581300Y719718D02*
Y719193D01*
Y719455D01*
X3582874D01*
X3582611Y719718D01*
X3581300Y718406D02*
Y717881D01*
Y718144D01*
X3582874D01*
X3582611Y718406D01*
X3291524Y732382D02*
X3293098D01*
Y733170D01*
X3292836Y733432D01*
X3291786D01*
X3291524Y733170D01*
Y732382D01*
X3293098Y733957D02*
Y734482D01*
Y734219D01*
X3291524D01*
X3291786Y733957D01*
Y735269D02*
X3291524Y735531D01*
Y736056D01*
X3291786Y736318D01*
X3292836D01*
X3293098Y736056D01*
Y735531D01*
X3292836Y735269D01*
X3291786D01*
X3316876Y663628D02*
Y662054D01*
X3317664D01*
X3317926Y662316D01*
Y663366D01*
X3317664Y663628D01*
X3316876D01*
X3318451Y662316D02*
X3318713Y662054D01*
X3319238D01*
X3319500Y662316D01*
Y663366D01*
X3319238Y663628D01*
X3318713D01*
X3318451Y663366D01*
Y663103D01*
X3318713Y662841D01*
X3319500D01*
X3173504Y733251D02*
X3175079D01*
Y734038D01*
X3174816Y734301D01*
X3173767D01*
X3173504Y734038D01*
Y733251D01*
X3173767Y734825D02*
X3173504Y735088D01*
Y735612D01*
X3173767Y735875D01*
X3174029D01*
X3174291Y735612D01*
X3174554Y735875D01*
X3174816D01*
X3175079Y735612D01*
Y735088D01*
X3174816Y734825D01*
X3174554D01*
X3174291Y735088D01*
X3174029Y734825D01*
X3173767D01*
X3174291Y735088D02*
Y735612D01*
X3371601Y580557D02*
Y578983D01*
X3372388D01*
X3372650Y579245D01*
Y580295D01*
X3372388Y580557D01*
X3371601D01*
X3373175D02*
X3374224D01*
Y580295D01*
X3373175Y579245D01*
Y578983D01*
X3475591Y733967D02*
X3477165D01*
Y734754D01*
X3476903Y735016D01*
X3475853D01*
X3475591Y734754D01*
Y733967D01*
Y736591D02*
Y735541D01*
X3476378D01*
X3476115Y736066D01*
Y736328D01*
X3476378Y736591D01*
X3476903D01*
X3477165Y736328D01*
Y735804D01*
X3476903Y735541D01*
X3415402Y733039D02*
X3416976D01*
Y733826D01*
X3416714Y734088D01*
X3415664D01*
X3415402Y733826D01*
Y733039D01*
X3416976Y735662D02*
Y734613D01*
X3415927Y735662D01*
X3415664D01*
X3415402Y735400D01*
Y734875D01*
X3415664Y734613D01*
X3325328Y753412D02*
X3325590Y753674D01*
Y754199D01*
X3325328Y754461D01*
X3324278D01*
X3324016Y754199D01*
Y753674D01*
X3324278Y753412D01*
X3324016Y751837D02*
Y752887D01*
X3325066Y751837D01*
X3325328D01*
X3325590Y752100D01*
Y752625D01*
X3325328Y752887D01*
X3325590Y750263D02*
Y751313D01*
X3324803D01*
X3325066Y750788D01*
Y750526D01*
X3324803Y750263D01*
X3324278D01*
X3324016Y750526D01*
Y751050D01*
X3324278Y751313D01*
X3332016Y632158D02*
X3331753Y632420D01*
X3331228D01*
X3330966Y632158D01*
Y631108D01*
X3331228Y630846D01*
X3331753D01*
X3332016Y631108D01*
X3332540Y630846D02*
X3333065D01*
X3332803D01*
Y632420D01*
X3332540Y632158D01*
X3334639Y630846D02*
Y632420D01*
X3333852Y631633D01*
X3334902D01*
X3312268Y585938D02*
X3312005Y586201D01*
X3311480D01*
X3311218Y585938D01*
Y584889D01*
X3311480Y584626D01*
X3312005D01*
X3312268Y584889D01*
X3312792Y584626D02*
X3313317D01*
X3313055D01*
Y586201D01*
X3312792Y585938D01*
X3314104D02*
X3314367Y586201D01*
X3314891D01*
X3315154Y585938D01*
Y585676D01*
X3314891Y585413D01*
X3314629D01*
X3314891D01*
X3315154Y585151D01*
Y584889D01*
X3314891Y584626D01*
X3314367D01*
X3314104Y584889D01*
X3639633Y702625D02*
X3639370Y702363D01*
Y701838D01*
X3639633Y701576D01*
X3640682D01*
X3640945Y701838D01*
Y702363D01*
X3640682Y702625D01*
X3640945Y703150D02*
Y703675D01*
Y703412D01*
X3639370D01*
X3639633Y703150D01*
Y704462D02*
X3639370Y704724D01*
Y705249D01*
X3639633Y705511D01*
X3640682D01*
X3640945Y705249D01*
Y704724D01*
X3640682Y704462D01*
X3639633D01*
X3639534Y709482D02*
X3639272Y709219D01*
Y708695D01*
X3639534Y708432D01*
X3640584D01*
X3640846Y708695D01*
Y709219D01*
X3640584Y709482D01*
Y710007D02*
X3640846Y710269D01*
Y710794D01*
X3640584Y711056D01*
X3639534D01*
X3639272Y710794D01*
Y710269D01*
X3639534Y710007D01*
X3639797D01*
X3640059Y710269D01*
Y711056D01*
X3597375Y732021D02*
X3597113Y732283D01*
X3596588D01*
X3596326Y732021D01*
Y730971D01*
X3596588Y730709D01*
X3597113D01*
X3597375Y730971D01*
X3597900Y732021D02*
X3598162Y732283D01*
X3598687D01*
X3598950Y732021D01*
Y731758D01*
X3598687Y731496D01*
X3598950Y731234D01*
Y730971D01*
X3598687Y730709D01*
X3598162D01*
X3597900Y730971D01*
Y731234D01*
X3598162Y731496D01*
X3597900Y731758D01*
Y732021D01*
X3598162Y731496D02*
X3598687D01*
X3564206Y693733D02*
X3563944Y693996D01*
X3563419D01*
X3563157Y693733D01*
Y692684D01*
X3563419Y692421D01*
X3563944D01*
X3564206Y692684D01*
X3565780Y693996D02*
X3565256Y693733D01*
X3564731Y693209D01*
Y692684D01*
X3564993Y692421D01*
X3565518D01*
X3565780Y692684D01*
Y692946D01*
X3565518Y693209D01*
X3564731D01*
X3363202Y593287D02*
X3362939Y593549D01*
X3362414D01*
X3362152Y593287D01*
Y592237D01*
X3362414Y591975D01*
X3362939D01*
X3363202Y592237D01*
X3364776Y593549D02*
X3363726D01*
Y592762D01*
X3364251Y593025D01*
X3364513D01*
X3364776Y592762D01*
Y592237D01*
X3364513Y591975D01*
X3363988D01*
X3363726Y592237D01*
X3363202Y625570D02*
X3362939Y625833D01*
X3362414D01*
X3362152Y625570D01*
Y624521D01*
X3362414Y624259D01*
X3362939D01*
X3363202Y624521D01*
X3364513Y624259D02*
Y625833D01*
X3363726Y625046D01*
X3364776D01*
X3346057Y631764D02*
X3345795Y632026D01*
X3345270D01*
X3345008Y631764D01*
Y630715D01*
X3345270Y630452D01*
X3345795D01*
X3346057Y630715D01*
X3346582Y631764D02*
X3346844Y632026D01*
X3347369D01*
X3347631Y631764D01*
Y631502D01*
X3347369Y631239D01*
X3347107D01*
X3347369D01*
X3347631Y630977D01*
Y630715D01*
X3347369Y630452D01*
X3346844D01*
X3346582Y630715D01*
X3399263Y617752D02*
X3399000Y617490D01*
Y616965D01*
X3399263Y616703D01*
X3400312D01*
X3400574Y616965D01*
Y617490D01*
X3400312Y617752D01*
X3400574Y618277D02*
Y618801D01*
Y618539D01*
X3399000D01*
X3399263Y618277D01*
D21*
X3372983Y598404D02*
D03*
X3574409Y707677D02*
D03*
X3559449Y707676D02*
D03*
X3372984Y619789D02*
D03*
D22*
X3568209Y732677D02*
D03*
D23*
X3214165Y631551D02*
D03*
M02*
