G04*
G04 #@! TF.GenerationSoftware,Altium Limited,Altium Designer,20.0.7 (75)*
G04*
G04 Layer_Color=16711935*
%FSLAX25Y25*%
%MOIN*%
G70*
G01*
G75*
%ADD10C,0.00787*%
%ADD11C,0.00394*%
%ADD12C,0.00984*%
%ADD13C,0.00315*%
%ADD14C,0.01181*%
%ADD16C,0.01575*%
%ADD68C,0.01968*%
%ADD79C,0.01000*%
%ADD82C,0.01500*%
%ADD83C,0.00591*%
%ADD84R,0.07087X0.01800*%
%ADD85R,0.13780X0.03336*%
D10*
X3654823Y561811D02*
X3668799D01*
X3668799Y725591D02*
X3668799Y561811D01*
X3654823D02*
X3654823Y725591D01*
X3668799D01*
X3316985Y587510D02*
X3322385D01*
X3316985Y598710D02*
X3322385D01*
X3316985Y587510D02*
Y598710D01*
X3322385Y587510D02*
Y598710D01*
X3322451Y584898D02*
X3333651D01*
X3322451Y590298D02*
X3333651D01*
Y584898D02*
Y590298D01*
X3322451Y584898D02*
Y590298D01*
X3429911Y739820D02*
Y745220D01*
X3418711Y739820D02*
Y745220D01*
Y739820D02*
X3429911D01*
X3418711Y745220D02*
X3429911D01*
X3529400Y739454D02*
X3540600D01*
X3529400Y744853D02*
X3540600D01*
Y739454D02*
Y744853D01*
X3529400Y739454D02*
Y744853D01*
X3431158Y758061D02*
X3436558D01*
X3431158Y746861D02*
X3436558D01*
Y758061D01*
X3431158Y746861D02*
Y758061D01*
X3541788Y745680D02*
Y756880D01*
X3547188Y745680D02*
Y756880D01*
X3541788Y745680D02*
X3547188D01*
X3541788Y756880D02*
X3547188D01*
X3347628Y585338D02*
Y590738D01*
X3358828Y585338D02*
Y590738D01*
X3347628D02*
X3358828D01*
X3347628Y585338D02*
X3358828D01*
X3334361Y590298D02*
X3345560D01*
X3334361Y584898D02*
X3345560D01*
X3334361D02*
Y590298D01*
X3345560Y584898D02*
Y590298D01*
X3310226Y599905D02*
Y605305D01*
X3321426Y599905D02*
Y605305D01*
X3310226D02*
X3321426D01*
X3310226Y599905D02*
X3321426D01*
X3310234Y615608D02*
X3321435D01*
X3310234Y621008D02*
X3321435D01*
Y615608D02*
Y621008D01*
X3310234Y615608D02*
Y621008D01*
X3188639Y747254D02*
X3194039D01*
X3188639Y758454D02*
X3194039D01*
X3188639Y747254D02*
Y758454D01*
X3194039Y747254D02*
Y758454D01*
X3312542Y747550D02*
Y758750D01*
X3307143Y747550D02*
Y758750D01*
X3312542D01*
X3307143Y747550D02*
X3312542D01*
X3418810Y746119D02*
Y751519D01*
X3430009Y746119D02*
Y751519D01*
X3418810D02*
X3430009D01*
X3418810Y746119D02*
X3430009D01*
X3529440Y745725D02*
X3540639D01*
X3529440Y751125D02*
X3540639D01*
Y745725D02*
Y751125D01*
X3529440Y745725D02*
Y751125D01*
X3187490Y746119D02*
Y751519D01*
X3176290Y746119D02*
Y751519D01*
Y746119D02*
X3187490D01*
X3176290Y751519D02*
X3187490D01*
X3294400D02*
X3305600D01*
X3294400Y746119D02*
X3305600D01*
X3294400D02*
Y751519D01*
X3305600Y746119D02*
Y751519D01*
X3350921Y641276D02*
X3356321D01*
X3350921Y630076D02*
X3356321D01*
Y641276D01*
X3350921Y630076D02*
Y641276D01*
X3310234Y607708D02*
X3321435D01*
X3310234Y613108D02*
X3321435D01*
Y607708D02*
Y613108D01*
X3310234Y607708D02*
Y613108D01*
Y623008D02*
Y628408D01*
X3321435Y623008D02*
Y628408D01*
X3310234D02*
X3321435D01*
X3310234Y623008D02*
X3321435D01*
X3176290Y739820D02*
X3187490D01*
X3176290Y745220D02*
X3187490D01*
Y739820D02*
Y745220D01*
X3176290Y739820D02*
Y745220D01*
X3305600Y739820D02*
Y745220D01*
X3294400Y739820D02*
Y745220D01*
Y739820D02*
X3305600D01*
X3294400Y745220D02*
X3305600D01*
X3447549Y563048D02*
X3458750D01*
X3447549Y568448D02*
X3458750D01*
Y563048D02*
Y568448D01*
X3447549Y563048D02*
Y568448D01*
Y569347D02*
Y574747D01*
X3458750Y569347D02*
Y574747D01*
X3447549D02*
X3458750D01*
X3447549Y569347D02*
X3458750D01*
X3447451Y575646D02*
X3458651D01*
X3447451Y581046D02*
X3458651D01*
Y575646D02*
Y581046D01*
X3447451Y575646D02*
Y581046D01*
X3418012Y613287D02*
Y626673D01*
X3410925Y613287D02*
Y626673D01*
X3418012D01*
X3410925Y613287D02*
X3418012D01*
X3411024Y591634D02*
Y605020D01*
X3418110Y591634D02*
Y605020D01*
X3411024Y591634D02*
X3418110D01*
X3411024Y605020D02*
X3418110D01*
X3498343Y757972D02*
X3498343Y673819D01*
X3478658Y757972D02*
X3498343D01*
X3478658Y673819D02*
Y757972D01*
Y673819D02*
X3498343D01*
X3125009D02*
X3144694D01*
X3125009D02*
Y757972D01*
X3144694D01*
X3144694Y673819D01*
X3387402Y757972D02*
X3387402Y673819D01*
X3367717Y757972D02*
X3387402D01*
X3367717Y673819D02*
Y757972D01*
Y673819D02*
X3387402D01*
X3244488D02*
X3264173D01*
X3244488D02*
Y757972D01*
X3264173D01*
X3264173Y673819D01*
X3344683Y623822D02*
Y629222D01*
X3356284Y623822D02*
Y629222D01*
X3344683D02*
X3356284D01*
X3344683Y623822D02*
X3356284D01*
X3360783Y623322D02*
X3366183D01*
X3360783Y611722D02*
X3366183D01*
Y623322D01*
X3360783Y611722D02*
Y623322D01*
Y594769D02*
X3366183D01*
X3360783Y606369D02*
X3366183D01*
X3360783Y594769D02*
Y606369D01*
X3366183Y594769D02*
Y606369D01*
X3642089Y706976D02*
Y712376D01*
X3653689Y706976D02*
Y712376D01*
X3642089D02*
X3653689D01*
X3642089Y706976D02*
X3653689D01*
X3642089Y700676D02*
Y706076D01*
X3653689Y700676D02*
Y706076D01*
X3642089D02*
X3653689D01*
X3642089Y700676D02*
X3653689D01*
X3310686Y587113D02*
X3316086D01*
X3310686Y598713D02*
X3316086D01*
X3310686Y587113D02*
Y598713D01*
X3316086Y587113D02*
Y598713D01*
X3326731Y624322D02*
Y629722D01*
X3338331Y624322D02*
Y629722D01*
X3326731D02*
X3338331D01*
X3326731Y624322D02*
X3338331D01*
X3642822Y647300D02*
Y652700D01*
X3654422Y647300D02*
Y652700D01*
X3642822D02*
X3654422D01*
X3642822Y647300D02*
X3654422D01*
X3642428Y595331D02*
Y600732D01*
X3654028Y595331D02*
Y600732D01*
X3642428D02*
X3654028D01*
X3642428Y595331D02*
X3654028D01*
X3165102Y591893D02*
Y597293D01*
X3176702Y591893D02*
Y597293D01*
X3165102D02*
X3176702D01*
X3165102Y591893D02*
X3176702D01*
X3165125Y598245D02*
Y603645D01*
X3176725Y598245D02*
Y603645D01*
X3165125D02*
X3176725D01*
X3165125Y598245D02*
X3176725D01*
X3642089Y719574D02*
Y724974D01*
X3653689Y719574D02*
Y724974D01*
X3642089D02*
X3653689D01*
X3642089Y719574D02*
X3653689D01*
X3642089Y713275D02*
Y718675D01*
X3653689Y713275D02*
Y718675D01*
X3642089D02*
X3653689D01*
X3642089Y713275D02*
X3653689D01*
X3165125Y604544D02*
Y609944D01*
X3176725Y604544D02*
Y609944D01*
X3165125D02*
X3176725D01*
X3165125Y604544D02*
X3176725D01*
X3396161Y606102D02*
X3409941D01*
X3396161Y581299D02*
X3409941D01*
Y606102D01*
X3396161Y581299D02*
Y606102D01*
X3396161Y612008D02*
X3409941D01*
X3396161Y636811D02*
X3409941D01*
X3396161Y612008D02*
Y636811D01*
X3409941Y612008D02*
Y636811D01*
X3381201Y606004D02*
X3394980D01*
X3381201Y581201D02*
X3394980D01*
Y606004D01*
X3381201Y581201D02*
Y606004D01*
X3381102Y611909D02*
X3394882D01*
X3381102Y636713D02*
X3394882D01*
X3381102Y611909D02*
Y636713D01*
X3394882Y611909D02*
Y636713D01*
X3640551Y693701D02*
X3653937D01*
X3640551Y674016D02*
X3653937D01*
Y693701D01*
X3640551Y674016D02*
Y693701D01*
X3653937Y653543D02*
Y673228D01*
X3640551Y653543D02*
Y673228D01*
X3653937D01*
X3640551Y653543D02*
X3653937D01*
X3626378Y693701D02*
X3639764D01*
X3626378Y674016D02*
X3639764D01*
Y693701D01*
X3626378Y674016D02*
Y693701D01*
X3624803Y601575D02*
Y621260D01*
X3611417Y601575D02*
Y621260D01*
X3624803D01*
X3611417Y601575D02*
X3624803D01*
X3640551Y642126D02*
X3653937D01*
X3640551Y622441D02*
X3653937D01*
Y642126D01*
X3640551Y622441D02*
Y642126D01*
X3625984Y622441D02*
Y642126D01*
X3639370Y622441D02*
Y642126D01*
X3625984Y622441D02*
X3639370D01*
X3625984Y642126D02*
X3639370D01*
X3626378Y653543D02*
X3639764D01*
X3626378Y673228D02*
X3639764D01*
X3626378Y653543D02*
Y673228D01*
X3639764Y653543D02*
Y673228D01*
X3612205Y674016D02*
Y693701D01*
X3625591Y674016D02*
Y693701D01*
X3612205Y674016D02*
X3625591D01*
X3612205Y693701D02*
X3625591D01*
X3612205Y653543D02*
X3625591D01*
X3612205Y673228D02*
X3625591D01*
X3612205Y653543D02*
Y673228D01*
X3625591Y653543D02*
Y673228D01*
X3611417Y622441D02*
Y642126D01*
X3624803Y622441D02*
Y642126D01*
X3611417Y622441D02*
X3624803D01*
X3611417Y642126D02*
X3624803D01*
X3625984Y601575D02*
X3639370D01*
X3625984Y621260D02*
X3639370D01*
X3625984Y601575D02*
Y621260D01*
X3639370Y601575D02*
Y621260D01*
X3653937Y601575D02*
Y621260D01*
X3640551Y601575D02*
Y621260D01*
X3653937D01*
X3640551Y601575D02*
X3653937D01*
X3418740Y729752D02*
X3438740D01*
X3418740Y738752D02*
X3438740D01*
Y729752D02*
Y738752D01*
X3418740Y729752D02*
Y738752D01*
X3196221Y729752D02*
Y738752D01*
X3176221Y729752D02*
Y738752D01*
Y729752D02*
X3196221D01*
X3176221Y738752D02*
X3196221D01*
X3294331D02*
X3314331D01*
X3294331Y729752D02*
X3314331D01*
X3294331D02*
Y738752D01*
X3314331Y729752D02*
Y738752D01*
X3529500Y729654D02*
Y738654D01*
X3549500Y729654D02*
Y738654D01*
X3529500D02*
X3549500D01*
X3529500Y729654D02*
X3549500D01*
X3322441Y743701D02*
Y761811D01*
X3312992Y743701D02*
Y761811D01*
X3322441D01*
X3312992Y743701D02*
X3322441D01*
X3547244Y740945D02*
X3556693D01*
X3547244Y759055D02*
X3556693D01*
X3547244Y740945D02*
Y759055D01*
X3556693Y740945D02*
Y759055D01*
X3204331Y743307D02*
Y761417D01*
X3194882Y743307D02*
Y761417D01*
X3204331D01*
X3194882Y743307D02*
X3204331D01*
X3437008Y741732D02*
X3446457D01*
X3437008Y759842D02*
X3446457D01*
X3437008Y741732D02*
Y759842D01*
X3446457Y741732D02*
Y759842D01*
X3332617Y592132D02*
Y623235D01*
X3350334D01*
Y592132D02*
Y623235D01*
X3332617Y592132D02*
X3350334D01*
X3146004Y772835D02*
X3187441D01*
Y752461D02*
Y772835D01*
X3146004Y752461D02*
X3187441D01*
X3146004D02*
Y772835D01*
X3264508Y752461D02*
Y772835D01*
Y752461D02*
X3305945D01*
Y772835D01*
X3264508D02*
X3305945D01*
X3388523D02*
X3429961D01*
Y752461D02*
Y772835D01*
X3388523Y752461D02*
X3429961D01*
X3388523D02*
Y772835D01*
X3499132Y751909D02*
Y772284D01*
Y751909D02*
X3540569D01*
Y772284D01*
X3499132D02*
X3540569D01*
X3306521Y648390D02*
Y661383D01*
X3314592D01*
Y648390D02*
Y661383D01*
X3306521Y648390D02*
X3314592D01*
X3315863Y649087D02*
X3320863D01*
X3315863D02*
Y660993D01*
X3320863Y649087D02*
Y660993D01*
X3315863D02*
X3320863D01*
X3365984Y606972D02*
X3379884D01*
X3365984Y581272D02*
X3379884D01*
Y606972D01*
X3365984Y581272D02*
Y606972D01*
X3581409Y699109D02*
Y724809D01*
X3567509Y699109D02*
Y724809D01*
X3581409D01*
X3567509Y699109D02*
X3581409D01*
X3552549D02*
X3566449D01*
X3552549Y724809D02*
X3566449D01*
X3552549Y699109D02*
Y724809D01*
X3566449Y699109D02*
Y724809D01*
X3379984Y611222D02*
Y636922D01*
X3366084Y611222D02*
Y636922D01*
X3379984D01*
X3366084Y611222D02*
X3379984D01*
X3559641Y725677D02*
Y739577D01*
X3585341Y725677D02*
Y739577D01*
X3559641D02*
X3585341D01*
X3559641Y725677D02*
X3585341D01*
X3218614Y631968D02*
Y651968D01*
X3209614Y631968D02*
X3218614D01*
X3209614Y651968D02*
X3218614D01*
X3209614Y631968D02*
Y651968D01*
X3174016Y559055D02*
Y590551D01*
X3216536D01*
Y559055D02*
Y590551D01*
X3174016Y559055D02*
X3216536D01*
X3305471Y579361D02*
Y661361D01*
X3295472Y579361D02*
X3305471D01*
X3295472D02*
Y661361D01*
X3305471D01*
X3646457Y681758D02*
X3645802Y681102D01*
Y679790D01*
X3646457Y679134D01*
X3649081D01*
X3649737Y679790D01*
Y681102D01*
X3649081Y681758D01*
X3646457Y683070D02*
X3645802Y683726D01*
Y685038D01*
X3646457Y685693D01*
X3647113D01*
X3647769Y685038D01*
Y684381D01*
Y685038D01*
X3648425Y685693D01*
X3649081D01*
X3649737Y685038D01*
Y683726D01*
X3649081Y683070D01*
X3646457Y687005D02*
X3645802Y687661D01*
Y688973D01*
X3646457Y689629D01*
X3649081D01*
X3649737Y688973D01*
Y687661D01*
X3649081Y687005D01*
X3646457D01*
X3646851Y661285D02*
X3646195Y660629D01*
Y659317D01*
X3646851Y658661D01*
X3649475D01*
X3650131Y659317D01*
Y660629D01*
X3649475Y661285D01*
X3646851Y662597D02*
X3646195Y663253D01*
Y664565D01*
X3646851Y665221D01*
X3647507D01*
X3648163Y664565D01*
Y663909D01*
Y664565D01*
X3648819Y665221D01*
X3649475D01*
X3650131Y664565D01*
Y663253D01*
X3649475Y662597D01*
X3650131Y666533D02*
Y667845D01*
Y667189D01*
X3646195D01*
X3646851Y666533D01*
X3633072Y681758D02*
X3632415Y681102D01*
Y679790D01*
X3633072Y679134D01*
X3635695D01*
X3636351Y679790D01*
Y681102D01*
X3635695Y681758D01*
X3633072Y683070D02*
X3632415Y683726D01*
Y685038D01*
X3633072Y685693D01*
X3633727D01*
X3634383Y685038D01*
Y684381D01*
Y685038D01*
X3635039Y685693D01*
X3635695D01*
X3636351Y685038D01*
Y683726D01*
X3635695Y683070D01*
X3636351Y689629D02*
Y687005D01*
X3633727Y689629D01*
X3633072D01*
X3632415Y688973D01*
Y687661D01*
X3633072Y687005D01*
X3619686Y608136D02*
X3619030Y607480D01*
Y606168D01*
X3619686Y605512D01*
X3622309D01*
X3622965Y606168D01*
Y607480D01*
X3622309Y608136D01*
X3619686Y609447D02*
X3619030Y610104D01*
Y611415D01*
X3619686Y612071D01*
X3620341D01*
X3620998Y611415D01*
Y610759D01*
Y611415D01*
X3621653Y612071D01*
X3622309D01*
X3622965Y611415D01*
Y610104D01*
X3622309Y609447D01*
X3619686Y613383D02*
X3619030Y614039D01*
Y615351D01*
X3619686Y616007D01*
X3620341D01*
X3620998Y615351D01*
Y614695D01*
Y615351D01*
X3621653Y616007D01*
X3622309D01*
X3622965Y615351D01*
Y614039D01*
X3622309Y613383D01*
X3647245Y629395D02*
X3646589Y628740D01*
Y627428D01*
X3647245Y626772D01*
X3649868D01*
X3650525Y627428D01*
Y628740D01*
X3649868Y629395D01*
X3647245Y630707D02*
X3646589Y631363D01*
Y632675D01*
X3647245Y633331D01*
X3647901D01*
X3648557Y632675D01*
Y632019D01*
Y632675D01*
X3649213Y633331D01*
X3649868D01*
X3650525Y632675D01*
Y631363D01*
X3649868Y630707D01*
X3650525Y636611D02*
X3646589D01*
X3648557Y634643D01*
Y637267D01*
X3632678Y629789D02*
X3632022Y629133D01*
Y627821D01*
X3632678Y627165D01*
X3635302D01*
X3635957Y627821D01*
Y629133D01*
X3635302Y629789D01*
X3632678Y631101D02*
X3632022Y631757D01*
Y633069D01*
X3632678Y633725D01*
X3633334D01*
X3633990Y633069D01*
Y632413D01*
Y633069D01*
X3634645Y633725D01*
X3635302D01*
X3635957Y633069D01*
Y631757D01*
X3635302Y631101D01*
X3632022Y637661D02*
Y635037D01*
X3633990D01*
X3633334Y636349D01*
Y637005D01*
X3633990Y637661D01*
X3635302D01*
X3635957Y637005D01*
Y635693D01*
X3635302Y635037D01*
X3633072Y660891D02*
X3632415Y660236D01*
Y658924D01*
X3633072Y658268D01*
X3635695D01*
X3636351Y658924D01*
Y660236D01*
X3635695Y660891D01*
X3633072Y662204D02*
X3632415Y662859D01*
Y664171D01*
X3633072Y664827D01*
X3633727D01*
X3634383Y664171D01*
Y663515D01*
Y664171D01*
X3635039Y664827D01*
X3635695D01*
X3636351Y664171D01*
Y662859D01*
X3635695Y662204D01*
X3632415Y668763D02*
X3633072Y667451D01*
X3634383Y666139D01*
X3635695D01*
X3636351Y666795D01*
Y668107D01*
X3635695Y668763D01*
X3635039D01*
X3634383Y668107D01*
Y666139D01*
X3619292Y681758D02*
X3618636Y681102D01*
Y679790D01*
X3619292Y679134D01*
X3621916D01*
X3622572Y679790D01*
Y681102D01*
X3621916Y681758D01*
X3619292Y683070D02*
X3618636Y683726D01*
Y685038D01*
X3619292Y685693D01*
X3619948D01*
X3620604Y685038D01*
Y684381D01*
Y685038D01*
X3621260Y685693D01*
X3621916D01*
X3622572Y685038D01*
Y683726D01*
X3621916Y683070D01*
X3618636Y687005D02*
Y689629D01*
X3619292D01*
X3621916Y687005D01*
X3622572D01*
X3618898Y660891D02*
X3618242Y660236D01*
Y658924D01*
X3618898Y658268D01*
X3621522D01*
X3622178Y658924D01*
Y660236D01*
X3621522Y660891D01*
X3618898Y662204D02*
X3618242Y662859D01*
Y664171D01*
X3618898Y664827D01*
X3619554D01*
X3620210Y664171D01*
Y663515D01*
Y664171D01*
X3620866Y664827D01*
X3621522D01*
X3622178Y664171D01*
Y662859D01*
X3621522Y662204D01*
X3618898Y666139D02*
X3618242Y666795D01*
Y668107D01*
X3618898Y668763D01*
X3619554D01*
X3620210Y668107D01*
X3620866Y668763D01*
X3621522D01*
X3622178Y668107D01*
Y666795D01*
X3621522Y666139D01*
X3620866D01*
X3620210Y666795D01*
X3619554Y666139D01*
X3618898D01*
X3620210Y666795D02*
Y668107D01*
X3618111Y629789D02*
X3617455Y629133D01*
Y627821D01*
X3618111Y627165D01*
X3620735D01*
X3621391Y627821D01*
Y629133D01*
X3620735Y629789D01*
X3618111Y631101D02*
X3617455Y631757D01*
Y633069D01*
X3618111Y633725D01*
X3618767D01*
X3619423Y633069D01*
Y632413D01*
Y633069D01*
X3620079Y633725D01*
X3620735D01*
X3621391Y633069D01*
Y631757D01*
X3620735Y631101D01*
Y635037D02*
X3621391Y635693D01*
Y637005D01*
X3620735Y637661D01*
X3618111D01*
X3617455Y637005D01*
Y635693D01*
X3618111Y635037D01*
X3618767D01*
X3619423Y635693D01*
Y637661D01*
X3632678Y608529D02*
X3632022Y607873D01*
Y606562D01*
X3632678Y605905D01*
X3635302D01*
X3635957Y606562D01*
Y607873D01*
X3635302Y608529D01*
X3635957Y611809D02*
X3632022D01*
X3633990Y609841D01*
Y612465D01*
X3632678Y613777D02*
X3632022Y614433D01*
Y615745D01*
X3632678Y616401D01*
X3635302D01*
X3635957Y615745D01*
Y614433D01*
X3635302Y613777D01*
X3632678D01*
X3647245Y608529D02*
X3646589Y607873D01*
Y606562D01*
X3647245Y605905D01*
X3649868D01*
X3650525Y606562D01*
Y607873D01*
X3649868Y608529D01*
X3650525Y611809D02*
X3646589D01*
X3648557Y609841D01*
Y612465D01*
X3650525Y613777D02*
Y615089D01*
Y614433D01*
X3646589D01*
X3647245Y613777D01*
X3586482Y752886D02*
X3585826Y753542D01*
X3584514D01*
X3583858Y752886D01*
Y750262D01*
X3584514Y749606D01*
X3585826D01*
X3586482Y750262D01*
X3590418Y749606D02*
X3587794D01*
X3590418Y752230D01*
Y752886D01*
X3589762Y753542D01*
X3588450D01*
X3587794Y752886D01*
X3591730Y753542D02*
X3594353D01*
Y752886D01*
X3591730Y750262D01*
Y749606D01*
X3612860Y749343D02*
X3612204Y749999D01*
X3610892D01*
X3610236Y749343D01*
Y746719D01*
X3610892Y746063D01*
X3612204D01*
X3612860Y746719D01*
X3616796Y746063D02*
X3614172D01*
X3616796Y748687D01*
Y749343D01*
X3616140Y749999D01*
X3614828D01*
X3614172Y749343D01*
X3618108Y746719D02*
X3618764Y746063D01*
X3620076D01*
X3620731Y746719D01*
Y749343D01*
X3620076Y749999D01*
X3618764D01*
X3618108Y749343D01*
Y748687D01*
X3618764Y748031D01*
X3620731D01*
X3316799Y749868D02*
X3316143Y749212D01*
Y747900D01*
X3316799Y747244D01*
X3319423D01*
X3320079Y747900D01*
Y749212D01*
X3319423Y749868D01*
X3320079Y753804D02*
Y751180D01*
X3317455Y753804D01*
X3316799D01*
X3316143Y753148D01*
Y751836D01*
X3316799Y751180D01*
X3316143Y757739D02*
Y755116D01*
X3318111D01*
X3317455Y756427D01*
Y757083D01*
X3318111Y757739D01*
X3319423D01*
X3320079Y757083D01*
Y755771D01*
X3319423Y755116D01*
X3550657Y748293D02*
X3550001Y747637D01*
Y746325D01*
X3550657Y745669D01*
X3553281D01*
X3553937Y746325D01*
Y747637D01*
X3553281Y748293D01*
X3553937Y752229D02*
Y749605D01*
X3551313Y752229D01*
X3550657D01*
X3550001Y751573D01*
Y750261D01*
X3550657Y749605D01*
X3553937Y753541D02*
Y754853D01*
Y754197D01*
X3550001D01*
X3550657Y753541D01*
X3198295Y749474D02*
X3197639Y748818D01*
Y747506D01*
X3198295Y746850D01*
X3200919D01*
X3201575Y747506D01*
Y748818D01*
X3200919Y749474D01*
X3201575Y753410D02*
Y750786D01*
X3198951Y753410D01*
X3198295D01*
X3197639Y752754D01*
Y751442D01*
X3198295Y750786D01*
X3201575Y756690D02*
X3197639D01*
X3199607Y754722D01*
Y757346D01*
X3440027Y748687D02*
X3439371Y748031D01*
Y746719D01*
X3440027Y746063D01*
X3442651D01*
X3443307Y746719D01*
Y748031D01*
X3442651Y748687D01*
X3443307Y749999D02*
Y751311D01*
Y750655D01*
X3439371D01*
X3440027Y749999D01*
X3439371Y755902D02*
X3440027Y754590D01*
X3441339Y753278D01*
X3442651D01*
X3443307Y753934D01*
Y755246D01*
X3442651Y755902D01*
X3441995D01*
X3441339Y755246D01*
Y753278D01*
D11*
X3317187Y652893D02*
X3319548D01*
Y654074D01*
X3319154Y654467D01*
X3317580D01*
X3317187Y654074D01*
Y652893D01*
X3319154Y655254D02*
X3319548Y655648D01*
Y656435D01*
X3319154Y656829D01*
X3317580D01*
X3317187Y656435D01*
Y655648D01*
X3317580Y655254D01*
X3317974D01*
X3318367Y655648D01*
Y656829D01*
D12*
X3546855Y677095D02*
X3548167Y678407D01*
Y681031D01*
X3546855Y682342D01*
X3541607D01*
X3540295Y681031D01*
Y678407D01*
X3541607Y677095D01*
X3548167Y669223D02*
X3546855Y671847D01*
X3544231Y674471D01*
X3541607D01*
X3540295Y673159D01*
Y670535D01*
X3541607Y669223D01*
X3542919D01*
X3544231Y670535D01*
Y674471D01*
X3613095Y711445D02*
X3614407Y712757D01*
Y715381D01*
X3613095Y716693D01*
X3607847D01*
X3606535Y715381D01*
Y712757D01*
X3607847Y711445D01*
X3613095Y708821D02*
X3614407Y707510D01*
Y704886D01*
X3613095Y703574D01*
X3611783D01*
X3610471Y704886D01*
X3609159Y703574D01*
X3607847D01*
X3606535Y704886D01*
Y707510D01*
X3607847Y708821D01*
X3609159D01*
X3610471Y707510D01*
X3611783Y708821D01*
X3613095D01*
X3610471Y707510D02*
Y704886D01*
X3583886Y679425D02*
X3585198Y678113D01*
X3587822D01*
X3589134Y679425D01*
Y684672D01*
X3587822Y685984D01*
X3585198D01*
X3583886Y684672D01*
X3581263Y678113D02*
X3576015D01*
Y679425D01*
X3581263Y684672D01*
Y685984D01*
X3238292Y575225D02*
X3239604Y576537D01*
Y579161D01*
X3238292Y580473D01*
X3233044D01*
X3231732Y579161D01*
Y576537D01*
X3233044Y575225D01*
X3231732Y572601D02*
Y569977D01*
Y571289D01*
X3239604D01*
X3238292Y572601D01*
X3231732Y566041D02*
Y563418D01*
Y564729D01*
X3239604D01*
X3238292Y566041D01*
X3240917Y620182D02*
X3239605Y621493D01*
X3236981D01*
X3235669Y620182D01*
Y614934D01*
X3236981Y613622D01*
X3239605D01*
X3240917Y614934D01*
X3243541Y613622D02*
X3246165D01*
X3244853D01*
Y621493D01*
X3243541Y620182D01*
X3250100Y614934D02*
X3251412Y613622D01*
X3254036D01*
X3255348Y614934D01*
Y620182D01*
X3254036Y621493D01*
X3251412D01*
X3250100Y620182D01*
Y618870D01*
X3251412Y617558D01*
X3255348D01*
X3644910Y745173D02*
X3646222Y743861D01*
X3648846D01*
X3650158Y745173D01*
Y750420D01*
X3648846Y751732D01*
X3646222D01*
X3644910Y750420D01*
X3637038Y751732D02*
X3642286D01*
X3637038Y746485D01*
Y745173D01*
X3638350Y743861D01*
X3640974D01*
X3642286Y745173D01*
X3629167Y743861D02*
X3631791Y745173D01*
X3634415Y747797D01*
Y750420D01*
X3633102Y751732D01*
X3630479D01*
X3629167Y750420D01*
Y749109D01*
X3630479Y747797D01*
X3634415D01*
X3194122Y610921D02*
X3195434Y609609D01*
X3198058D01*
X3199370Y610921D01*
Y616168D01*
X3198058Y617480D01*
X3195434D01*
X3194122Y616168D01*
X3186251Y617480D02*
X3191499D01*
X3186251Y612233D01*
Y610921D01*
X3187563Y609609D01*
X3190187D01*
X3191499Y610921D01*
X3183627D02*
X3182315Y609609D01*
X3179691D01*
X3178379Y610921D01*
Y612233D01*
X3179691Y613545D01*
X3178379Y614856D01*
Y616168D01*
X3179691Y617480D01*
X3182315D01*
X3183627Y616168D01*
Y614856D01*
X3182315Y613545D01*
X3183627Y612233D01*
Y610921D01*
X3182315Y613545D02*
X3179691D01*
D13*
X3318756Y594014D02*
Y592965D01*
X3319543D01*
Y593489D01*
Y592965D01*
X3320331D01*
X3318756Y594539D02*
X3320331D01*
Y595326D01*
X3320068Y595588D01*
X3319806D01*
X3319543Y595326D01*
Y594539D01*
Y595326D01*
X3319281Y595588D01*
X3319019D01*
X3318756Y595326D01*
Y594539D01*
X3320331Y596113D02*
Y596638D01*
Y596376D01*
X3318756D01*
X3319019Y596113D01*
X3327906Y586953D02*
Y588527D01*
X3328693D01*
X3328955Y588265D01*
Y587740D01*
X3328693Y587477D01*
X3327906D01*
X3328430D02*
X3328955Y586953D01*
X3329480D02*
X3330005D01*
X3329742D01*
Y588527D01*
X3329480Y588265D01*
X3424457Y743165D02*
Y741591D01*
X3423669D01*
X3423407Y741854D01*
Y742378D01*
X3423669Y742641D01*
X3424457D01*
X3423932D02*
X3423407Y743165D01*
X3421833D02*
X3422882D01*
X3421833Y742116D01*
Y741854D01*
X3422095Y741591D01*
X3422620D01*
X3422882Y741854D01*
X3534854Y741508D02*
Y743082D01*
X3535641D01*
X3535904Y742820D01*
Y742295D01*
X3535641Y742033D01*
X3534854D01*
X3535379D02*
X3535904Y741508D01*
X3536428Y742820D02*
X3536691Y743082D01*
X3537216D01*
X3537478Y742820D01*
Y742557D01*
X3537216Y742295D01*
X3536953D01*
X3537216D01*
X3537478Y742033D01*
Y741770D01*
X3537216Y741508D01*
X3536691D01*
X3536428Y741770D01*
X3433213Y752606D02*
X3434787D01*
Y751819D01*
X3434525Y751557D01*
X3434000D01*
X3433737Y751819D01*
Y752606D01*
Y752082D02*
X3433213Y751557D01*
Y750245D02*
X3434787D01*
X3434000Y751032D01*
Y749983D01*
X3543842Y751425D02*
X3545417D01*
Y750638D01*
X3545155Y750376D01*
X3544630D01*
X3544367Y750638D01*
Y751425D01*
Y750901D02*
X3543842Y750376D01*
X3545417Y748801D02*
Y749851D01*
X3544630D01*
X3544892Y749326D01*
Y749064D01*
X3544630Y748801D01*
X3544105D01*
X3543842Y749064D01*
Y749589D01*
X3544105Y749851D01*
X3353082Y587392D02*
Y588966D01*
X3353869D01*
X3354131Y588704D01*
Y588179D01*
X3353869Y587917D01*
X3353082D01*
X3353606D02*
X3354131Y587392D01*
X3355706Y588966D02*
X3355181Y588704D01*
X3354656Y588179D01*
Y587654D01*
X3354919Y587392D01*
X3355443D01*
X3355706Y587654D01*
Y587917D01*
X3355443Y588179D01*
X3354656D01*
X3340106Y588244D02*
Y586670D01*
X3339319D01*
X3339057Y586932D01*
Y587457D01*
X3339319Y587719D01*
X3340106D01*
X3339582D02*
X3339057Y588244D01*
X3338532Y586670D02*
X3337482D01*
Y586932D01*
X3338532Y587982D01*
Y588244D01*
X3315680Y601959D02*
Y603533D01*
X3316468D01*
X3316730Y603271D01*
Y602746D01*
X3316468Y602484D01*
X3315680D01*
X3316205D02*
X3316730Y601959D01*
X3317255D02*
X3317779D01*
X3317517D01*
Y603533D01*
X3317255Y603271D01*
X3318567D02*
X3318829Y603533D01*
X3319354D01*
X3319616Y603271D01*
Y602221D01*
X3319354Y601959D01*
X3318829D01*
X3318567Y602221D01*
Y603271D01*
X3315689Y617662D02*
Y619237D01*
X3316476D01*
X3316739Y618974D01*
Y618449D01*
X3316476Y618187D01*
X3315689D01*
X3316214D02*
X3316739Y617662D01*
X3317263D02*
X3317788D01*
X3317525D01*
Y619237D01*
X3317263Y618974D01*
X3318575Y617662D02*
X3319100D01*
X3318837D01*
Y619237D01*
X3318575Y618974D01*
X3191984Y752709D02*
X3190410D01*
Y753496D01*
X3190672Y753758D01*
X3191197D01*
X3191459Y753496D01*
Y752709D01*
Y753233D02*
X3191984Y753758D01*
X3190672Y754283D02*
X3190410Y754545D01*
Y755070D01*
X3190672Y755333D01*
X3190935D01*
X3191197Y755070D01*
X3191459Y755333D01*
X3191722D01*
X3191984Y755070D01*
Y754545D01*
X3191722Y754283D01*
X3191459D01*
X3191197Y754545D01*
X3190935Y754283D01*
X3190672D01*
X3191197Y754545D02*
Y755070D01*
X3310488Y753004D02*
X3308914D01*
Y753791D01*
X3309176Y754053D01*
X3309701D01*
X3309963Y753791D01*
Y753004D01*
Y753529D02*
X3310488Y754053D01*
X3310226Y754578D02*
X3310488Y754841D01*
Y755365D01*
X3310226Y755628D01*
X3309176D01*
X3308914Y755365D01*
Y754841D01*
X3309176Y754578D01*
X3309439D01*
X3309701Y754841D01*
Y755628D01*
X3424264Y748173D02*
Y749748D01*
X3425051D01*
X3425313Y749485D01*
Y748960D01*
X3425051Y748698D01*
X3424264D01*
X3424789D02*
X3425313Y748173D01*
X3425838D02*
X3426363D01*
X3426101D01*
Y749748D01*
X3425838Y749485D01*
X3427937Y748173D02*
Y749748D01*
X3427150Y748960D01*
X3428199D01*
X3534894Y747780D02*
Y749354D01*
X3535681D01*
X3535943Y749091D01*
Y748567D01*
X3535681Y748304D01*
X3534894D01*
X3535418D02*
X3535943Y747780D01*
X3537518D02*
X3536468D01*
X3537518Y748829D01*
Y749091D01*
X3537255Y749354D01*
X3536731D01*
X3536468Y749091D01*
X3538042D02*
X3538305Y749354D01*
X3538829D01*
X3539092Y749091D01*
Y748042D01*
X3538829Y747780D01*
X3538305D01*
X3538042Y748042D01*
Y749091D01*
X3182035Y749465D02*
Y747890D01*
X3181248D01*
X3180986Y748153D01*
Y748677D01*
X3181248Y748940D01*
X3182035D01*
X3181511D02*
X3180986Y749465D01*
X3179412D02*
X3180461D01*
X3179412Y748415D01*
Y748153D01*
X3179674Y747890D01*
X3180199D01*
X3180461Y748153D01*
X3178887Y749465D02*
X3178362D01*
X3178625D01*
Y747890D01*
X3178887Y748153D01*
X3300146Y749465D02*
Y747890D01*
X3299358D01*
X3299096Y748153D01*
Y748677D01*
X3299358Y748940D01*
X3300146D01*
X3299621D02*
X3299096Y749465D01*
X3297522D02*
X3298571D01*
X3297522Y748415D01*
Y748153D01*
X3297784Y747890D01*
X3298309D01*
X3298571Y748153D01*
X3295948Y749465D02*
X3296997D01*
X3295948Y748415D01*
Y748153D01*
X3296210Y747890D01*
X3296735D01*
X3296997Y748153D01*
X3354550Y634772D02*
Y635821D01*
X3353763D01*
Y635296D01*
Y635821D01*
X3352975D01*
X3354550Y634247D02*
X3352975D01*
Y633460D01*
X3353238Y633197D01*
X3353500D01*
X3353763Y633460D01*
Y634247D01*
Y633460D01*
X3354025Y633197D01*
X3354287D01*
X3354550Y633460D01*
Y634247D01*
X3352975Y631623D02*
Y632673D01*
X3354025Y631623D01*
X3354287D01*
X3354550Y631885D01*
Y632410D01*
X3354287Y632673D01*
X3315689Y609762D02*
Y611337D01*
X3316476D01*
X3316739Y611074D01*
Y610549D01*
X3316476Y610287D01*
X3315689D01*
X3316214D02*
X3316739Y609762D01*
X3317263D02*
X3317788D01*
X3317525D01*
Y611337D01*
X3317263Y611074D01*
X3319625Y609762D02*
X3318575D01*
X3319625Y610812D01*
Y611074D01*
X3319362Y611337D01*
X3318837D01*
X3318575Y611074D01*
X3315689Y625062D02*
Y626637D01*
X3316476D01*
X3316739Y626374D01*
Y625849D01*
X3316476Y625587D01*
X3315689D01*
X3316214D02*
X3316739Y625062D01*
X3317263D02*
X3317788D01*
X3317525D01*
Y626637D01*
X3317263Y626374D01*
X3318575D02*
X3318837Y626637D01*
X3319362D01*
X3319625Y626374D01*
Y626112D01*
X3319362Y625849D01*
X3319100D01*
X3319362D01*
X3319625Y625587D01*
Y625325D01*
X3319362Y625062D01*
X3318837D01*
X3318575Y625325D01*
X3181744Y741874D02*
Y743448D01*
X3182531D01*
X3182794Y743186D01*
Y742661D01*
X3182531Y742399D01*
X3181744D01*
X3182269D02*
X3182794Y741874D01*
X3183318D02*
X3183843D01*
X3183581D01*
Y743448D01*
X3183318Y743186D01*
X3185680Y743448D02*
X3184630D01*
Y742661D01*
X3185155Y742923D01*
X3185418D01*
X3185680Y742661D01*
Y742136D01*
X3185418Y741874D01*
X3184893D01*
X3184630Y742136D01*
X3300146Y743165D02*
Y741591D01*
X3299358D01*
X3299096Y741854D01*
Y742378D01*
X3299358Y742641D01*
X3300146D01*
X3299621D02*
X3299096Y743165D01*
X3298571D02*
X3298046D01*
X3298309D01*
Y741591D01*
X3298571Y741854D01*
X3296210Y741591D02*
X3296735Y741854D01*
X3297260Y742378D01*
Y742903D01*
X3296997Y743165D01*
X3296472D01*
X3296210Y742903D01*
Y742641D01*
X3296472Y742378D01*
X3297260D01*
X3454053Y566677D02*
X3453004D01*
Y565890D01*
X3453529D01*
X3453004D01*
Y565102D01*
X3454578Y566677D02*
Y565102D01*
X3455365D01*
X3455628Y565365D01*
Y565627D01*
X3455365Y565890D01*
X3454578D01*
X3455365D01*
X3455628Y566152D01*
Y566414D01*
X3455365Y566677D01*
X3454578D01*
X3456152Y566414D02*
X3456415Y566677D01*
X3456940D01*
X3457202Y566414D01*
Y566152D01*
X3456940Y565890D01*
X3456677D01*
X3456940D01*
X3457202Y565627D01*
Y565365D01*
X3456940Y565102D01*
X3456415D01*
X3456152Y565365D01*
X3454053Y572976D02*
X3453004D01*
Y572189D01*
X3453529D01*
X3453004D01*
Y571402D01*
X3454578Y572976D02*
Y571402D01*
X3455365D01*
X3455628Y571664D01*
Y571926D01*
X3455365Y572189D01*
X3454578D01*
X3455365D01*
X3455628Y572451D01*
Y572714D01*
X3455365Y572976D01*
X3454578D01*
X3456940Y571402D02*
Y572976D01*
X3456152Y572189D01*
X3457202D01*
X3453955Y579275D02*
X3452906D01*
Y578488D01*
X3453430D01*
X3452906D01*
Y577701D01*
X3454480Y579275D02*
Y577701D01*
X3455267D01*
X3455529Y577963D01*
Y578226D01*
X3455267Y578488D01*
X3454480D01*
X3455267D01*
X3455529Y578750D01*
Y579013D01*
X3455267Y579275D01*
X3454480D01*
X3457104D02*
X3456054D01*
Y578488D01*
X3456579Y578750D01*
X3456841D01*
X3457104Y578488D01*
Y577963D01*
X3456841Y577701D01*
X3456316D01*
X3456054Y577963D01*
X3351487Y627188D02*
X3351225Y627451D01*
X3350700D01*
X3350438Y627188D01*
Y626139D01*
X3350700Y625876D01*
X3351225D01*
X3351487Y626139D01*
X3352012Y627188D02*
X3352274Y627451D01*
X3352799D01*
X3353062Y627188D01*
Y626926D01*
X3352799Y626663D01*
X3352537D01*
X3352799D01*
X3353062Y626401D01*
Y626139D01*
X3352799Y625876D01*
X3352274D01*
X3352012Y626139D01*
X3364150Y616518D02*
X3364412Y616781D01*
Y617305D01*
X3364150Y617568D01*
X3363100D01*
X3362838Y617305D01*
Y616781D01*
X3363100Y616518D01*
X3362838Y615206D02*
X3364412D01*
X3363625Y615993D01*
Y614944D01*
X3362817Y601573D02*
X3362555Y601311D01*
Y600786D01*
X3362817Y600524D01*
X3363867D01*
X3364129Y600786D01*
Y601311D01*
X3363867Y601573D01*
X3362555Y603147D02*
Y602098D01*
X3363342D01*
X3363079Y602623D01*
Y602885D01*
X3363342Y603147D01*
X3363867D01*
X3364129Y602885D01*
Y602360D01*
X3363867Y602098D01*
X3648893Y710342D02*
X3648631Y710604D01*
X3648106D01*
X3647843Y710342D01*
Y709292D01*
X3648106Y709030D01*
X3648631D01*
X3648893Y709292D01*
X3649417D02*
X3649680Y709030D01*
X3650205D01*
X3650467Y709292D01*
Y710342D01*
X3650205Y710604D01*
X3649680D01*
X3649417Y710342D01*
Y710079D01*
X3649680Y709817D01*
X3650467D01*
X3648893Y704043D02*
X3648631Y704305D01*
X3648106D01*
X3647843Y704043D01*
Y702993D01*
X3648106Y702731D01*
X3648631D01*
X3648893Y702993D01*
X3649417Y702731D02*
X3649942D01*
X3649680D01*
Y704305D01*
X3649417Y704043D01*
X3650729D02*
X3650992Y704305D01*
X3651517D01*
X3651779Y704043D01*
Y702993D01*
X3651517Y702731D01*
X3650992D01*
X3650729Y702993D01*
Y704043D01*
X3312720Y593917D02*
X3312457Y593655D01*
Y593130D01*
X3312720Y592868D01*
X3313769D01*
X3314032Y593130D01*
Y593655D01*
X3313769Y593917D01*
X3314032Y594442D02*
Y594967D01*
Y594704D01*
X3312457D01*
X3312720Y594442D01*
Y595754D02*
X3312457Y596016D01*
Y596541D01*
X3312720Y596803D01*
X3312982D01*
X3313244Y596541D01*
Y596279D01*
Y596541D01*
X3313507Y596803D01*
X3313769D01*
X3314032Y596541D01*
Y596016D01*
X3313769Y595754D01*
X3333535Y627688D02*
X3333272Y627951D01*
X3332747D01*
X3332485Y627688D01*
Y626639D01*
X3332747Y626376D01*
X3333272D01*
X3333535Y626639D01*
X3334059Y626376D02*
X3334584D01*
X3334322D01*
Y627951D01*
X3334059Y627688D01*
X3336158Y626376D02*
Y627951D01*
X3335371Y627164D01*
X3336421D01*
X3649626Y650666D02*
X3649363Y650929D01*
X3648839D01*
X3648576Y650666D01*
Y649617D01*
X3648839Y649354D01*
X3649363D01*
X3649626Y649617D01*
X3651200Y649354D02*
X3650151D01*
X3651200Y650404D01*
Y650666D01*
X3650938Y650929D01*
X3650413D01*
X3650151Y650666D01*
X3652774Y649354D02*
X3651725D01*
X3652774Y650404D01*
Y650666D01*
X3652512Y650929D01*
X3651987D01*
X3651725Y650666D01*
X3649232Y598698D02*
X3648970Y598960D01*
X3648445D01*
X3648183Y598698D01*
Y597648D01*
X3648445Y597386D01*
X3648970D01*
X3649232Y597648D01*
X3650806Y597386D02*
X3649757D01*
X3650806Y598435D01*
Y598698D01*
X3650544Y598960D01*
X3650019D01*
X3649757Y598698D01*
X3651331D02*
X3651594Y598960D01*
X3652118D01*
X3652381Y598698D01*
Y598435D01*
X3652118Y598173D01*
X3651856D01*
X3652118D01*
X3652381Y597911D01*
Y597648D01*
X3652118Y597386D01*
X3651594D01*
X3651331Y597648D01*
X3171905Y595259D02*
X3171643Y595522D01*
X3171118D01*
X3170856Y595259D01*
Y594210D01*
X3171118Y593947D01*
X3171643D01*
X3171905Y594210D01*
X3172430Y593947D02*
X3172955D01*
X3172693D01*
Y595522D01*
X3172430Y595259D01*
X3174792Y593947D02*
X3173742D01*
X3174792Y594997D01*
Y595259D01*
X3174529Y595522D01*
X3174005D01*
X3173742Y595259D01*
X3171929Y601611D02*
X3171667Y601873D01*
X3171142D01*
X3170880Y601611D01*
Y600562D01*
X3171142Y600299D01*
X3171667D01*
X3171929Y600562D01*
X3172454Y600299D02*
X3172979D01*
X3172716D01*
Y601873D01*
X3172454Y601611D01*
X3174815Y601873D02*
X3173766D01*
Y601086D01*
X3174290Y601349D01*
X3174553D01*
X3174815Y601086D01*
Y600562D01*
X3174553Y600299D01*
X3174028D01*
X3173766Y600562D01*
X3648893Y722940D02*
X3648631Y723203D01*
X3648106D01*
X3647843Y722940D01*
Y721891D01*
X3648106Y721628D01*
X3648631D01*
X3648893Y721891D01*
X3649417Y721628D02*
X3649942D01*
X3649680D01*
Y723203D01*
X3649417Y722940D01*
X3650729Y723203D02*
X3651779D01*
Y722940D01*
X3650729Y721891D01*
Y721628D01*
X3648893Y716641D02*
X3648631Y716903D01*
X3648106D01*
X3647843Y716641D01*
Y715591D01*
X3648106Y715329D01*
X3648631D01*
X3648893Y715591D01*
X3649417Y715329D02*
X3649942D01*
X3649680D01*
Y716903D01*
X3649417Y716641D01*
X3650729D02*
X3650992Y716903D01*
X3651517D01*
X3651779Y716641D01*
Y716379D01*
X3651517Y716116D01*
X3651779Y715854D01*
Y715591D01*
X3651517Y715329D01*
X3650992D01*
X3650729Y715591D01*
Y715854D01*
X3650992Y716116D01*
X3650729Y716379D01*
Y716641D01*
X3650992Y716116D02*
X3651517D01*
X3171929Y607910D02*
X3171667Y608173D01*
X3171142D01*
X3170880Y607910D01*
Y606861D01*
X3171142Y606598D01*
X3171667D01*
X3171929Y606861D01*
X3173503Y606598D02*
X3172454D01*
X3173503Y607648D01*
Y607910D01*
X3173241Y608173D01*
X3172716D01*
X3172454Y607910D01*
X3174028D02*
X3174290Y608173D01*
X3174815D01*
X3175078Y607910D01*
Y606861D01*
X3174815Y606598D01*
X3174290D01*
X3174028Y606861D01*
Y607910D01*
D14*
X3338839Y609191D02*
Y605255D01*
X3339626Y604468D01*
X3341201D01*
X3341988Y605255D01*
Y609191D01*
X3343562Y604468D02*
X3345137D01*
X3344349D01*
Y609191D01*
X3343562Y608403D01*
X3194864Y576761D02*
X3193237D01*
X3194050D01*
Y572694D01*
X3193237Y571881D01*
X3192424D01*
X3191610Y572694D01*
X3196490Y575948D02*
X3197304Y576761D01*
X3198931D01*
X3199744Y575948D01*
Y575135D01*
X3198931Y574321D01*
X3198117D01*
X3198931D01*
X3199744Y573508D01*
Y572694D01*
X3198931Y571881D01*
X3197304D01*
X3196490Y572694D01*
D16*
X3347857Y594888D02*
G03*
X3347857Y594888I-574J0D01*
G01*
X3657640Y642393D02*
Y639770D01*
Y641081D01*
X3664200D01*
X3665512Y639770D01*
Y638458D01*
X3664200Y637146D01*
X3665512Y650265D02*
Y645017D01*
X3660264Y650265D01*
X3658952D01*
X3657640Y648953D01*
Y646329D01*
X3658952Y645017D01*
X3491613Y706339D02*
X3499484D01*
Y710274D01*
X3498172Y711586D01*
X3492925D01*
X3491613Y710274D01*
Y706339D01*
Y719458D02*
Y714210D01*
X3495549D01*
X3494237Y716834D01*
Y718146D01*
X3495549Y719458D01*
X3498172D01*
X3499484Y718146D01*
Y715522D01*
X3498172Y714210D01*
X3137964Y706339D02*
X3145835D01*
Y710274D01*
X3144523Y711586D01*
X3139276D01*
X3137964Y710274D01*
Y706339D01*
X3145835Y714210D02*
Y716834D01*
Y715522D01*
X3137964D01*
X3139276Y714210D01*
Y720770D02*
X3137964Y722082D01*
Y724705D01*
X3139276Y726017D01*
X3140588D01*
X3141900Y724705D01*
Y723393D01*
Y724705D01*
X3143212Y726017D01*
X3144523D01*
X3145835Y724705D01*
Y722082D01*
X3144523Y720770D01*
X3380672Y706339D02*
X3388543D01*
Y710274D01*
X3387231Y711586D01*
X3381984D01*
X3380672Y710274D01*
Y706339D01*
X3388543Y718146D02*
X3380672D01*
X3384608Y714210D01*
Y719458D01*
X3257444Y706339D02*
X3265315D01*
Y710274D01*
X3264003Y711586D01*
X3258755D01*
X3257444Y710274D01*
Y706339D01*
X3265315Y714210D02*
Y716834D01*
Y715522D01*
X3257444D01*
X3258755Y714210D01*
X3257444Y726017D02*
Y720770D01*
X3261379D01*
X3260067Y723393D01*
Y724705D01*
X3261379Y726017D01*
X3264003D01*
X3265315Y724705D01*
Y722082D01*
X3264003Y720770D01*
X3165878Y760367D02*
Y765615D01*
X3164566Y766927D01*
X3161942D01*
X3160630Y765615D01*
Y760367D01*
X3161942Y759055D01*
X3164566D01*
X3163254Y761679D02*
X3165878Y759055D01*
X3164566D02*
X3165878Y760367D01*
X3172437Y759055D02*
Y766927D01*
X3168501Y762991D01*
X3173749D01*
X3284775Y759973D02*
Y765221D01*
X3283463Y766533D01*
X3280840D01*
X3279528Y765221D01*
Y759973D01*
X3280840Y758661D01*
X3283463D01*
X3282151Y761285D02*
X3284775Y758661D01*
X3283463D02*
X3284775Y759973D01*
X3287399Y765221D02*
X3288711Y766533D01*
X3291335D01*
X3292647Y765221D01*
Y763909D01*
X3291335Y762597D01*
X3290023D01*
X3291335D01*
X3292647Y761285D01*
Y759973D01*
X3291335Y758661D01*
X3288711D01*
X3287399Y759973D01*
X3409185D02*
Y765221D01*
X3407873Y766533D01*
X3405249D01*
X3403937Y765221D01*
Y759973D01*
X3405249Y758661D01*
X3407873D01*
X3406561Y761285D02*
X3409185Y758661D01*
X3407873D02*
X3409185Y759973D01*
X3417056Y758661D02*
X3411808D01*
X3417056Y763909D01*
Y765221D01*
X3415744Y766533D01*
X3413120D01*
X3411808Y765221D01*
X3520996Y759580D02*
Y764827D01*
X3519684Y766139D01*
X3517060D01*
X3515748Y764827D01*
Y759580D01*
X3517060Y758268D01*
X3519684D01*
X3518372Y760891D02*
X3520996Y758268D01*
X3519684D02*
X3520996Y759580D01*
X3523619Y758268D02*
X3526243D01*
X3524931D01*
Y766139D01*
X3523619Y764827D01*
D68*
X3184488Y755905D02*
G03*
X3184488Y755905I-787J0D01*
G01*
X3302992D02*
G03*
X3302992Y755905I-787J0D01*
G01*
X3427008D02*
G03*
X3427008Y755905I-787J0D01*
G01*
X3537616Y755354D02*
G03*
X3537616Y755354I-787J0D01*
G01*
D79*
X3565989Y680553D02*
G03*
X3565989Y680553I-19731J0D01*
G01*
X3632229Y714903D02*
G03*
X3632229Y714903I-19731J0D01*
G01*
X3607075Y680021D02*
G03*
X3607075Y680021I-19731J0D01*
G01*
X3257426Y578683D02*
G03*
X3257426Y578683I-19731J0D01*
G01*
X3257190Y619585D02*
G03*
X3257190Y619585I-19731J0D01*
G01*
X3668098Y745769D02*
G03*
X3668098Y745769I-19731J0D01*
G01*
X3217311Y611517D02*
G03*
X3217311Y611517I-19731J0D01*
G01*
X3601870Y751772D02*
G03*
X3601870Y751772I-12500J0D01*
G01*
X3627460Y748228D02*
G03*
X3627460Y748228I-12500J0D01*
G01*
X3338795Y850243D02*
Y854242D01*
X3340795Y856242D01*
X3342794Y854242D01*
Y850243D01*
Y853242D01*
X3338795D01*
X3344793Y850243D02*
X3347792D01*
X3348792Y851243D01*
X3347792Y852243D01*
X3345793D01*
X3344793Y853242D01*
X3345793Y854242D01*
X3348792D01*
X3350792Y850243D02*
X3353790D01*
X3354790Y851243D01*
X3353790Y852243D01*
X3351791D01*
X3350792Y853242D01*
X3351791Y854242D01*
X3354790D01*
X3359789Y850243D02*
X3357789D01*
X3356789Y851243D01*
Y853242D01*
X3357789Y854242D01*
X3359789D01*
X3360788Y853242D01*
Y852243D01*
X3356789D01*
X3362788Y850243D02*
Y854242D01*
X3363787D01*
X3364787Y853242D01*
Y850243D01*
Y853242D01*
X3365786Y854242D01*
X3366786Y853242D01*
Y850243D01*
X3368785Y856242D02*
Y850243D01*
X3371785D01*
X3372784Y851243D01*
Y852243D01*
Y853242D01*
X3371785Y854242D01*
X3368785D01*
X3374784Y850243D02*
X3376783D01*
X3375783D01*
Y856242D01*
X3374784D01*
X3379782Y854242D02*
Y851243D01*
X3380782Y850243D01*
X3383781D01*
Y849244D01*
X3382781Y848244D01*
X3381781D01*
X3383781Y850243D02*
Y854242D01*
X3391778Y856242D02*
X3395777D01*
X3393777D01*
Y850243D01*
X3398776D02*
X3400775D01*
X3401775Y851243D01*
Y853242D01*
X3400775Y854242D01*
X3398776D01*
X3397776Y853242D01*
Y851243D01*
X3398776Y850243D01*
X3403774Y848244D02*
Y854242D01*
X3406773D01*
X3407773Y853242D01*
Y851243D01*
X3406773Y850243D01*
X3403774D01*
X3416770D02*
X3418769D01*
X3419769Y851243D01*
Y853242D01*
X3418769Y854242D01*
X3416770D01*
X3415770Y853242D01*
Y851243D01*
X3416770Y850243D01*
X3422768D02*
Y855242D01*
Y853242D01*
X3421769D01*
X3423768D01*
X3422768D01*
Y855242D01*
X3423768Y856242D01*
X3432765Y850243D02*
Y854242D01*
X3434764Y856242D01*
X3436764Y854242D01*
Y850243D01*
Y853242D01*
X3432765D01*
X3441762Y850243D02*
Y856242D01*
X3438763Y853242D01*
X3442762D01*
X3444761Y851243D02*
X3445761Y850243D01*
X3447760D01*
X3448760Y851243D01*
Y855242D01*
X3447760Y856242D01*
X3445761D01*
X3444761Y855242D01*
Y854242D01*
X3445761Y853242D01*
X3448760D01*
X3453758Y850243D02*
Y856242D01*
X3450759Y853242D01*
X3454758D01*
X3456757Y855242D02*
X3457757Y856242D01*
X3459756D01*
X3460756Y855242D01*
Y851243D01*
X3459756Y850243D01*
X3457757D01*
X3456757Y851243D01*
Y855242D01*
X3300652Y622277D02*
X3298986D01*
X3299819D01*
Y618112D01*
X3298986Y617279D01*
X3298153D01*
X3297320Y618112D01*
X3302318Y617279D02*
X3303984D01*
X3303151D01*
Y622277D01*
X3302318Y621444D01*
D82*
X3299472Y656361D02*
G03*
X3299472Y656361I-1000J0D01*
G01*
D83*
X3428583Y736062D02*
Y732913D01*
X3430157D01*
X3430682Y733438D01*
Y735537D01*
X3430157Y736062D01*
X3428583D01*
X3433830Y732913D02*
X3431731D01*
X3433830Y735012D01*
Y735537D01*
X3433306Y736062D01*
X3432256D01*
X3431731Y735537D01*
X3186378Y732442D02*
Y735591D01*
X3184804D01*
X3184279Y735066D01*
Y732967D01*
X3184804Y732442D01*
X3186378D01*
X3183229Y732967D02*
X3182705Y732442D01*
X3181655D01*
X3181130Y732967D01*
Y733492D01*
X3181655Y734016D01*
X3181130Y734541D01*
Y735066D01*
X3181655Y735591D01*
X3182705D01*
X3183229Y735066D01*
Y734541D01*
X3182705Y734016D01*
X3183229Y733492D01*
Y732967D01*
X3182705Y734016D02*
X3181655D01*
X3304488Y732442D02*
Y735591D01*
X3302914D01*
X3302389Y735066D01*
Y732967D01*
X3302914Y732442D01*
X3304488D01*
X3301340Y735591D02*
X3300290D01*
X3300815D01*
Y732442D01*
X3301340Y732967D01*
X3298716D02*
X3298191Y732442D01*
X3297142D01*
X3296617Y732967D01*
Y735066D01*
X3297142Y735591D01*
X3298191D01*
X3298716Y735066D01*
Y732967D01*
X3539342Y735963D02*
Y732815D01*
X3540917D01*
X3541442Y733340D01*
Y735439D01*
X3540917Y735963D01*
X3539342D01*
X3542491Y735439D02*
X3543016Y735963D01*
X3544065D01*
X3544590Y735439D01*
Y734914D01*
X3544065Y734389D01*
X3543541D01*
X3544065D01*
X3544590Y733864D01*
Y733340D01*
X3544065Y732815D01*
X3543016D01*
X3542491Y733340D01*
X3312265Y650728D02*
X3309116D01*
Y652302D01*
X3309641Y652827D01*
X3310690D01*
X3311215Y652302D01*
Y650728D01*
Y651777D02*
X3312265Y652827D01*
Y655975D02*
Y653876D01*
X3310165Y655975D01*
X3309641D01*
X3309116Y655450D01*
Y654401D01*
X3309641Y653876D01*
X3312265Y658599D02*
X3309116D01*
X3310690Y657025D01*
Y659124D01*
X3370572Y594073D02*
Y590924D01*
X3372146D01*
X3372671Y591449D01*
Y593548D01*
X3372146Y594073D01*
X3370572D01*
X3373720D02*
X3375819D01*
Y593548D01*
X3373720Y591449D01*
Y590924D01*
X3571103Y713227D02*
Y710079D01*
X3572676D01*
X3573201Y710604D01*
Y712703D01*
X3572676Y713227D01*
X3571103D01*
X3574251Y710079D02*
X3575301D01*
X3574776D01*
Y713227D01*
X3574251Y712703D01*
X3576875Y710079D02*
X3577924D01*
X3577399D01*
Y713227D01*
X3576875Y712703D01*
X3555748Y713227D02*
Y710079D01*
X3557322D01*
X3557847Y710604D01*
Y712703D01*
X3557322Y713227D01*
X3555748D01*
X3558897Y710079D02*
X3559946D01*
X3559422D01*
Y713227D01*
X3558897Y712703D01*
X3563620Y710079D02*
X3561520D01*
X3563620Y712178D01*
Y712703D01*
X3563095Y713227D01*
X3562045D01*
X3561520Y712703D01*
X3370178Y626356D02*
Y623208D01*
X3371752D01*
X3372277Y623733D01*
Y625832D01*
X3371752Y626356D01*
X3370178D01*
X3375426D02*
X3374376Y625832D01*
X3373326Y624782D01*
Y623733D01*
X3373851Y623208D01*
X3374901D01*
X3375426Y623733D01*
Y624257D01*
X3374901Y624782D01*
X3373326D01*
X3568740Y734881D02*
Y731732D01*
X3570314D01*
X3570839Y732257D01*
Y734356D01*
X3570314Y734881D01*
X3568740D01*
X3571889Y731732D02*
X3572938D01*
X3572414D01*
Y734881D01*
X3571889Y734356D01*
X3576087Y731732D02*
Y734881D01*
X3574512Y733307D01*
X3576612D01*
X3212457Y638490D02*
X3215606D01*
Y640065D01*
X3215081Y640590D01*
X3212982D01*
X3212457Y640065D01*
Y638490D01*
X3215606Y641639D02*
Y642689D01*
Y642164D01*
X3212457D01*
X3212982Y641639D01*
X3212457Y646362D02*
X3212982Y645312D01*
X3214031Y644263D01*
X3215081D01*
X3215606Y644788D01*
Y645837D01*
X3215081Y646362D01*
X3214556D01*
X3214031Y645837D01*
Y644263D01*
D84*
X3414468Y614187D02*
D03*
X3414566Y604119D02*
D03*
D85*
X3403051Y604434D02*
D03*
Y613676D02*
D03*
X3388091Y604336D02*
D03*
X3387992Y613577D02*
D03*
M02*
