G04*
G04 #@! TF.GenerationSoftware,Altium Limited,Altium Designer,20.0.7 (75)*
G04*
G04 Layer_Color=8388736*
%FSLAX25Y25*%
%MOIN*%
G70*
G01*
G75*
%ADD40R,0.03563X0.03367*%
%ADD41R,0.03367X0.03563*%
%ADD42C,0.12000*%
%ADD43R,0.04941X0.06910*%
%ADD44R,0.03957X0.03760*%
%ADD45R,0.03760X0.03957*%
%ADD46R,0.08878X0.09272*%
%ADD47R,0.11437X0.06319*%
%ADD48R,0.04744X0.06910*%
%ADD49R,0.07107X0.05138*%
%ADD50R,0.11831X0.17028*%
%ADD51R,0.06969X0.02244*%
%ADD52R,0.05138X0.02776*%
%ADD53R,0.03170X0.03170*%
%ADD54R,0.11831X0.04941*%
%ADD55R,0.04941X0.11831*%
%ADD56R,0.06910X0.03957*%
%ADD57C,0.07894*%
%ADD58C,0.04744*%
%ADD59C,0.12618*%
%ADD60R,0.08288X0.08288*%
%ADD61C,0.08288*%
%ADD62C,0.06020*%
%ADD63R,0.07894X0.06319*%
%ADD64O,0.07894X0.06319*%
D40*
X3319685Y590059D02*
D03*
Y596161D02*
D03*
X3433858Y755512D02*
D03*
Y749409D02*
D03*
X3544488Y748228D02*
D03*
Y754331D02*
D03*
X3191339Y749803D02*
D03*
Y755905D02*
D03*
X3309843Y756201D02*
D03*
Y750098D02*
D03*
X3353621Y638727D02*
D03*
Y632624D02*
D03*
D41*
X3331102Y587598D02*
D03*
X3325000D02*
D03*
X3427362Y742520D02*
D03*
X3421260D02*
D03*
X3538051Y742154D02*
D03*
X3531949D02*
D03*
X3350176Y588038D02*
D03*
X3356279D02*
D03*
X3336909Y587598D02*
D03*
X3343012D02*
D03*
X3312775Y602605D02*
D03*
X3318877D02*
D03*
X3318886Y618308D02*
D03*
X3312783D02*
D03*
X3421358Y748819D02*
D03*
X3427460D02*
D03*
X3538091Y748425D02*
D03*
X3531988D02*
D03*
X3184941Y748819D02*
D03*
X3178839D02*
D03*
X3296949D02*
D03*
X3303051D02*
D03*
X3318886Y610408D02*
D03*
X3312783D02*
D03*
Y625708D02*
D03*
X3318886D02*
D03*
X3184941Y742520D02*
D03*
X3178839D02*
D03*
X3303051D02*
D03*
X3296949D02*
D03*
X3456201Y565748D02*
D03*
X3450098D02*
D03*
Y572047D02*
D03*
X3456201D02*
D03*
X3456102Y578346D02*
D03*
X3450000D02*
D03*
D42*
X3607874Y566929D02*
D03*
X3156693D02*
D03*
X3645669Y803150D02*
D03*
X3151181D02*
D03*
D43*
X3414468Y625197D02*
D03*
Y614764D02*
D03*
X3414567Y593110D02*
D03*
Y603543D02*
D03*
D44*
X3347531Y626522D02*
D03*
X3353436D02*
D03*
X3644936Y709676D02*
D03*
X3650842D02*
D03*
X3644936Y703376D02*
D03*
X3650842D02*
D03*
X3329578Y627022D02*
D03*
X3335484D02*
D03*
X3645669Y650000D02*
D03*
X3651575D02*
D03*
X3645275Y598032D02*
D03*
X3651181D02*
D03*
X3167949Y594593D02*
D03*
X3173854D02*
D03*
X3167972Y600945D02*
D03*
X3173878D02*
D03*
X3644936Y722274D02*
D03*
X3650842D02*
D03*
X3644936Y715975D02*
D03*
X3650842D02*
D03*
X3167972Y607244D02*
D03*
X3173878D02*
D03*
D45*
X3363483Y620475D02*
D03*
Y614569D02*
D03*
Y597616D02*
D03*
Y603522D02*
D03*
X3313386Y589961D02*
D03*
Y595866D02*
D03*
D46*
X3403051Y603445D02*
D03*
Y583957D02*
D03*
Y614665D02*
D03*
Y634154D02*
D03*
X3388091Y603346D02*
D03*
Y583858D02*
D03*
X3387992Y614567D02*
D03*
Y634055D02*
D03*
D47*
X3647244Y689370D02*
D03*
Y678346D02*
D03*
Y668898D02*
D03*
Y657874D02*
D03*
X3633071Y689370D02*
D03*
Y678346D02*
D03*
X3618110Y616929D02*
D03*
Y605905D02*
D03*
X3647244Y637795D02*
D03*
Y626772D02*
D03*
X3632677D02*
D03*
Y637795D02*
D03*
X3633071Y657874D02*
D03*
Y668898D02*
D03*
X3618898Y678346D02*
D03*
Y689370D02*
D03*
Y657874D02*
D03*
Y668898D02*
D03*
X3618110Y626772D02*
D03*
Y637795D02*
D03*
X3632677Y605905D02*
D03*
Y616929D02*
D03*
X3647244D02*
D03*
Y605905D02*
D03*
D48*
X3435335Y734252D02*
D03*
X3422146D02*
D03*
X3192815D02*
D03*
X3179626D02*
D03*
X3297736D02*
D03*
X3310925D02*
D03*
X3532906Y734154D02*
D03*
X3546095D02*
D03*
D49*
X3317717Y758268D02*
D03*
Y747244D02*
D03*
X3551968Y744488D02*
D03*
Y755512D02*
D03*
X3199606Y757874D02*
D03*
Y746850D02*
D03*
X3441732Y745276D02*
D03*
Y756299D02*
D03*
D50*
X3341476Y607683D02*
D03*
D51*
X3329468Y621758D02*
D03*
Y619199D02*
D03*
Y616640D02*
D03*
Y614081D02*
D03*
Y611522D02*
D03*
Y608963D02*
D03*
Y606404D02*
D03*
Y603845D02*
D03*
Y601286D02*
D03*
Y598727D02*
D03*
Y596168D02*
D03*
Y593609D02*
D03*
X3353484Y621758D02*
D03*
Y619199D02*
D03*
Y616640D02*
D03*
Y614081D02*
D03*
Y611522D02*
D03*
Y608963D02*
D03*
Y606404D02*
D03*
Y603845D02*
D03*
Y601286D02*
D03*
Y598727D02*
D03*
Y596168D02*
D03*
Y593609D02*
D03*
D52*
X3310557Y651147D02*
D03*
Y658627D02*
D03*
D53*
X3318363Y651843D02*
D03*
Y658143D02*
D03*
D54*
X3372984Y603522D02*
D03*
Y584821D02*
D03*
X3574409Y721260D02*
D03*
Y702559D02*
D03*
X3559449D02*
D03*
Y721260D02*
D03*
X3372984Y633372D02*
D03*
Y614672D02*
D03*
D55*
X3563091Y732677D02*
D03*
X3581791D02*
D03*
D56*
X3214114Y648858D02*
D03*
Y635079D02*
D03*
D57*
X3661811Y720472D02*
D03*
Y669291D02*
D03*
Y618110D02*
D03*
Y566929D02*
D03*
X3488500Y752913D02*
D03*
Y678740D02*
D03*
X3134851D02*
D03*
Y752913D02*
D03*
X3377559D02*
D03*
Y678740D02*
D03*
X3254331D02*
D03*
Y752913D02*
D03*
D58*
X3546358Y670768D02*
D03*
Y690453D02*
D03*
X3612598Y724803D02*
D03*
Y705118D02*
D03*
X3577559Y679921D02*
D03*
X3597244D02*
D03*
X3237795Y588583D02*
D03*
Y568898D02*
D03*
X3247244Y619685D02*
D03*
X3227559D02*
D03*
X3658268Y745669D02*
D03*
X3638583D02*
D03*
X3187795Y611417D02*
D03*
X3207480D02*
D03*
X3589370Y756693D02*
D03*
Y746850D02*
D03*
X3614960Y743307D02*
D03*
Y753150D02*
D03*
D59*
X3640157Y566929D02*
D03*
X3128740Y803150D02*
D03*
X3131890Y566929D02*
D03*
X3661024Y803150D02*
D03*
D60*
X3176772Y762598D02*
D03*
X3295275D02*
D03*
X3419291D02*
D03*
X3529900Y762047D02*
D03*
D61*
X3166772Y762598D02*
D03*
X3156772D02*
D03*
X3275275D02*
D03*
X3285276D02*
D03*
X3409291D02*
D03*
X3399291D02*
D03*
X3509900Y762047D02*
D03*
X3519900D02*
D03*
D62*
X3205906Y574803D02*
D03*
X3186221D02*
D03*
D63*
X3300471Y655361D02*
D03*
D64*
Y645361D02*
D03*
Y635361D02*
D03*
Y625361D02*
D03*
Y615361D02*
D03*
Y605361D02*
D03*
Y595361D02*
D03*
Y585361D02*
D03*
M02*
