G04*
G04 #@! TF.GenerationSoftware,Altium Limited,Altium Designer,20.0.7 (75)*
G04*
G04 Layer_Physical_Order=1*
G04 Layer_Color=255*
%FSLAX25Y25*%
%MOIN*%
G70*
G01*
G75*
%ADD14C,0.01181*%
%ADD16C,0.01575*%
%ADD19C,0.03937*%
%ADD24R,0.03543X0.03347*%
%ADD25R,0.03347X0.03543*%
%ADD26R,0.04921X0.06890*%
%ADD27R,0.03937X0.03740*%
%ADD28R,0.03740X0.03937*%
%ADD29R,0.08858X0.09252*%
%ADD30R,0.11417X0.06299*%
%ADD31R,0.04724X0.06890*%
%ADD32R,0.07087X0.05118*%
%ADD33R,0.11811X0.17008*%
%ADD34R,0.06496X0.01772*%
%ADD35R,0.05118X0.02756*%
%ADD36R,0.03150X0.03150*%
%ADD37R,0.11811X0.04921*%
%ADD38R,0.04921X0.11811*%
%ADD39R,0.06890X0.03937*%
%ADD65C,0.04000*%
%ADD66C,0.02362*%
%ADD67C,0.03150*%
%ADD68C,0.01968*%
%ADD69C,0.07874*%
%ADD70C,0.04724*%
%ADD71C,0.12598*%
%ADD72R,0.08268X0.08268*%
%ADD73C,0.08268*%
%ADD74C,0.06000*%
%ADD75R,0.07874X0.06299*%
%ADD76O,0.07874X0.06299*%
%ADD77C,0.02362*%
%ADD78C,0.01968*%
G36*
X3221653Y755512D02*
X3200127Y755512D01*
X3199620Y755901D01*
X3198854Y756218D01*
X3198031Y756326D01*
X3196063D01*
X3196063Y764567D01*
X3188976Y771654D01*
X3170472Y771654D01*
X3170473Y745276D01*
X3162992Y745276D01*
Y771654D01*
X3148819Y771654D01*
X3148819Y711811D01*
X3122441Y711811D01*
Y797090D01*
X3122941Y797213D01*
X3124125Y796242D01*
X3125561Y795474D01*
X3127119Y795002D01*
X3128740Y794842D01*
X3130361Y795002D01*
X3131919Y795474D01*
X3133356Y796242D01*
X3134615Y797275D01*
X3135648Y798534D01*
X3136415Y799970D01*
X3136888Y801529D01*
X3137048Y803150D01*
X3136888Y804770D01*
X3136415Y806329D01*
X3135648Y807765D01*
X3134676Y808949D01*
X3134800Y809449D01*
X3221653D01*
X3221653Y755512D01*
D02*
G37*
G36*
X3310155Y751494D02*
X3310813Y750989D01*
X3311580Y750672D01*
X3312205Y750589D01*
Y744095D01*
X3306693Y744095D01*
Y746260D01*
X3305709D01*
X3305512Y746457D01*
X3301575D01*
X3301181Y746850D01*
Y750787D01*
X3302362Y751968D01*
X3309681Y751968D01*
X3310155Y751494D01*
D02*
G37*
G36*
X3279134Y743701D02*
X3266180D01*
Y769685D01*
X3279134D01*
Y743701D01*
D02*
G37*
G36*
X3191947Y750903D02*
X3192604Y750398D01*
X3193371Y750081D01*
X3194094Y749986D01*
Y743701D01*
X3188583Y743701D01*
Y746260D01*
X3187598D01*
X3187402Y746457D01*
Y746457D01*
X3182677Y746457D01*
Y751181D01*
X3183071Y751575D01*
X3191275Y751575D01*
X3191947Y750903D01*
D02*
G37*
G36*
X3403149Y740945D02*
X3389764D01*
Y771260D01*
X3403149D01*
Y740945D01*
D02*
G37*
G36*
X3655087Y808949D02*
X3654116Y807765D01*
X3653348Y806329D01*
X3652876Y804770D01*
X3652716Y803150D01*
X3652876Y801529D01*
X3653348Y799970D01*
X3654116Y798534D01*
X3655149Y797275D01*
X3656408Y796242D01*
X3657845Y795474D01*
X3659403Y795002D01*
X3661024Y794842D01*
X3662645Y795002D01*
X3664203Y795474D01*
X3665639Y796242D01*
X3666823Y797214D01*
X3667323Y797090D01*
X3667323Y672568D01*
X3666823Y672443D01*
X3666745Y672588D01*
X3666007Y673487D01*
X3665108Y674225D01*
X3664082Y674774D01*
X3662969Y675111D01*
X3661811Y675225D01*
X3660653Y675111D01*
X3659540Y674774D01*
X3658514Y674225D01*
X3657615Y673487D01*
X3657269Y673066D01*
X3654921D01*
Y683465D01*
X3611221D01*
Y673228D01*
Y663779D01*
X3654921D01*
Y665124D01*
X3657592D01*
X3657615Y665095D01*
X3657840Y664911D01*
Y660630D01*
X3654921D01*
Y662992D01*
X3611221D01*
Y661845D01*
X3602756D01*
X3601728Y661710D01*
X3600771Y661313D01*
X3599948Y660682D01*
X3599908Y660630D01*
X3540708Y660630D01*
X3540354Y660983D01*
X3540355Y713189D01*
X3551113Y723947D01*
X3551575Y723756D01*
Y716831D01*
X3562555D01*
X3562725Y716331D01*
X3562547Y716194D01*
X3560086Y713733D01*
X3559455Y712911D01*
X3559058Y711953D01*
X3558923Y710925D01*
Y706988D01*
X3551575D01*
Y698130D01*
X3567323D01*
Y706988D01*
X3566865D01*
Y709280D01*
X3566999Y709415D01*
X3572441D01*
X3573469Y709550D01*
X3574426Y709947D01*
X3575249Y710578D01*
X3577217Y712546D01*
X3577848Y713369D01*
X3578245Y714327D01*
X3578381Y715354D01*
Y716831D01*
X3582283D01*
Y724803D01*
X3586221D01*
Y728312D01*
X3588583D01*
X3589610Y728448D01*
X3590568Y728844D01*
X3591391Y729476D01*
X3592022Y730298D01*
X3592418Y731256D01*
X3592554Y732283D01*
X3592418Y733311D01*
X3592022Y734269D01*
X3591391Y735091D01*
X3590568Y735722D01*
X3589610Y736119D01*
X3588583Y736254D01*
X3586221D01*
Y740551D01*
X3577362D01*
Y725689D01*
X3567520D01*
Y740551D01*
X3559409D01*
X3559055Y740905D01*
X3559055Y750000D01*
X3556693Y752362D01*
X3548425D01*
X3548425Y762599D01*
X3538189Y772835D01*
X3523622Y772835D01*
Y751968D01*
X3516142D01*
Y772835D01*
X3498819D01*
X3498819Y721260D01*
X3478347Y721260D01*
X3446457Y753150D01*
X3438543Y753150D01*
X3438189Y753503D01*
X3438189Y766535D01*
X3431102Y766535D01*
X3424409Y773228D01*
X3412992Y773228D01*
Y753937D01*
X3405512Y753937D01*
X3405512Y773228D01*
X3403344D01*
X3403149Y773267D01*
X3389764D01*
X3389570Y773228D01*
X3387795D01*
Y771454D01*
X3387757Y771260D01*
Y740945D01*
X3387795Y740751D01*
Y733465D01*
X3354331Y733464D01*
X3354331Y809449D01*
X3654964D01*
X3655087Y808949D01*
D02*
G37*
G36*
X3420866Y628740D02*
X3420866Y621260D01*
X3411811Y621260D01*
X3404330Y628740D01*
X3382677Y628740D01*
X3382677Y642520D01*
X3407087D01*
X3420866Y628740D01*
D02*
G37*
G36*
X3352324Y733464D02*
X3352362Y733272D01*
X3352362Y717323D01*
X3374379D01*
Y683737D01*
X3374262Y683674D01*
X3373363Y682936D01*
X3372625Y682037D01*
X3372077Y681011D01*
X3371739Y679898D01*
X3371625Y678740D01*
X3371739Y677583D01*
X3372077Y676469D01*
X3372625Y675443D01*
X3373363Y674544D01*
X3374262Y673806D01*
X3375288Y673258D01*
X3376402Y672920D01*
X3377559Y672806D01*
X3378717Y672920D01*
X3379830Y673258D01*
X3380856Y673806D01*
X3381755Y674544D01*
X3382493Y675443D01*
X3383041Y676469D01*
X3383379Y677583D01*
X3383493Y678740D01*
X3383379Y679898D01*
X3383041Y681011D01*
X3382493Y682037D01*
X3381755Y682936D01*
X3381527Y683124D01*
Y717323D01*
X3501575Y717323D01*
X3501575Y769685D01*
X3513779Y769685D01*
Y762163D01*
X3513768Y762047D01*
X3513779Y761931D01*
Y724409D01*
X3533465Y704724D01*
X3533464Y652756D01*
X3641698Y652756D01*
Y650000D01*
X3641732Y649742D01*
Y646161D01*
X3644664D01*
X3645669Y646029D01*
X3646675Y646161D01*
X3649979D01*
X3650984Y646029D01*
X3659055D01*
X3660083Y646164D01*
X3661040Y646561D01*
X3661863Y647192D01*
X3664619Y649948D01*
X3665250Y650770D01*
X3665647Y651728D01*
X3665782Y652756D01*
X3666282Y652756D01*
X3667323D01*
X3667323Y587598D01*
X3530512D01*
X3457087Y661024D01*
X3344882Y661024D01*
X3324016Y681890D01*
X3324016Y754725D01*
X3322835Y755905D01*
X3317485Y755905D01*
X3317404Y755986D01*
X3316746Y756491D01*
X3315980Y756809D01*
X3315157Y756917D01*
X3314173D01*
X3314173Y773622D01*
X3288976D01*
Y752362D01*
X3281850Y752362D01*
X3281496Y752716D01*
X3281496Y773622D01*
X3264173Y773622D01*
Y727165D01*
X3225197Y727165D01*
X3225197Y809449D01*
X3352324Y809449D01*
X3352324Y733464D01*
D02*
G37*
G36*
X3321653Y589764D02*
X3326772D01*
X3326772Y579528D01*
X3324409Y577165D01*
X3313780Y577165D01*
X3313779Y582283D01*
X3317323Y585827D01*
Y592126D01*
X3321653D01*
X3321653Y589764D01*
D02*
G37*
G36*
X3423228Y596850D02*
X3423228Y593307D01*
X3405118Y575197D01*
X3382677Y575197D01*
X3382677Y589370D01*
X3408661Y589370D01*
X3411417Y592126D01*
X3411417Y596497D01*
X3411771Y596850D01*
X3423228Y596850D01*
D02*
G37*
G36*
X3520472Y577165D02*
X3667323D01*
Y559449D01*
X3644730D01*
X3644609Y559934D01*
X3644773Y560021D01*
X3646032Y561055D01*
X3647065Y562314D01*
X3647833Y563750D01*
X3648306Y565308D01*
X3648465Y566929D01*
X3648306Y568550D01*
X3647833Y570108D01*
X3647065Y571545D01*
X3646032Y572804D01*
X3644773Y573837D01*
X3643337Y574604D01*
X3641778Y575077D01*
X3640157Y575237D01*
X3638537Y575077D01*
X3636978Y574604D01*
X3635542Y573837D01*
X3634283Y572804D01*
X3633250Y571545D01*
X3632482Y570108D01*
X3632010Y568550D01*
X3631850Y566929D01*
X3632010Y565308D01*
X3632482Y563750D01*
X3633250Y562314D01*
X3634283Y561055D01*
X3635542Y560021D01*
X3635706Y559934D01*
X3635585Y559449D01*
X3454331D01*
Y597244D01*
X3500394D01*
X3520472Y577165D01*
D02*
G37*
G36*
X3451968Y559449D02*
X3431496Y559449D01*
X3431496Y579134D01*
X3440945Y588583D01*
X3451968D01*
Y559449D01*
D02*
G37*
G36*
X3160630Y725197D02*
X3193307Y692520D01*
X3251575Y692520D01*
X3268110Y675984D01*
X3268110Y651285D01*
X3255875Y639050D01*
X3214114D01*
X3213856Y639016D01*
X3208701D01*
Y631142D01*
X3210143D01*
Y625650D01*
X3210278Y624622D01*
X3210675Y623664D01*
X3211306Y622842D01*
X3217271Y616877D01*
X3218093Y616246D01*
X3218957Y615888D01*
X3218858Y615388D01*
X3209210D01*
X3208611Y615637D01*
X3207480Y615785D01*
X3206350Y615637D01*
X3205296Y615200D01*
X3204391Y614506D01*
X3203698Y613601D01*
X3203261Y612548D01*
X3203112Y611417D01*
X3203261Y610287D01*
X3203509Y609687D01*
Y598032D01*
X3203645Y597004D01*
X3204041Y596046D01*
X3204672Y595224D01*
X3214121Y585775D01*
X3214944Y585144D01*
X3215902Y584747D01*
X3216929Y584612D01*
X3233824D01*
Y582747D01*
X3229851Y578774D01*
X3208892D01*
X3208411Y579143D01*
X3207203Y579644D01*
X3206602Y579723D01*
X3200446Y585879D01*
X3199623Y586510D01*
X3198666Y586906D01*
X3197638Y587042D01*
X3180385D01*
X3177825Y589602D01*
Y594593D01*
Y600766D01*
X3177849Y600945D01*
Y607244D01*
X3177815Y607502D01*
Y611083D01*
X3174883D01*
X3173878Y611215D01*
X3172872Y611083D01*
X3169941D01*
Y607502D01*
X3169907Y607244D01*
Y601101D01*
X3169883Y600921D01*
Y594593D01*
Y587957D01*
X3170019Y586929D01*
X3170415Y585971D01*
X3171046Y585149D01*
X3175932Y580263D01*
X3176755Y579632D01*
X3177712Y579235D01*
X3178740Y579100D01*
X3195993D01*
X3200986Y574107D01*
X3201065Y573506D01*
X3201566Y572297D01*
X3202362Y571260D01*
X3203400Y570463D01*
X3204609Y569963D01*
X3205906Y569792D01*
X3207203Y569963D01*
X3208411Y570463D01*
X3208892Y570832D01*
X3231496D01*
X3232524Y570967D01*
X3233482Y571364D01*
X3234304Y571995D01*
X3240603Y578295D01*
X3241234Y579117D01*
X3241631Y580075D01*
X3241766Y581102D01*
Y586853D01*
X3242014Y587452D01*
X3242163Y588583D01*
X3242014Y589713D01*
X3241578Y590767D01*
X3240884Y591671D01*
X3239979Y592366D01*
X3238926Y592802D01*
X3237795Y592951D01*
X3236665Y592802D01*
X3236065Y592554D01*
X3218574D01*
X3211451Y599676D01*
Y607446D01*
X3221260D01*
X3222288Y607582D01*
X3223245Y607978D01*
X3224068Y608609D01*
X3230216Y614758D01*
X3230848Y615580D01*
X3231244Y616538D01*
X3231379Y617566D01*
Y617591D01*
X3231778Y618554D01*
X3231927Y619685D01*
X3231778Y620816D01*
X3231342Y621869D01*
X3230648Y622774D01*
X3229743Y623468D01*
X3228690Y623904D01*
X3227559Y624053D01*
X3226429Y623904D01*
X3225829Y623656D01*
X3221724D01*
X3218085Y627294D01*
Y631108D01*
X3257520D01*
X3258548Y631243D01*
X3259505Y631640D01*
X3260328Y632271D01*
X3267648Y639592D01*
X3268110Y639400D01*
X3268111Y583465D01*
X3244094Y559449D01*
X3160236D01*
X3157151Y562534D01*
X3157311Y563008D01*
X3157729Y563063D01*
X3158694Y563463D01*
X3159523Y564099D01*
X3160159Y564928D01*
X3160559Y565893D01*
X3160696Y566929D01*
X3160559Y567965D01*
X3160159Y568930D01*
X3159523Y569760D01*
X3158694Y570396D01*
X3157729Y570795D01*
X3156693Y570932D01*
X3155657Y570795D01*
X3154692Y570396D01*
X3153863Y569760D01*
X3153226Y568930D01*
X3152827Y567965D01*
X3152772Y567548D01*
X3152298Y567387D01*
X3122441Y597244D01*
X3122441Y677165D01*
X3152756Y707480D01*
X3152756Y767717D01*
X3160630Y767717D01*
X3160630Y725197D01*
D02*
G37*
%LPC*%
G36*
X3151181Y807152D02*
X3150145Y807016D01*
X3149180Y806616D01*
X3148351Y805980D01*
X3147715Y805151D01*
X3147315Y804186D01*
X3147178Y803150D01*
X3147315Y802114D01*
X3147715Y801148D01*
X3148351Y800319D01*
X3149180Y799683D01*
X3150145Y799283D01*
X3151181Y799147D01*
X3152217Y799283D01*
X3153182Y799683D01*
X3154012Y800319D01*
X3154648Y801148D01*
X3155047Y802114D01*
X3155184Y803150D01*
X3155047Y804186D01*
X3154648Y805151D01*
X3154012Y805980D01*
X3153182Y806616D01*
X3152217Y807016D01*
X3151181Y807152D01*
D02*
G37*
G36*
X3638189D02*
X3637153Y807016D01*
X3636188Y806616D01*
X3635358Y805980D01*
X3634723Y805151D01*
X3634323Y804186D01*
X3634186Y803150D01*
X3634323Y802114D01*
X3634723Y801148D01*
X3635358Y800319D01*
X3636188Y799683D01*
X3637153Y799283D01*
X3638189Y799147D01*
X3639225Y799283D01*
X3640191Y799683D01*
X3641019Y800319D01*
X3641655Y801148D01*
X3642055Y802114D01*
X3642192Y803150D01*
X3642055Y804186D01*
X3641655Y805151D01*
X3641019Y805980D01*
X3640191Y806616D01*
X3639225Y807016D01*
X3638189Y807152D01*
D02*
G37*
G36*
X3589370Y751219D02*
X3588240Y751070D01*
X3587186Y750633D01*
X3586282Y749939D01*
X3585587Y749034D01*
X3585151Y747981D01*
X3585002Y746850D01*
X3585151Y745720D01*
X3585587Y744666D01*
X3586282Y743762D01*
X3587186Y743068D01*
X3588240Y742631D01*
X3589370Y742482D01*
X3590501Y742631D01*
X3591554Y743068D01*
X3592459Y743762D01*
X3593153Y744666D01*
X3593589Y745720D01*
X3593738Y746850D01*
X3593589Y747981D01*
X3593153Y749034D01*
X3592459Y749939D01*
X3591554Y750633D01*
X3590501Y751070D01*
X3589370Y751219D01*
D02*
G37*
G36*
X3638583Y750037D02*
X3637452Y749889D01*
X3636853Y749640D01*
X3617536D01*
X3616508Y749505D01*
X3615550Y749108D01*
X3614728Y748477D01*
X3613740Y747489D01*
X3612777Y747090D01*
X3611872Y746396D01*
X3611178Y745491D01*
X3610741Y744438D01*
X3610593Y743307D01*
X3610741Y742177D01*
X3611178Y741123D01*
X3611872Y740218D01*
X3612777Y739524D01*
X3613830Y739088D01*
X3614960Y738939D01*
X3616091Y739088D01*
X3617145Y739524D01*
X3618049Y740218D01*
X3618744Y741123D01*
X3618841Y741359D01*
X3619181Y741698D01*
X3636853D01*
X3637452Y741450D01*
X3638583Y741301D01*
X3639713Y741450D01*
X3640767Y741886D01*
X3641671Y742581D01*
X3642366Y743485D01*
X3642802Y744539D01*
X3642951Y745669D01*
X3642802Y746800D01*
X3642366Y747853D01*
X3641671Y748758D01*
X3640767Y749452D01*
X3639713Y749889D01*
X3638583Y750037D01*
D02*
G37*
G36*
X3612598Y709486D02*
X3611468Y709337D01*
X3610415Y708901D01*
X3609510Y708207D01*
X3608816Y707302D01*
X3608379Y706249D01*
X3608230Y705118D01*
X3608379Y703988D01*
X3608816Y702934D01*
X3609510Y702029D01*
X3610415Y701335D01*
X3611468Y700899D01*
X3612598Y700750D01*
X3613729Y700899D01*
X3614782Y701335D01*
X3615687Y702029D01*
X3616381Y702934D01*
X3616818Y703988D01*
X3616967Y705118D01*
X3616818Y706249D01*
X3616381Y707302D01*
X3615687Y708207D01*
X3614782Y708901D01*
X3613729Y709337D01*
X3612598Y709486D01*
D02*
G37*
G36*
X3631890Y731924D02*
X3630315D01*
X3629287Y731788D01*
X3628329Y731392D01*
X3627507Y730761D01*
X3626876Y729938D01*
X3626479Y728980D01*
X3626344Y727953D01*
X3626479Y726925D01*
X3626876Y725967D01*
X3627507Y725145D01*
X3628329Y724514D01*
X3629287Y724117D01*
X3630234Y723992D01*
X3634761Y719466D01*
X3635583Y718835D01*
X3636541Y718438D01*
X3637569Y718303D01*
X3640965D01*
Y715975D01*
Y709676D01*
Y707347D01*
X3637628D01*
X3636600Y707212D01*
X3635643Y706815D01*
X3634821Y706184D01*
X3630245Y701609D01*
X3627165D01*
X3626138Y701474D01*
X3625180Y701077D01*
X3624358Y700446D01*
X3623726Y699623D01*
X3623330Y698666D01*
X3623195Y697638D01*
X3623330Y696610D01*
X3623726Y695652D01*
X3624236Y694988D01*
X3624025Y694488D01*
X3619395D01*
X3618162Y695721D01*
X3617340Y696352D01*
X3616382Y696749D01*
X3615354Y696884D01*
X3606693D01*
X3605665Y696749D01*
X3604707Y696352D01*
X3603885Y695721D01*
X3603254Y694899D01*
X3602857Y693941D01*
X3602722Y692913D01*
X3602857Y691886D01*
X3603254Y690928D01*
X3603885Y690105D01*
X3604707Y689474D01*
X3605665Y689078D01*
X3606693Y688942D01*
X3611221D01*
Y684252D01*
X3654921D01*
Y694488D01*
X3635063D01*
X3634893Y694768D01*
X3634856Y694988D01*
X3639273Y699405D01*
X3644936D01*
X3645942Y699538D01*
X3648873D01*
Y703118D01*
X3648907Y703376D01*
Y709676D01*
Y715975D01*
Y722274D01*
X3648873Y722532D01*
Y726113D01*
X3645942D01*
X3644936Y726245D01*
X3639213D01*
X3634698Y730761D01*
X3633875Y731392D01*
X3632917Y731788D01*
X3631890Y731924D01*
D02*
G37*
G36*
X3577559Y684289D02*
X3576429Y684140D01*
X3575375Y683704D01*
X3574471Y683010D01*
X3573776Y682105D01*
X3573340Y681052D01*
X3573191Y679921D01*
X3573340Y678791D01*
X3573776Y677737D01*
X3574471Y676833D01*
X3575375Y676138D01*
X3576429Y675702D01*
X3577559Y675553D01*
X3578690Y675702D01*
X3579743Y676138D01*
X3580648Y676833D01*
X3581342Y677737D01*
X3581778Y678791D01*
X3581927Y679921D01*
X3581778Y681052D01*
X3581342Y682105D01*
X3580648Y683010D01*
X3579743Y683704D01*
X3578690Y684140D01*
X3577559Y684289D01*
D02*
G37*
G36*
X3546358Y675136D02*
X3545228Y674987D01*
X3544174Y674551D01*
X3543270Y673856D01*
X3542575Y672952D01*
X3542139Y671898D01*
X3541990Y670768D01*
X3542139Y669637D01*
X3542575Y668584D01*
X3543270Y667679D01*
X3544174Y666985D01*
X3545228Y666548D01*
X3546358Y666400D01*
X3547489Y666548D01*
X3548542Y666985D01*
X3549447Y667679D01*
X3550141Y668584D01*
X3550578Y669637D01*
X3550726Y670768D01*
X3550578Y671898D01*
X3550141Y672952D01*
X3549447Y673856D01*
X3548542Y674551D01*
X3547489Y674987D01*
X3546358Y675136D01*
D02*
G37*
G36*
X3654921Y642913D02*
X3610433D01*
Y641766D01*
X3603543D01*
X3603543Y641766D01*
X3602515Y641631D01*
X3601558Y641234D01*
X3600735Y640603D01*
X3600104Y639781D01*
X3599708Y638823D01*
X3599572Y637795D01*
X3599707Y636767D01*
X3600104Y635810D01*
X3600735Y634987D01*
X3601558Y634356D01*
X3602515Y633960D01*
X3603543Y633824D01*
X3610433D01*
Y632677D01*
X3654921D01*
Y642913D01*
D02*
G37*
G36*
Y611024D02*
X3610433D01*
Y609082D01*
X3603543D01*
X3602721Y608974D01*
X3601955Y608657D01*
X3601297Y608152D01*
X3600792Y607494D01*
X3600475Y606728D01*
X3600367Y605905D01*
X3600475Y605083D01*
X3600792Y604317D01*
X3601297Y603659D01*
X3601955Y603154D01*
X3602721Y602837D01*
X3603543Y602729D01*
X3610433D01*
Y600787D01*
X3641339D01*
Y594193D01*
X3649213D01*
Y597377D01*
X3649490Y597655D01*
X3649995Y598313D01*
X3650312Y599079D01*
X3650421Y599902D01*
Y600787D01*
X3654921D01*
Y611024D01*
D02*
G37*
G36*
X3615354Y570932D02*
X3614318Y570795D01*
X3613353Y570396D01*
X3612524Y569760D01*
X3611888Y568930D01*
X3611488Y567965D01*
X3611352Y566929D01*
X3611488Y565893D01*
X3611888Y564928D01*
X3612524Y564099D01*
X3613353Y563463D01*
X3614318Y563063D01*
X3615354Y562926D01*
X3616390Y563063D01*
X3617356Y563463D01*
X3618185Y564099D01*
X3618821Y564928D01*
X3619221Y565893D01*
X3619357Y566929D01*
X3619221Y567965D01*
X3618821Y568930D01*
X3618185Y569760D01*
X3617356Y570396D01*
X3616390Y570795D01*
X3615354Y570932D01*
D02*
G37*
%LPD*%
D14*
X3290873Y635361D02*
X3300471D01*
X3286614Y631102D02*
X3290873Y635361D01*
X3286614Y579528D02*
Y631102D01*
X3288668Y645361D02*
X3300471D01*
X3278740Y635433D02*
X3288668Y645361D01*
X3286614Y579528D02*
X3294094Y572047D01*
X3278740Y577559D02*
Y635433D01*
X3294094Y572047D02*
X3325984D01*
X3331102Y577165D02*
Y587598D01*
X3325984Y572047D02*
X3331102Y577165D01*
X3329468Y589331D02*
Y593609D01*
Y589331D02*
X3331102Y587697D01*
Y587598D02*
Y587697D01*
X3353484Y608963D02*
X3382585D01*
X3387992Y614370D01*
X3353674Y616831D02*
X3359938D01*
X3353484Y616640D02*
X3353674Y616831D01*
X3359938D02*
X3363483Y620376D01*
X3358261Y603845D02*
X3358366Y603740D01*
X3353484Y603845D02*
X3358261D01*
X3358569Y619199D02*
X3359843Y620472D01*
Y623148D02*
X3362205Y625511D01*
X3353484Y619199D02*
X3358569D01*
X3359843Y620472D02*
Y623148D01*
X3305787Y600676D02*
Y603818D01*
X3300471Y595361D02*
X3305787Y600676D01*
X3307874Y605905D02*
X3315675D01*
X3305787Y603818D02*
X3307874Y605905D01*
X3315675D02*
X3318877Y602703D01*
Y602605D02*
Y602703D01*
Y602605D02*
X3319422Y603150D01*
X3321653D01*
X3322349Y603845D02*
X3329468D01*
X3321653Y603150D02*
X3322349Y603845D01*
X3363483Y597616D02*
Y597715D01*
X3359091Y597250D02*
X3359192D01*
X3353779Y598431D02*
X3357910D01*
X3359091Y597250D01*
X3353484Y598727D02*
X3353779Y598431D01*
X3363483Y620376D02*
Y620475D01*
X3278740Y577559D02*
X3289627Y566672D01*
X3346232D01*
X3356279Y576719D01*
Y588038D01*
X3326025Y611817D02*
X3329173D01*
X3324134Y613708D02*
Y620459D01*
X3318886Y618209D02*
X3322166Y614929D01*
X3305619Y630508D02*
X3314184D01*
X3318886Y625708D02*
Y625806D01*
X3314184Y630508D02*
X3318886Y625806D01*
X3300471Y625361D02*
X3305619Y630508D01*
X3318886Y625609D02*
X3319968Y624527D01*
X3320067D01*
X3318886Y625609D02*
Y625708D01*
X3329173Y611817D02*
X3329468Y611522D01*
X3324134Y613708D02*
X3326025Y611817D01*
X3320067Y624527D02*
X3324134Y620459D01*
X3322166Y611576D02*
Y614929D01*
X3318886Y618209D02*
Y618406D01*
X3322166Y611576D02*
X3324780Y608963D01*
X3307019Y621908D02*
X3315384D01*
X3300471Y615361D02*
X3307019Y621908D01*
X3315384D02*
X3318886Y618406D01*
X3324780Y608963D02*
X3329468D01*
X3300471Y605361D02*
X3309319Y614208D01*
X3315184D01*
X3318886Y610408D02*
Y610506D01*
X3315184Y614208D02*
X3318886Y610506D01*
X3322791Y606404D02*
X3329468D01*
X3318886Y610309D02*
X3322791Y606404D01*
X3318886Y610309D02*
Y610408D01*
X3353484Y590833D02*
Y593609D01*
X3355098Y589219D02*
X3355196D01*
X3356279Y588038D02*
Y588136D01*
X3355196Y589219D02*
X3356279Y588136D01*
X3353484Y590833D02*
X3355098Y589219D01*
X3335506Y620649D02*
Y626999D01*
X3329468Y619199D02*
X3334057D01*
X3335506Y620649D01*
X3329468Y621758D02*
Y626912D01*
X3329578Y627022D01*
X3335484D02*
X3335506Y626999D01*
D16*
X3329566Y596069D02*
X3333360D01*
X3336591Y592838D01*
X3329468Y596168D02*
X3329566Y596069D01*
X3336591Y587916D02*
Y592838D01*
Y587916D02*
X3336909Y587598D01*
X3343012D02*
Y591929D01*
X3340157Y594783D02*
X3343012Y591929D01*
X3337986Y594783D02*
X3340157D01*
X3329566Y598628D02*
X3334142D01*
X3329468Y598727D02*
X3329566Y598628D01*
X3334142D02*
X3337986Y594783D01*
X3301259Y585361D02*
X3308884D01*
X3313386Y589862D01*
Y589961D01*
X3319685Y596161D02*
X3319783D01*
X3324809Y601187D01*
X3329369D01*
X3329468Y601286D01*
X3313386Y595866D02*
X3313533Y596014D01*
X3319537D01*
X3319685Y596161D01*
X3358553Y614065D02*
X3358760Y614272D01*
X3353500Y614065D02*
X3358553D01*
X3353490Y611516D02*
X3360528D01*
X3353484Y611522D02*
X3353490Y611516D01*
X3362401Y604605D02*
Y605574D01*
Y604605D02*
X3363483Y603522D01*
X3360528Y611516D02*
X3363483Y614471D01*
X3353785Y600984D02*
X3359956D01*
X3360961Y599979D01*
X3353484Y601286D02*
X3353785Y600984D01*
X3361220Y599979D02*
X3363483Y597715D01*
X3360961Y599979D02*
X3361220D01*
X3361478Y606496D02*
X3362401Y605574D01*
X3353484Y606404D02*
X3353576Y606496D01*
X3312105Y601935D02*
X3312775Y602605D01*
X3309809Y601935D02*
X3312105D01*
X3308805Y600931D02*
X3309809Y601935D01*
X3300471Y585361D02*
X3301259D01*
X3306299Y590401D01*
Y596850D01*
X3308805Y599356D02*
Y600931D01*
X3419291Y754724D02*
X3421721Y752295D01*
X3423985D02*
X3426476Y749803D01*
X3421721Y752295D02*
X3423985D01*
X3334389Y614081D02*
X3334738D01*
X3329468D02*
X3334389D01*
X3336008Y612461D01*
X3331830Y616640D02*
X3334389Y614081D01*
X3334738D02*
X3336357Y612461D01*
X3340020Y608798D01*
X3336357Y612461D02*
X3336698D01*
X3336008D02*
X3336357D01*
X3340191Y608968D02*
X3341476Y607683D01*
X3336698Y612461D02*
X3340191Y608968D01*
X3329468Y616640D02*
X3331830D01*
X3350140Y596266D02*
X3353385D01*
X3348323Y598083D02*
X3350140Y596266D01*
X3353385D02*
X3353484Y596168D01*
X3350078Y587349D02*
X3350471Y587743D01*
X3372881Y614569D02*
X3372984Y614672D01*
X3363483Y614471D02*
Y614569D01*
X3353576Y606496D02*
X3361478D01*
X3340191Y615400D02*
X3341810Y617020D01*
X3340191Y608968D02*
Y615400D01*
X3341810Y617020D02*
Y620900D01*
X3347432Y626522D02*
X3347531D01*
X3341810Y620900D02*
X3347432Y626522D01*
X3341135Y607683D02*
X3341476D01*
X3329468Y614081D02*
Y616640D01*
X3311184Y608808D02*
X3312783Y610408D01*
X3308435Y608808D02*
X3311184D01*
X3308535Y625708D02*
X3312783D01*
X3308435Y625608D02*
X3308535Y625708D01*
X3308435Y618308D02*
X3312783D01*
X3306299Y596850D02*
X3308805Y599356D01*
X3350078Y582920D02*
Y587349D01*
X3350176Y588038D02*
X3350471Y587743D01*
X3343641Y600290D02*
Y605518D01*
X3345806Y603353D01*
X3343298Y599947D02*
X3343641Y600290D01*
X3343298Y597990D02*
Y599947D01*
Y597990D02*
X3349684Y591604D01*
X3341476Y607683D02*
X3343641Y605518D01*
X3349684Y588530D02*
X3350176Y588038D01*
X3349684Y588530D02*
Y591604D01*
X3348323Y598083D02*
Y601733D01*
X3345806Y603353D02*
X3346703D01*
X3348323Y601733D01*
X3178839Y735039D02*
X3179626Y734252D01*
X3178839Y735039D02*
Y748819D01*
Y752658D01*
X3176772Y754724D02*
X3178839Y752658D01*
X3176772Y754724D02*
Y762598D01*
X3431496Y734252D02*
X3435335D01*
X3427362Y738386D02*
Y742520D01*
Y738386D02*
X3431496Y734252D01*
X3427411Y748770D02*
X3427460Y748819D01*
X3427411Y742569D02*
Y748770D01*
X3427362Y742520D02*
X3427411Y742569D01*
X3426575Y749803D02*
X3427460Y748917D01*
X3426476Y749803D02*
X3426575D01*
X3419291Y754724D02*
Y762598D01*
X3427460Y748819D02*
Y748917D01*
X3353484Y614081D02*
X3353500Y614065D01*
D19*
X3403051Y603445D02*
Y614665D01*
X3403002Y603396D02*
X3403051Y603445D01*
X3388041Y603396D02*
Y614419D01*
X3388238Y614616D01*
X3387992Y614370D02*
X3388041Y614419D01*
X3403002Y614616D02*
X3403051Y614665D01*
X3388238Y614616D02*
X3403002D01*
X3414468Y614764D02*
X3414518Y614715D01*
Y603592D02*
Y614715D01*
Y603592D02*
X3414567Y603543D01*
X3403051Y614665D02*
X3403101Y614715D01*
X3414419D01*
X3414468Y614764D01*
X3388041Y603396D02*
X3388091Y603346D01*
X3379331Y564370D02*
X3406004D01*
X3439764Y649213D02*
Y654331D01*
X3425197Y634646D02*
X3439764Y649213D01*
X3372984Y570717D02*
Y584821D01*
Y570717D02*
X3379331Y564370D01*
X3406004D02*
X3461516Y619882D01*
X3462303D01*
X3647244Y668898D02*
Y678346D01*
X3618504D02*
X3618898Y677953D01*
Y678346D02*
X3633071D01*
X3647244D01*
X3618898Y668898D02*
Y677953D01*
X3647244Y668898D02*
X3647441Y669095D01*
X3661614D01*
X3618504Y678346D02*
X3618898D01*
X3661614Y669095D02*
X3661811Y669291D01*
X3618898Y668898D02*
X3633071D01*
X3609843Y692913D02*
X3615354D01*
X3606693D02*
X3609843D01*
X3615354D02*
X3618898Y689370D01*
X3633071D01*
X3647244D01*
X3602756Y657874D02*
X3618898D01*
X3633071D01*
X3646851D02*
X3647244D01*
X3633071D02*
X3646851D01*
X3645669Y650000D02*
Y656693D01*
X3646851Y657874D01*
X3650984Y650000D02*
X3659055D01*
X3661811Y652756D02*
Y669291D01*
X3659055Y650000D02*
X3661811Y652756D01*
X3603543Y637795D02*
X3618110D01*
X3603543Y637795D02*
X3603543Y637795D01*
X3618110D02*
X3632677D01*
X3647244D01*
X3631890Y697638D02*
X3631988Y697736D01*
X3637628Y703376D01*
X3627165Y697638D02*
X3631890D01*
X3637628Y703376D02*
X3644936D01*
Y709676D01*
Y715975D01*
Y722274D01*
X3631890Y727953D02*
X3637569Y722274D01*
X3630315Y727953D02*
X3631890D01*
X3637569Y722274D02*
X3644936D01*
X3310708Y638038D02*
Y641581D01*
X3173878Y600945D02*
Y607244D01*
X3173854Y594593D02*
Y600921D01*
X3173878Y600945D01*
X3173854Y587957D02*
Y594593D01*
Y587957D02*
X3178740Y583071D01*
X3197638D02*
X3205906Y574803D01*
X3178740Y583071D02*
X3197638D01*
X3205906Y574803D02*
X3231496D01*
X3207480Y598032D02*
X3216929Y588583D01*
X3207480Y611417D02*
X3221260D01*
X3227408Y619534D02*
X3227559Y619685D01*
X3214114Y625650D02*
X3220079Y619685D01*
X3227408Y617566D02*
Y619534D01*
X3310557Y641732D02*
Y651147D01*
Y641732D02*
X3310708Y641581D01*
X3300471Y655361D02*
X3301653Y654179D01*
X3307524D01*
X3310557Y651147D01*
X3214114Y635079D02*
X3257520D01*
X3277802Y655361D02*
X3300471D01*
X3257520Y635079D02*
X3277802Y655361D01*
X3220079Y619685D02*
X3227559D01*
X3221260Y611417D02*
X3227408Y617566D01*
X3214114Y625650D02*
Y635079D01*
X3216929Y588583D02*
X3237795D01*
X3207480Y598032D02*
Y611417D01*
X3231496Y574803D02*
X3237795Y581102D01*
Y588583D01*
X3363483Y590876D02*
Y597616D01*
Y590876D02*
X3369538Y584821D01*
X3372984D01*
X3617536Y745669D02*
X3638583D01*
X3615174Y743307D02*
X3617536Y745669D01*
X3614960Y743307D02*
X3615174D01*
X3559449Y721260D02*
X3562106D01*
X3562598Y721752D01*
Y732185D01*
X3563091Y732677D01*
X3574409Y715354D02*
Y721260D01*
X3572441Y713386D02*
X3574409Y715354D01*
X3565354Y713386D02*
X3572441D01*
X3562894Y710925D02*
X3565354Y713386D01*
X3562894Y703051D02*
Y710925D01*
X3559449Y702559D02*
X3562402D01*
X3562894Y703051D01*
X3582185Y732283D02*
X3588583D01*
X3581791Y732677D02*
X3582185Y732283D01*
X3363483Y614569D02*
X3372881D01*
X3363483Y603522D02*
X3372984D01*
D24*
X3319685Y590059D02*
D03*
Y596161D02*
D03*
X3433858Y755512D02*
D03*
Y749409D02*
D03*
X3544488Y748228D02*
D03*
Y754331D02*
D03*
X3191339Y749803D02*
D03*
Y755905D02*
D03*
X3309843Y756201D02*
D03*
Y750098D02*
D03*
X3353621Y638727D02*
D03*
Y632624D02*
D03*
D25*
X3331102Y587598D02*
D03*
X3325000D02*
D03*
X3427362Y742520D02*
D03*
X3421260D02*
D03*
X3538051Y742154D02*
D03*
X3531949D02*
D03*
X3350176Y588038D02*
D03*
X3356279D02*
D03*
X3336909Y587598D02*
D03*
X3343012D02*
D03*
X3312775Y602605D02*
D03*
X3318877D02*
D03*
X3318886Y618308D02*
D03*
X3312783D02*
D03*
X3421358Y748819D02*
D03*
X3427460D02*
D03*
X3538091Y748425D02*
D03*
X3531988D02*
D03*
X3184941Y748819D02*
D03*
X3178839D02*
D03*
X3296949D02*
D03*
X3303051D02*
D03*
X3318886Y610408D02*
D03*
X3312783D02*
D03*
Y625708D02*
D03*
X3318886D02*
D03*
X3184941Y742520D02*
D03*
X3178839D02*
D03*
X3303051D02*
D03*
X3296949D02*
D03*
X3456201Y565748D02*
D03*
X3450098D02*
D03*
Y572047D02*
D03*
X3456201D02*
D03*
X3456102Y578346D02*
D03*
X3450000D02*
D03*
D26*
X3414468Y625197D02*
D03*
Y614764D02*
D03*
X3414567Y593110D02*
D03*
Y603543D02*
D03*
D27*
X3347531Y626522D02*
D03*
X3353436D02*
D03*
X3644936Y709676D02*
D03*
X3650842D02*
D03*
X3644936Y703376D02*
D03*
X3650842D02*
D03*
X3329578Y627022D02*
D03*
X3335484D02*
D03*
X3645669Y650000D02*
D03*
X3651575D02*
D03*
X3645275Y598032D02*
D03*
X3651181D02*
D03*
X3167949Y594593D02*
D03*
X3173854D02*
D03*
X3167972Y600945D02*
D03*
X3173878D02*
D03*
X3644936Y722274D02*
D03*
X3650842D02*
D03*
X3644936Y715975D02*
D03*
X3650842D02*
D03*
X3167972Y607244D02*
D03*
X3173878D02*
D03*
D28*
X3363483Y620475D02*
D03*
Y614569D02*
D03*
Y597616D02*
D03*
Y603522D02*
D03*
X3313386Y589961D02*
D03*
Y595866D02*
D03*
D29*
X3403051Y603445D02*
D03*
Y583957D02*
D03*
Y614665D02*
D03*
Y634154D02*
D03*
X3388091Y603346D02*
D03*
Y583858D02*
D03*
X3387992Y614567D02*
D03*
Y634055D02*
D03*
D30*
X3647244Y689370D02*
D03*
Y678346D02*
D03*
Y668898D02*
D03*
Y657874D02*
D03*
X3633071Y689370D02*
D03*
Y678346D02*
D03*
X3618110Y616929D02*
D03*
Y605905D02*
D03*
X3647244Y637795D02*
D03*
Y626772D02*
D03*
X3632677D02*
D03*
Y637795D02*
D03*
X3633071Y657874D02*
D03*
Y668898D02*
D03*
X3618898Y678346D02*
D03*
Y689370D02*
D03*
Y657874D02*
D03*
Y668898D02*
D03*
X3618110Y626772D02*
D03*
Y637795D02*
D03*
X3632677Y605905D02*
D03*
Y616929D02*
D03*
X3647244D02*
D03*
Y605905D02*
D03*
D31*
X3435335Y734252D02*
D03*
X3422146D02*
D03*
X3192815D02*
D03*
X3179626D02*
D03*
X3297736D02*
D03*
X3310925D02*
D03*
X3532906Y734154D02*
D03*
X3546095D02*
D03*
D32*
X3317717Y758268D02*
D03*
Y747244D02*
D03*
X3551968Y744488D02*
D03*
Y755512D02*
D03*
X3199606Y757874D02*
D03*
Y746850D02*
D03*
X3441732Y745276D02*
D03*
Y756299D02*
D03*
D33*
X3341476Y607683D02*
D03*
D34*
X3329468Y621758D02*
D03*
Y619199D02*
D03*
Y616640D02*
D03*
Y614081D02*
D03*
Y611522D02*
D03*
Y608963D02*
D03*
Y606404D02*
D03*
Y603845D02*
D03*
Y601286D02*
D03*
Y598727D02*
D03*
Y596168D02*
D03*
Y593609D02*
D03*
X3353484Y621758D02*
D03*
Y619199D02*
D03*
Y616640D02*
D03*
Y614081D02*
D03*
Y611522D02*
D03*
Y608963D02*
D03*
Y606404D02*
D03*
Y603845D02*
D03*
Y601286D02*
D03*
Y598727D02*
D03*
Y596168D02*
D03*
Y593609D02*
D03*
D35*
X3310557Y651147D02*
D03*
Y658627D02*
D03*
D36*
X3318363Y651843D02*
D03*
Y658143D02*
D03*
D37*
X3372984Y603522D02*
D03*
Y584821D02*
D03*
X3574409Y721260D02*
D03*
Y702559D02*
D03*
X3559449D02*
D03*
Y721260D02*
D03*
X3372984Y633372D02*
D03*
Y614672D02*
D03*
D38*
X3563091Y732677D02*
D03*
X3581791D02*
D03*
D39*
X3214114Y648858D02*
D03*
Y635079D02*
D03*
D65*
X3607874Y566929D02*
D03*
X3156693D02*
D03*
X3645669Y803150D02*
D03*
X3151181D02*
D03*
D66*
X3456496Y635827D02*
X3471653D01*
X3424409Y603740D02*
X3456496Y635827D01*
X3647244Y599902D02*
Y605905D01*
X3645374Y598032D02*
X3647244Y599902D01*
X3645275Y598032D02*
X3645374D01*
X3632677Y605905D02*
X3647244D01*
X3618110D02*
X3632677D01*
X3607087D02*
X3618110D01*
X3603543D02*
X3607087D01*
X3532441Y740644D02*
X3532906Y740179D01*
Y734154D02*
Y740179D01*
X3531949Y742154D02*
X3532441Y741661D01*
Y740644D02*
Y741661D01*
X3532874Y712106D02*
X3533071Y712303D01*
Y733988D01*
X3532906Y734154D02*
X3533071Y733988D01*
X3319685Y669291D02*
X3333464Y655512D01*
X3359449D02*
X3362205Y652756D01*
Y625511D02*
Y652756D01*
X3310925Y734252D02*
Y735335D01*
X3304331Y741929D02*
X3310925Y735335D01*
X3303543Y741929D02*
X3304331D01*
X3303051Y742421D02*
X3303543Y741929D01*
X3303051Y742421D02*
Y742520D01*
X3310630Y733957D02*
X3310925Y734252D01*
X3310630Y684646D02*
Y733957D01*
X3253543Y711417D02*
X3295669Y669291D01*
X3192520Y719685D02*
X3200787Y711417D01*
X3192520Y719685D02*
Y733957D01*
X3200787Y711417D02*
X3253543D01*
X3333464Y655512D02*
X3359449D01*
X3295669Y669291D02*
X3319685D01*
X3312402Y753740D02*
X3315157D01*
X3316935Y748026D02*
Y751963D01*
X3310335Y755709D02*
X3310433D01*
X3312402Y753740D01*
X3316935Y748026D02*
X3317717Y747244D01*
X3315157Y753740D02*
X3316935Y751963D01*
X3309843Y756201D02*
X3310335Y755709D01*
X3199606Y746850D02*
Y751575D01*
X3194193Y753150D02*
X3198031D01*
X3199606Y751575D01*
X3191339Y755905D02*
X3191437D01*
X3194193Y753150D01*
X3187573Y734474D02*
X3192593D01*
X3184941Y737106D02*
Y742520D01*
X3318363Y651843D02*
X3325617D01*
X3325650Y651810D01*
X3421358Y748721D02*
Y748819D01*
X3420866Y748228D02*
X3421358Y748721D01*
X3420768Y748228D02*
X3420866D01*
X3418996Y746457D02*
X3420768Y748228D01*
X3414567Y746457D02*
X3418996D01*
X3192520Y733957D02*
X3192815Y734252D01*
X3425591Y755512D02*
X3428347D01*
X3536221Y754331D02*
X3538976D01*
X3192593Y734474D02*
X3192815Y734252D01*
X3184941Y737106D02*
X3187573Y734474D01*
X3372984Y622320D02*
X3373485Y622821D01*
X3353436Y626522D02*
X3353529Y626615D01*
Y632532D01*
X3353621Y632624D01*
X3353460Y621782D02*
X3353484Y621758D01*
X3353460Y621782D02*
Y626498D01*
X3353436Y626522D02*
X3353460Y626498D01*
X3296949Y748819D02*
Y753839D01*
Y742520D02*
X3297736Y741732D01*
Y734252D02*
Y741732D01*
X3295275Y755512D02*
X3296949Y753839D01*
X3295275Y755512D02*
Y762598D01*
X3296949Y742520D02*
Y748819D01*
X3544488Y745872D02*
Y748228D01*
X3545872Y744488D02*
X3551968D01*
X3544488Y745872D02*
X3545872Y744488D01*
X3441339Y744882D02*
X3441732Y745276D01*
X3435830Y744882D02*
X3441339D01*
X3433954Y749409D02*
X3434446Y748917D01*
X3433858Y749409D02*
X3433954D01*
X3434446Y746266D02*
Y748917D01*
Y746266D02*
X3435830Y744882D01*
X3428347Y755512D02*
X3433858D01*
X3538976Y754331D02*
X3544488D01*
X3524409Y748425D02*
X3531988D01*
D67*
X3422146Y726218D02*
X3426316Y722047D01*
X3444882D01*
X3310557Y658627D02*
X3317879D01*
X3318363Y658143D01*
X3373485Y622821D02*
Y651712D01*
X3422146Y726218D02*
Y741535D01*
X3383071Y729134D02*
X3390551D01*
X3354194Y639299D02*
Y650137D01*
X3353621Y638727D02*
X3354194Y639299D01*
X3390551Y729134D02*
X3395669D01*
X3377953Y679134D02*
Y724016D01*
X3383071Y729134D01*
X3377559Y678740D02*
X3377953Y679134D01*
X3363483Y620475D02*
X3371138D01*
X3372984Y622320D01*
X3421260Y742421D02*
Y742520D01*
Y742421D02*
X3422146Y741535D01*
D68*
X3538583Y736221D02*
X3540649Y734154D01*
X3546095D01*
X3538051Y742154D02*
X3538583Y741622D01*
Y736221D02*
Y741622D01*
X3538071Y748406D02*
X3538091Y748425D01*
X3538071Y742173D02*
Y748406D01*
X3538051Y742154D02*
X3538071Y742173D01*
X3537402Y749114D02*
Y750225D01*
X3529900Y756475D02*
Y762047D01*
X3537402Y749114D02*
X3538091Y748425D01*
X3534998Y751378D02*
X3536248D01*
X3529900Y756475D02*
X3534998Y751378D01*
X3536248D02*
X3537402Y750225D01*
D69*
X3661811Y720472D02*
D03*
Y669291D02*
D03*
Y618110D02*
D03*
Y566929D02*
D03*
X3488500Y752913D02*
D03*
Y678740D02*
D03*
X3134851D02*
D03*
Y752913D02*
D03*
X3377559D02*
D03*
Y678740D02*
D03*
X3254331D02*
D03*
Y752913D02*
D03*
D70*
X3546358Y670768D02*
D03*
Y690453D02*
D03*
X3612598Y724803D02*
D03*
Y705118D02*
D03*
X3577559Y679921D02*
D03*
X3597244D02*
D03*
X3237795Y588583D02*
D03*
Y568898D02*
D03*
X3247244Y619685D02*
D03*
X3227559D02*
D03*
X3658268Y745669D02*
D03*
X3638583D02*
D03*
X3187795Y611417D02*
D03*
X3207480D02*
D03*
X3589370Y756693D02*
D03*
Y746850D02*
D03*
X3614960Y743307D02*
D03*
Y753150D02*
D03*
D71*
X3640157Y566929D02*
D03*
X3128740Y803150D02*
D03*
X3131890Y566929D02*
D03*
X3661024Y803150D02*
D03*
D72*
X3176772Y762598D02*
D03*
X3295275D02*
D03*
X3419291D02*
D03*
X3529900Y762047D02*
D03*
D73*
X3166772Y762598D02*
D03*
X3156772D02*
D03*
X3275275D02*
D03*
X3285276D02*
D03*
X3409291D02*
D03*
X3399291D02*
D03*
X3509900Y762047D02*
D03*
X3519900D02*
D03*
D74*
X3205906Y574803D02*
D03*
X3186221D02*
D03*
D75*
X3300471Y655361D02*
D03*
D76*
Y645361D02*
D03*
Y635361D02*
D03*
Y625361D02*
D03*
Y615361D02*
D03*
Y605361D02*
D03*
Y595361D02*
D03*
Y585361D02*
D03*
D77*
X3424409Y603740D02*
D03*
X3471653Y635827D02*
D03*
X3420866Y594095D02*
D03*
X3412992Y586221D02*
D03*
X3388189Y577165D02*
D03*
X3403149D02*
D03*
X3395669D02*
D03*
Y640158D02*
D03*
X3425197Y634646D02*
D03*
X3439764Y654331D02*
D03*
X3419685Y625197D02*
D03*
X3403149Y640158D02*
D03*
X3388189D02*
D03*
X3606693Y692913D02*
D03*
X3609843D02*
D03*
X3606693Y657874D02*
D03*
X3602756D02*
D03*
X3607087Y637795D02*
D03*
X3603543D02*
D03*
X3607087Y605905D02*
D03*
X3603543D02*
D03*
X3358760Y614272D02*
D03*
X3358366Y603740D02*
D03*
X3444882Y722047D02*
D03*
X3128740Y743307D02*
D03*
Y739370D02*
D03*
X3133071Y743307D02*
D03*
Y739370D02*
D03*
X3137402Y743307D02*
D03*
Y739370D02*
D03*
X3141732Y743307D02*
D03*
Y739370D02*
D03*
X3124508Y739468D02*
D03*
Y743405D02*
D03*
X3146161Y739468D02*
D03*
Y743405D02*
D03*
Y767421D02*
D03*
Y763484D02*
D03*
Y759547D02*
D03*
X3124508Y767421D02*
D03*
Y763484D02*
D03*
Y759547D02*
D03*
X3462303Y619882D02*
D03*
X3532874Y712106D02*
D03*
X3268504Y754462D02*
D03*
X3268209Y746063D02*
D03*
X3272736D02*
D03*
X3277264D02*
D03*
X3277264Y749606D02*
D03*
X3272736D02*
D03*
X3268209D02*
D03*
X3268504Y759318D02*
D03*
Y764173D02*
D03*
X3308661Y599213D02*
D03*
X3310630Y684646D02*
D03*
X3322895Y651810D02*
D03*
X3325650D02*
D03*
X3414567Y746457D02*
D03*
X3631988Y697736D02*
D03*
X3627165Y697638D02*
D03*
X3396457Y742520D02*
D03*
X3393457D02*
D03*
X3399457D02*
D03*
X3396457Y746850D02*
D03*
X3393457D02*
D03*
X3399457D02*
D03*
X3396457Y751181D02*
D03*
X3393457D02*
D03*
X3399457D02*
D03*
X3399480Y755547D02*
D03*
X3393480D02*
D03*
X3396480D02*
D03*
X3511417Y754331D02*
D03*
X3508268D02*
D03*
X3505118D02*
D03*
X3189764Y641142D02*
D03*
X3185827D02*
D03*
X3181890D02*
D03*
X3177953D02*
D03*
X3166142D02*
D03*
X3170079D02*
D03*
X3174016D02*
D03*
X3189764Y645472D02*
D03*
X3185827D02*
D03*
X3181890D02*
D03*
X3177953D02*
D03*
X3166142D02*
D03*
X3170079D02*
D03*
X3174016D02*
D03*
X3189764Y649803D02*
D03*
X3185827D02*
D03*
X3181890D02*
D03*
X3177953D02*
D03*
X3166142D02*
D03*
X3170079D02*
D03*
X3174016D02*
D03*
X3189764Y654134D02*
D03*
X3185827D02*
D03*
X3181890D02*
D03*
X3177953D02*
D03*
X3166142D02*
D03*
X3170079D02*
D03*
X3174016D02*
D03*
X3189764Y658465D02*
D03*
X3185827D02*
D03*
X3181890D02*
D03*
X3177953D02*
D03*
X3166142D02*
D03*
X3170079D02*
D03*
X3174016D02*
D03*
X3189764Y662795D02*
D03*
X3185827D02*
D03*
X3181890D02*
D03*
X3177953D02*
D03*
X3166142D02*
D03*
X3170079D02*
D03*
X3174016D02*
D03*
X3189764Y667126D02*
D03*
X3185827D02*
D03*
X3181890D02*
D03*
X3177953D02*
D03*
X3166142D02*
D03*
X3170079D02*
D03*
X3174016D02*
D03*
X3189764Y671457D02*
D03*
X3185827D02*
D03*
X3181890D02*
D03*
X3177953D02*
D03*
X3166142D02*
D03*
X3170079D02*
D03*
X3174016D02*
D03*
X3141732Y759449D02*
D03*
Y763386D02*
D03*
Y767323D02*
D03*
X3137402Y759449D02*
D03*
Y763386D02*
D03*
Y767323D02*
D03*
X3133071Y759449D02*
D03*
Y763386D02*
D03*
Y767323D02*
D03*
X3128740Y759449D02*
D03*
Y763386D02*
D03*
Y767323D02*
D03*
X3633464Y726378D02*
D03*
X3630315Y727953D02*
D03*
X3473622Y565354D02*
D03*
Y571654D02*
D03*
Y577953D02*
D03*
Y574803D02*
D03*
Y568504D02*
D03*
X3470472Y565354D02*
D03*
Y568504D02*
D03*
Y571654D02*
D03*
Y574803D02*
D03*
Y577953D02*
D03*
X3437795Y566142D02*
D03*
Y572441D02*
D03*
Y578740D02*
D03*
Y575591D02*
D03*
Y569291D02*
D03*
X3434646Y566142D02*
D03*
Y569291D02*
D03*
Y572441D02*
D03*
Y575591D02*
D03*
Y578740D02*
D03*
X3467323Y565354D02*
D03*
Y571654D02*
D03*
Y577953D02*
D03*
Y574803D02*
D03*
Y568504D02*
D03*
X3464173Y565354D02*
D03*
Y568504D02*
D03*
Y571654D02*
D03*
Y574803D02*
D03*
Y577953D02*
D03*
X3440945Y578740D02*
D03*
Y575591D02*
D03*
Y572441D02*
D03*
Y569291D02*
D03*
Y566142D02*
D03*
X3444094Y569291D02*
D03*
Y575591D02*
D03*
Y578740D02*
D03*
Y572441D02*
D03*
Y566142D02*
D03*
X3357480Y748819D02*
D03*
Y753543D02*
D03*
Y758661D02*
D03*
X3354194Y650137D02*
D03*
X3373485Y651712D02*
D03*
X3395669Y729134D02*
D03*
X3390551D02*
D03*
X3385433D02*
D03*
X3588583Y732283D02*
D03*
X3359192Y597250D02*
D03*
X3320551Y581345D02*
D03*
X3316810Y582329D02*
D03*
X3310708Y638038D02*
D03*
Y641581D02*
D03*
X3308435Y608808D02*
D03*
Y625608D02*
D03*
Y618308D02*
D03*
X3350078Y582920D02*
D03*
X3425591Y755512D02*
D03*
X3536221Y754331D02*
D03*
X3538976D02*
D03*
X3192913Y745276D02*
D03*
X3524409Y748425D02*
D03*
X3311417Y745669D02*
D03*
X3189764Y745276D02*
D03*
X3307874Y745669D02*
D03*
X3428347Y755512D02*
D03*
D78*
X3337145Y614180D02*
D03*
X3341476D02*
D03*
X3345806D02*
D03*
X3337145Y609849D02*
D03*
X3341476D02*
D03*
X3345806D02*
D03*
X3337145Y605518D02*
D03*
X3341476D02*
D03*
X3345806D02*
D03*
X3337145Y601187D02*
D03*
X3341476D02*
D03*
X3345806D02*
D03*
M02*
